{
copyright = "Copyright (c) 2015, Cadson Demak (info@cadsondemak.com)";
customParameters = (
{
name = vendorID;
value = CDK;
},
{
name = description;
value = "Copyright (c) 2015, Cadson Demak (info@cadsondemak.com)";
},
{
name = license;

glyphs = (
{
glyphname = A;
lastChange = "2015-07-30 07:35:19 +0000";
layers = (
{
layerId = "9EA4E357-4DFB-45A6-8407-D27A22F681E3";
name = Light;
paths = (
{
closed = 1;
nodes = (
"213 0 LINE SMOOTH",
"221 0 OFFCURVE",
"224 6 OFFCURVE",
"224 14 CURVE SMOOTH",
"224 26 OFFCURVE",
"217 34 OFFCURVE",
"196 38 CURVE SMOOTH",
"137 50 LINE",
"200 227 LINE",
"487 227 LINE",
"551 49 LINE",
"510 49 LINE SMOOTH",
"487 49 OFFCURVE",
"473 39 OFFCURVE",
"473 21 CURVE SMOOTH",
"473 8 OFFCURVE",
"480 0 OFFCURVE",
"490 0 CURVE SMOOTH",
"693 0 LINE SMOOTH",
"701 0 OFFCURVE",
"704 7 OFFCURVE",
"704 15 CURVE SMOOTH",
"704 28 OFFCURVE",
"695 36 OFFCURVE",
"676 40 CURVE SMOOTH",
"632 50 LINE",
"399 695 LINE",
"307 695 LINE",
"74 49 LINE",
"44 49 LINE SMOOTH",
"22 49 OFFCURVE",
"8 39 OFFCURVE",
"8 21 CURVE SMOOTH",
"8 8 OFFCURVE",
"14 0 OFFCURVE",
"25 0 CURVE SMOOTH"
);
},
{
closed = 1;
nodes = (
"343 627 LINE",
"467 281 LINE",
"219 281 LINE"
);
}
);
width = 711;
}
);
note = A;
unicode = 0041;
},
{
glyphname = Aacute;
lastChange = "2015-07-30 07:35:18 +0000";
layers = (
{
components = (
{
name = A;
}
);
layerId = "9EA4E357-4DFB-45A6-8407-D27A22F681E3";
name = Light;
paths = (
{
closed = 1;
nodes = (
"451 887 LINE",
"391 926 LINE",
"304 780 LINE",
"349 751 LINE"
);
}
);
width = 711;
}
);
note = Aacute;
unicode = 00C1;
},
{
glyphname = Abreve;
lastChange = "2015-07-30 07:35:18 +0000";
layers = (
{
components = (
{
name = A;
}
);
layerId = "9EA4E357-4DFB-45A6-8407-D27A22F681E3";
name = Light;
paths = (
{
closed = 1;
nodes = (
"412 747 OFFCURVE",
"471 780 OFFCURVE",
"495 867 CURVE",
"449 883 LINE",
"435 835 OFFCURVE",
"400 801 OFFCURVE",
"349 801 CURVE SMOOTH",
"298 801 OFFCURVE",
"263 835 OFFCURVE",
"249 883 CURVE",
"203 867 LINE",
"227 780 OFFCURVE",
"286 747 OFFCURVE",
"349 747 CURVE SMOOTH"
);
}
);
width = 711;
}
);
note = Abreve;
unicode = 0102;
},
{
glyphname = Abreveacute;
lastChange = "2015-07-30 07:35:19 +0000";
layers = (
{
components = (
{
name = A;
}
);
layerId = "9EA4E357-4DFB-45A6-8407-D27A22F681E3";
name = Light;
paths = (
{
closed = 1;
nodes = (
"414 747 OFFCURVE",
"473 780 OFFCURVE",
"497 867 CURVE",
"451 883 LINE",
"437 835 OFFCURVE",
"402 801 OFFCURVE",
"351 801 CURVE SMOOTH",
"300 801 OFFCURVE",
"265 835 OFFCURVE",
"251 883 CURVE",
"205 867 LINE",
"229 780 OFFCURVE",
"288 747 OFFCURVE",
"351 747 CURVE SMOOTH"
);
},
{
closed = 1;
nodes = (
"452 997 LINE",
"395 1033 LINE",
"316 898 LINE",
"357 872 LINE"
);
}
);
width = 711;
}
);
note = Abreveacute;
unicode = 1EAE;
},
{
glyphname = Abrevedotbelow;
lastChange = "2015-07-30 07:35:19 +0000";
layers = (
{
components = (
{
name = A;
}
);
layerId = "9EA4E357-4DFB-45A6-8407-D27A22F681E3";
name = Light;
paths = (
{
closed = 1;
nodes = (
"412 747 OFFCURVE",
"471 780 OFFCURVE",
"495 867 CURVE",
"449 883 LINE",
"435 835 OFFCURVE",
"400 801 OFFCURVE",
"349 801 CURVE SMOOTH",
"298 801 OFFCURVE",
"263 835 OFFCURVE",
"249 883 CURVE",
"203 867 LINE",
"227 780 OFFCURVE",
"286 747 OFFCURVE",
"349 747 CURVE SMOOTH"
);
},
{
closed = 1;
nodes = (
"374 -164 OFFCURVE",
"396 -143 OFFCURVE",
"396 -115 CURVE SMOOTH",
"396 -86 OFFCURVE",
"374 -65 OFFCURVE",
"347 -65 CURVE SMOOTH",
"320 -65 OFFCURVE",
"298 -86 OFFCURVE",
"298 -115 CURVE SMOOTH",
"298 -143 OFFCURVE",
"320 -164 OFFCURVE",
"347 -164 CURVE SMOOTH"
);
}
);
width = 711;
}
);
note = Abrevedotbelow;
unicode = 1EB6;
},
{
glyphname = Abrevegrave;
lastChange = "2015-07-30 07:35:19 +0000";
layers = (
{
components = (
{
name = A;
}
);
layerId = "9EA4E357-4DFB-45A6-8407-D27A22F681E3";
name = Light;
paths = (
{
closed = 1;
nodes = (
"411 747 OFFCURVE",
"470 780 OFFCURVE",
"494 867 CURVE",
"448 883 LINE",
"434 835 OFFCURVE",
"399 801 OFFCURVE",
"348 801 CURVE SMOOTH",
"297 801 OFFCURVE",
"262 835 OFFCURVE",
"248 883 CURVE",
"202 867 LINE",
"226 780 OFFCURVE",
"285 747 OFFCURVE",
"348 747 CURVE SMOOTH"
);
},
{
closed = 1;
nodes = (
"384 898 LINE",
"305 1033 LINE",
"248 997 LINE",
"342 872 LINE"
);
}
);
width = 711;
}
);
note = Abrevegrave;
unicode = 1EB0;
},
{
glyphname = Abrevehookabove;
lastChange = "2015-07-30 07:35:19 +0000";
layers = (
{
components = (
{
name = A;
}
);
layerId = "9EA4E357-4DFB-45A6-8407-D27A22F681E3";
name = Light;
paths = (
{
closed = 1;
nodes = (
"412 747 OFFCURVE",
"471 780 OFFCURVE",
"495 867 CURVE",
"449 883 LINE",
"435 835 OFFCURVE",
"400 801 OFFCURVE",
"349 801 CURVE SMOOTH",
"298 801 OFFCURVE",
"263 835 OFFCURVE",
"249 883 CURVE",
"203 867 LINE",
"227 780 OFFCURVE",
"286 747 OFFCURVE",
"349 747 CURVE SMOOTH"
);
},
{
closed = 1;
nodes = (
"369 872 LINE",
"374 916 LINE",
"407 927 OFFCURVE",
"428 950 OFFCURVE",
"428 980 CURVE SMOOTH",
"428 1018 OFFCURVE",
"396 1044 OFFCURVE",
"351 1044 CURVE SMOOTH",
"331 1044 OFFCURVE",
"307 1037 OFFCURVE",
"292 1031 CURVE",
"299 999 LINE",
"313 1003 OFFCURVE",
"328 1007 OFFCURVE",
"343 1007 CURVE SMOOTH",
"363 1007 OFFCURVE",
"375 997 OFFCURVE",
"375 979 CURVE SMOOTH",
"375 958 OFFCURVE",
"357 944 OFFCURVE",
"325 933 CURVE",
"330 872 LINE"
);
}
);
width = 711;
}
);
note = Abrevehookabove;
unicode = 1EB2;
},
{
glyphname = Abrevetilde;
lastChange = "2015-07-30 07:35:19 +0000";
layers = (
{
components = (
{
name = A;
}
);
layerId = "9EA4E357-4DFB-45A6-8407-D27A22F681E3";
name = Light;
paths = (
{
closed = 1;
nodes = (
"414 747 OFFCURVE",
"473 780 OFFCURVE",
"497 867 CURVE",
"451 883 LINE",
"437 835 OFFCURVE",
"402 801 OFFCURVE",
"351 801 CURVE SMOOTH",
"300 801 OFFCURVE",
"265 835 OFFCURVE",
"251 883 CURVE",
"205 867 LINE",
"229 780 OFFCURVE",
"288 747 OFFCURVE",
"351 747 CURVE SMOOTH"
);
},
{
closed = 1;
nodes = (
"420 922 OFFCURVE",
"446 937 OFFCURVE",
"467 957 CURVE",
"445 993 LINE",
"429 981 OFFCURVE",
"413 972 OFFCURVE",
"395 972 CURVE SMOOTH",
"368 972 OFFCURVE",
"338 1000 OFFCURVE",
"308 1000 CURVE SMOOTH",
"285 1000 OFFCURVE",
"257 984 OFFCURVE",
"236 965 CURVE",
"258 929 LINE",
"273 941 OFFCURVE",
"288 950 OFFCURVE",
"308 950 CURVE SMOOTH",
"339 950 OFFCURVE",
"363 922 OFFCURVE",
"396 922 CURVE SMOOTH"
);
}
);
width = 711;
}
);
note = Abrevetilde;
unicode = 1EB4;
},
{
glyphname = Acaron;
lastChange = "2015-07-30 07:35:19 +0000";
layers = (
{
components = (
{
name = A;
}
);
layerId = "9EA4E357-4DFB-45A6-8407-D27A22F681E3";
name = Light;
paths = (
{
closed = 1;
nodes = (
"367 751 LINE",
"474 887 LINE",
"437 917 LINE",
"346 818 LINE",
"255 917 LINE",
"218 887 LINE",
"325 751 LINE"
);
}
);
width = 711;
}
);
note = Acaron;
unicode = 01CD;
},
{
glyphname = Acircumflex;
lastChange = "2015-07-30 07:35:18 +0000";
layers = (
{
components = (
{
name = A;
}
);
layerId = "9EA4E357-4DFB-45A6-8407-D27A22F681E3";
name = Light;
paths = (
{
closed = 1;
nodes = (
"347 850 LINE",
"438 751 LINE",
"475 781 LINE",
"368 917 LINE",
"326 917 LINE",
"219 781 LINE",
"256 751 LINE"
);
}
);
width = 711;
}
);
note = Acircumflex;
unicode = 00C2;
},
{
glyphname = Acircumflexacute;
lastChange = "2015-07-30 07:35:19 +0000";
layers = (
{
components = (
{
name = A;
}
);
layerId = "9EA4E357-4DFB-45A6-8407-D27A22F681E3";
name = Light;
paths = (
{
closed = 1;
nodes = (
"350 850 LINE",
"441 751 LINE",
"478 781 LINE",
"371 917 LINE",
"329 917 LINE",
"222 781 LINE",
"259 751 LINE"
);
},
{
closed = 1;
nodes = (
"560 950 LINE",
"506 985 LINE",
"443 876 LINE",
"480 851 LINE"
);
}
);
width = 711;
}
);
note = Acircumflexacute;
unicode = 1EA4;
},
{
glyphname = Acircumflexdotbelow;
lastChange = "2015-07-30 07:35:19 +0000";
layers = (
{
components = (
{
name = A;
}
);
layerId = "9EA4E357-4DFB-45A6-8407-D27A22F681E3";
name = Light;
paths = (
{
closed = 1;
nodes = (
"349 850 LINE",
"440 751 LINE",
"477 781 LINE",
"370 917 LINE",
"328 917 LINE",
"221 781 LINE",
"258 751 LINE"
);
},
{
closed = 1;
nodes = (
"373 -164 OFFCURVE",
"395 -143 OFFCURVE",
"395 -115 CURVE SMOOTH",
"395 -86 OFFCURVE",
"373 -65 OFFCURVE",
"346 -65 CURVE SMOOTH",
"319 -65 OFFCURVE",
"297 -86 OFFCURVE",
"297 -115 CURVE SMOOTH",
"297 -143 OFFCURVE",
"319 -164 OFFCURVE",
"346 -164 CURVE SMOOTH"
);
}
);
width = 711;
}
);
note = Acircumflexdotbelow;
unicode = 1EAC;
},
{
glyphname = Acircumflexgrave;
lastChange = "2015-07-30 07:35:19 +0000";
layers = (
{
components = (
{
name = A;
}
);
layerId = "9EA4E357-4DFB-45A6-8407-D27A22F681E3";
name = Light;
paths = (
{
closed = 1;
nodes = (
"350 850 LINE",
"441 751 LINE",
"478 781 LINE",
"371 917 LINE",
"329 917 LINE",
"222 781 LINE",
"259 751 LINE"
);
},
{
closed = 1;
nodes = (
"256 876 LINE",
"194 985 LINE",
"139 950 LINE",
"219 851 LINE"
);
}
);
width = 711;
}
);
note = Acircumflexgrave;
unicode = 1EA6;
},
{
glyphname = Acircumflexhookabove;
lastChange = "2015-07-30 07:35:19 +0000";
layers = (
{
components = (
{
name = A;
}
);
layerId = "9EA4E357-4DFB-45A6-8407-D27A22F681E3";
name = Light;
paths = (
{
closed = 1;
nodes = (
"350 850 LINE",
"441 751 LINE",
"478 781 LINE",
"371 917 LINE",
"329 917 LINE",
"222 781 LINE",
"259 751 LINE"
);
},
{
closed = 1;
nodes = (
"514 846 LINE",
"519 889 LINE",
"552 901 OFFCURVE",
"573 923 OFFCURVE",
"573 953 CURVE SMOOTH",
"573 992 OFFCURVE",
"541 1017 OFFCURVE",
"496 1017 CURVE SMOOTH",
"476 1017 OFFCURVE",
"452 1010 OFFCURVE",
"437 1004 CURVE",
"444 973 LINE",
"458 977 OFFCURVE",
"473 980 OFFCURVE",
"488 980 CURVE SMOOTH",
"508 980 OFFCURVE",
"520 971 OFFCURVE",
"520 953 CURVE SMOOTH",
"520 932 OFFCURVE",
"502 917 OFFCURVE",
"470 906 CURVE",
"475 846 LINE"
);
}
);
width = 711;
}
);
note = Acircumflexhookabove;
unicode = 1EA8;
},
{
glyphname = Acircumflextilde;
lastChange = "2015-07-30 07:35:19 +0000";
layers = (
{
components = (
{
name = A;
}
);
layerId = "9EA4E357-4DFB-45A6-8407-D27A22F681E3";
name = Light;
paths = (
{
closed = 1;
nodes = (
"349 850 LINE",
"440 751 LINE",
"477 781 LINE",
"370 917 LINE",
"328 917 LINE",
"221 781 LINE",
"258 751 LINE"
);
},
{
closed = 1;
nodes = (
"419 947 OFFCURVE",
"445 962 OFFCURVE",
"466 982 CURVE",
"444 1017 LINE",
"428 1005 OFFCURVE",
"412 997 OFFCURVE",
"394 997 CURVE SMOOTH",
"367 997 OFFCURVE",
"337 1024 OFFCURVE",
"307 1024 CURVE SMOOTH",
"284 1024 OFFCURVE",
"256 1008 OFFCURVE",
"235 990 CURVE",
"257 954 LINE",
"272 965 OFFCURVE",
"287 975 OFFCURVE",
"307 975 CURVE SMOOTH",
"338 975 OFFCURVE",
"362 947 OFFCURVE",
"395 947 CURVE SMOOTH"
);
}
);
width = 711;
}
);
note = Acircumflextilde;
unicode = 1EAA;
},
{
glyphname = Adieresis;
lastChange = "2015-07-30 07:35:19 +0000";
layers = (
{
components = (
{
name = A;
}
);
layerId = "9EA4E357-4DFB-45A6-8407-D27A22F681E3";
name = Light;
paths = (
{
closed = 1;
nodes = (
"472 762 OFFCURVE",
"494 782 OFFCURVE",
"494 811 CURVE SMOOTH",
"494 839 OFFCURVE",
"472 859 OFFCURVE",
"446 859 CURVE SMOOTH",
"419 859 OFFCURVE",
"397 839 OFFCURVE",
"397 811 CURVE SMOOTH",
"397 782 OFFCURVE",
"419 762 OFFCURVE",
"446 762 CURVE SMOOTH"
);
},
{
closed = 1;
nodes = (
"280 762 OFFCURVE",
"302 782 OFFCURVE",
"302 811 CURVE SMOOTH",
"302 839 OFFCURVE",
"280 859 OFFCURVE",
"254 859 CURVE SMOOTH",
"227 859 OFFCURVE",
"205 839 OFFCURVE",
"205 811 CURVE SMOOTH",
"205 782 OFFCURVE",
"227 762 OFFCURVE",
"254 762 CURVE SMOOTH"
);
}
);
width = 711;
}
);
note = Adieresis;
unicode = 00C4;
},
{
glyphname = Adotbelow;
lastChange = "2015-07-30 07:35:19 +0000";
layers = (
{
components = (
{
name = A;
}
);
layerId = "9EA4E357-4DFB-45A6-8407-D27A22F681E3";
name = Light;
paths = (
{
closed = 1;
nodes = (
"377 -164 OFFCURVE",
"399 -143 OFFCURVE",
"399 -115 CURVE SMOOTH",
"399 -86 OFFCURVE",
"377 -65 OFFCURVE",
"350 -65 CURVE SMOOTH",
"323 -65 OFFCURVE",
"301 -86 OFFCURVE",
"301 -115 CURVE SMOOTH",
"301 -143 OFFCURVE",
"323 -164 OFFCURVE",
"350 -164 CURVE SMOOTH"
);
}
);
width = 711;
}
);
note = Adotbelow;
unicode = 1EA0;
},
{
glyphname = Agrave;
lastChange = "2015-07-30 07:35:18 +0000";
layers = (
{
components = (
{
name = A;
}
);
layerId = "9EA4E357-4DFB-45A6-8407-D27A22F681E3";
name = Light;
paths = (
{
closed = 1;
nodes = (
"397 781 LINE",
"310 927 LINE",
"250 888 LINE",
"352 752 LINE"
);
}
);
width = 711;
}
);
note = Agrave;
unicode = 00C0;
},
{
glyphname = Ahookabove;
lastChange = "2015-07-30 07:35:19 +0000";
layers = (
{
components = (
{
name = A;
}
);
layerId = "9EA4E357-4DFB-45A6-8407-D27A22F681E3";
name = Light;
paths = (
{
closed = 1;
nodes = (
"368 750 LINE",
"374 795 LINE",
"409 807 OFFCURVE",
"430 832 OFFCURVE",
"430 863 CURVE SMOOTH",
"430 903 OFFCURVE",
"396 929 OFFCURVE",
"350 929 CURVE SMOOTH",
"328 929 OFFCURVE",
"303 922 OFFCURVE",
"288 916 CURVE",
"295 883 LINE",
"309 887 OFFCURVE",
"326 891 OFFCURVE",
"342 891 CURVE SMOOTH",
"363 891 OFFCURVE",
"375 881 OFFCURVE",
"375 862 CURVE SMOOTH",
"375 840 OFFCURVE",
"357 825 OFFCURVE",
"323 813 CURVE",
"329 750 LINE"
);
}
);
width = 711;
}
);
note = Ahookabove;
unicode = 1EA2;
},
{
glyphname = Amacron;
lastChange = "2015-07-30 07:35:18 +0000";
layers = (
{
components = (
{
name = A;
}
);
layerId = "9EA4E357-4DFB-45A6-8407-D27A22F681E3";
name = Light;
paths = (
{
closed = 1;
nodes = (
"490 778 LINE",
"490 833 LINE",
"208 833 LINE",
"208 778 LINE"
);
}
);
width = 711;
}
);
note = Amacron;
unicode = 0100;
},
{
glyphname = Aogonek;
lastChange = "2015-07-30 07:35:19 +0000";
layers = (
{
layerId = "9EA4E357-4DFB-45A6-8407-D27A22F681E3";
name = Light;
paths = (
{
closed = 1;
nodes = (
"618 -207 OFFCURVE",
"640 -202 OFFCURVE",
"658 -194 CURVE",
"651 -160 LINE",
"638 -164 OFFCURVE",
"626 -166 OFFCURVE",
"611 -166 CURVE SMOOTH",
"573 -166 OFFCURVE",
"545 -147 OFFCURVE",
"545 -107 CURVE SMOOTH",
"545 -61 OFFCURVE",
"583 -19 OFFCURVE",
"622 0 CURVE",
"693 0 LINE SMOOTH",
"701 0 OFFCURVE",
"704 7 OFFCURVE",
"704 15 CURVE SMOOTH",
"704 28 OFFCURVE",
"695 35 OFFCURVE",
"676 40 CURVE SMOOTH",
"632 50 LINE",
"399 695 LINE",
"307 695 LINE",
"74 49 LINE",
"44 49 LINE SMOOTH",
"22 49 OFFCURVE",
"8 39 OFFCURVE",
"8 21 CURVE SMOOTH",
"8 8 OFFCURVE",
"14 0 OFFCURVE",
"25 0 CURVE SMOOTH",
"213 0 LINE SMOOTH",
"221 0 OFFCURVE",
"224 6 OFFCURVE",
"224 14 CURVE SMOOTH",
"224 26 OFFCURVE",
"217 34 OFFCURVE",
"196 38 CURVE SMOOTH",
"137 50 LINE",
"200 227 LINE",
"487 227 LINE",
"551 49 LINE",
"510 49 LINE SMOOTH",
"487 49 OFFCURVE",
"473 39 OFFCURVE",
"473 21 CURVE SMOOTH",
"473 8 OFFCURVE",
"480 0 OFFCURVE",
"490 0 CURVE SMOOTH",
"564 0 LINE",
"521 -23 OFFCURVE",
"490 -63 OFFCURVE",
"490 -109 CURVE SMOOTH",
"490 -172 OFFCURVE",
"537 -207 OFFCURVE",
"600 -207 CURVE SMOOTH"
);
},
{
closed = 1;
nodes = (
"343 627 LINE",
"467 281 LINE",
"219 281 LINE"
);
}
);
width = 711;
}
);
note = Aogonek;
unicode = 0104;
},
{
glyphname = Aring;
lastChange = "2015-07-30 07:35:19 +0000";
layers = (
{
components = (
{
name = A;
}
);
layerId = "9EA4E357-4DFB-45A6-8407-D27A22F681E3";
name = Light;
paths = (
{
closed = 1;
nodes = (
"408 740 OFFCURVE",
"443 779 OFFCURVE",
"443 827 CURVE SMOOTH",
"443 874 OFFCURVE",
"408 914 OFFCURVE",
"351 914 CURVE SMOOTH",
"294 914 OFFCURVE",
"259 874 OFFCURVE",
"259 827 CURVE SMOOTH",
"259 779 OFFCURVE",
"294 740 OFFCURVE",
"351 740 CURVE SMOOTH"
);
},
{
closed = 1;
nodes = (
"325 780 OFFCURVE",
"305 796 OFFCURVE",
"305 827 CURVE SMOOTH",
"305 857 OFFCURVE",
"325 873 OFFCURVE",
"351 873 CURVE SMOOTH",
"376 873 OFFCURVE",
"396 857 OFFCURVE",
"396 827 CURVE SMOOTH",
"396 796 OFFCURVE",
"376 780 OFFCURVE",
"351 780 CURVE SMOOTH"
);
}
);
width = 711;
}
);
note = Aring;
unicode = 00C5;
},
{
glyphname = Aringacute;
lastChange = "2015-07-30 07:35:19 +0000";
layers = (
{
components = (
{
name = A;
}
);
layerId = "9EA4E357-4DFB-45A6-8407-D27A22F681E3";
name = Light;
paths = (
{
closed = 1;
nodes = (
"405 738 OFFCURVE",
"440 777 OFFCURVE",
"440 825 CURVE SMOOTH",
"440 872 OFFCURVE",
"405 912 OFFCURVE",
"348 912 CURVE SMOOTH",
"291 912 OFFCURVE",
"256 872 OFFCURVE",
"256 825 CURVE SMOOTH",
"256 777 OFFCURVE",
"291 738 OFFCURVE",
"348 738 CURVE SMOOTH"
);
},
{
closed = 1;
nodes = (
"322 778 OFFCURVE",
"302 794 OFFCURVE",
"302 825 CURVE SMOOTH",
"302 855 OFFCURVE",
"322 871 OFFCURVE",
"348 871 CURVE SMOOTH",
"373 871 OFFCURVE",
"393 855 OFFCURVE",
"393 825 CURVE SMOOTH",
"393 794 OFFCURVE",
"373 778 OFFCURVE",
"348 778 CURVE SMOOTH"
);
},
{
closed = 1;
nodes = (
"478 1073 LINE",
"418 1111 LINE",
"331 966 LINE",
"376 937 LINE"
);
}
);
width = 711;
}
);
note = Aringacute;
unicode = 01FA;
},
{
glyphname = Atilde;
lastChange = "2015-07-30 07:35:18 +0000";
layers = (
{
components = (
{
name = A;
}
);
layerId = "9EA4E357-4DFB-45A6-8407-D27A22F681E3";
name = Light;
paths = (
{
closed = 1;
nodes = (
"441 762 OFFCURVE",
"475 781 OFFCURVE",
"502 807 CURVE",
"474 845 LINE",
"453 829 OFFCURVE",
"432 819 OFFCURVE",
"409 819 CURVE SMOOTH",
"374 819 OFFCURVE",
"335 854 OFFCURVE",
"296 854 CURVE SMOOTH",
"265 854 OFFCURVE",
"228 833 OFFCURVE",
"201 808 CURVE",
"229 771 LINE",
"250 786 OFFCURVE",
"270 797 OFFCURVE",
"295 797 CURVE SMOOTH",
"335 797 OFFCURVE",
"367 762 OFFCURVE",
"410 762 CURVE SMOOTH"
);
}
);
width = 711;
}
);
note = Atilde;
unicode = 00C3;
},
{
glyphname = AE;
lastChange = "2015-07-30 07:35:19 +0000";
layers = (
{
layerId = "9EA4E357-4DFB-45A6-8407-D27A22F681E3";
name = Light;
paths = (
{
closed = 1;
nodes = (
"227 0 LINE SMOOTH",
"235 0 OFFCURVE",
"238 6 OFFCURVE",
"238 14 CURVE SMOOTH",
"238 26 OFFCURVE",
"230 34 OFFCURVE",
"209 38 CURVE SMOOTH",
"150 50 LINE",
"278 227 LINE",
"569 227 LINE",
"569 54 LINE",
"536 48 LINE SMOOTH",
"511 43 OFFCURVE",
"499 34 OFFCURVE",
"499 17 CURVE SMOOTH",
"499 6 OFFCURVE",
"505 0 OFFCURVE",
"512 0 CURVE SMOOTH",
"1051 0 LINE",
"1051 130 LINE SMOOTH",
"1051 139 OFFCURVE",
"1047 145 OFFCURVE",
"1036 145 CURVE SMOOTH",
"1023 145 OFFCURVE",
"1013 133 OFFCURVE",
"1008 104 CURVE SMOOTH",
"999 53 LINE",
"649 53 LINE",
"649 329 LINE",
"932 329 LINE",
"943 284 LINE SMOOTH",
"948 265 OFFCURVE",
"955 256 OFFCURVE",
"965 256 CURVE SMOOTH",
"975 256 OFFCURVE",
"979 262 OFFCURVE",
"979 270 CURVE SMOOTH",
"979 442 LINE SMOOTH",
"979 449 OFFCURVE",
"975 455 OFFCURVE",
"965 455 CURVE SMOOTH",
"955 455 OFFCURVE",
"948 448 OFFCURVE",
"943 427 CURVE SMOOTH",
"932 382 LINE",
"649 382 LINE",
"649 642 LINE",
"986 642 LINE",
"995 595 LINE SMOOTH",
"1001 565 OFFCURVE",
"1010 554 OFFCURVE",
"1023 554 CURVE SMOOTH",
"1034 554 OFFCURVE",
"1038 560 OFFCURVE",
"1038 568 CURVE SMOOTH",
"1038 695 LINE",
"440 695 LINE SMOOTH",
"432 695 OFFCURVE",
"426 689 OFFCURVE",
"426 678 CURVE SMOOTH",
"426 661 OFFCURVE",
"437 652 OFFCURVE",
"464 647 CURVE SMOOTH",
"496 641 LINE",
"76 49 LINE",
"46 49 LINE SMOOTH",
"24 49 OFFCURVE",
"10 39 OFFCURVE",
"10 21 CURVE SMOOTH",
"10 8 OFFCURVE",
"16 0 OFFCURVE",
"27 0 CURVE SMOOTH"
);
},
{
closed = 1;
nodes = (
"569 640 LINE",
"569 281 LINE",
"313 281 LINE"
);
}
);
width = 1121;
}
);
note = AE;
unicode = 00C6;
},
{
glyphname = AEacute;
lastChange = "2015-07-30 07:35:19 +0000";
layers = (
{
layerId = "9EA4E357-4DFB-45A6-8407-D27A22F681E3";
name = Light;
paths = (
{
closed = 1;
nodes = (
"227 0 LINE SMOOTH",
"235 0 OFFCURVE",
"238 6 OFFCURVE",
"238 14 CURVE SMOOTH",
"238 26 OFFCURVE",
"231 34 OFFCURVE",
"209 38 CURVE SMOOTH",
"150 50 LINE",
"278 227 LINE",
"569 227 LINE",
"569 54 LINE",
"536 48 LINE SMOOTH",
"511 43 OFFCURVE",
"499 34 OFFCURVE",
"499 17 CURVE SMOOTH",
"499 6 OFFCURVE",
"505 0 OFFCURVE",
"512 0 CURVE SMOOTH",
"1051 0 LINE",
"1051 130 LINE SMOOTH",
"1051 139 OFFCURVE",
"1047 145 OFFCURVE",
"1036 145 CURVE SMOOTH",
"1023 145 OFFCURVE",
"1013 133 OFFCURVE",
"1008 104 CURVE SMOOTH",
"999 53 LINE",
"649 53 LINE",
"649 329 LINE",
"932 329 LINE",
"943 284 LINE SMOOTH",
"948 263 OFFCURVE",
"955 256 OFFCURVE",
"965 256 CURVE SMOOTH",
"975 256 OFFCURVE",
"979 262 OFFCURVE",
"979 270 CURVE SMOOTH",
"979 442 LINE SMOOTH",
"979 449 OFFCURVE",
"975 455 OFFCURVE",
"965 455 CURVE SMOOTH",
"955 455 OFFCURVE",
"948 447 OFFCURVE",
"943 427 CURVE SMOOTH",
"932 382 LINE",
"649 382 LINE",
"649 642 LINE",
"986 642 LINE",
"995 595 LINE SMOOTH",
"1001 565 OFFCURVE",
"1010 554 OFFCURVE",
"1023 554 CURVE SMOOTH",
"1034 554 OFFCURVE",
"1038 560 OFFCURVE",
"1038 568 CURVE SMOOTH",
"1038 695 LINE",
"440 695 LINE SMOOTH",
"432 695 OFFCURVE",
"426 689 OFFCURVE",
"426 678 CURVE SMOOTH",
"426 661 OFFCURVE",
"437 652 OFFCURVE",
"464 647 CURVE SMOOTH",
"496 641 LINE",
"76 49 LINE",
"46 49 LINE SMOOTH",
"24 49 OFFCURVE",
"10 39 OFFCURVE",
"10 21 CURVE SMOOTH",
"10 8 OFFCURVE",
"16 0 OFFCURVE",
"27 0 CURVE SMOOTH"
);
},
{
closed = 1;
nodes = (
"569 640 LINE",
"569 281 LINE",
"313 281 LINE"
);
},
{
closed = 1;
nodes = (
"845 887 LINE",
"785 926 LINE",
"698 780 LINE",
"743 751 LINE"
);
}
);
width = 1121;
}
);
note = AEacute;
unicode = 01FC;
},
{
glyphname = B;
lastChange = "2015-07-30 07:35:19 +0000";
layers = (
{
layerId = "9EA4E357-4DFB-45A6-8407-D27A22F681E3";
name = Light;
paths = (
{
closed = 1;
nodes = (
"401 0 LINE SMOOTH",
"537 0 OFFCURVE",
"627 65 OFFCURVE",
"627 191 CURVE SMOOTH",
"627 282 OFFCURVE",
"571 341 OFFCURVE",
"485 365 CURVE",
"485 369 LINE",
"547 393 OFFCURVE",
"586 442 OFFCURVE",
"586 514 CURVE SMOOTH",
"586 634 OFFCURVE",
"499 695 OFFCURVE",
"364 695 CURVE SMOOTH",
"72 695 LINE SMOOTH",
"64 695 OFFCURVE",
"58 689 OFFCURVE",
"58 678 CURVE SMOOTH",
"58 661 OFFCURVE",
"71 652 OFFCURVE",
"96 647 CURVE SMOOTH",
"129 641 LINE",
"129 54 LINE",
"96 48 LINE SMOOTH",
"70 43 OFFCURVE",
"58 34 OFFCURVE",
"58 17 CURVE SMOOTH",
"58 6 OFFCURVE",
"64 0 OFFCURVE",
"72 0 CURVE SMOOTH"
);
},
{
closed = 1;
nodes = (
"208 334 LINE",
"397 334 LINE SMOOTH",
"493 334 OFFCURVE",
"546 277 OFFCURVE",
"546 193 CURVE SMOOTH",
"546 107 OFFCURVE",
"495 53 OFFCURVE",
"389 53 CURVE SMOOTH",
"208 53 LINE"
);
},
{
closed = 1;
nodes = (
"208 642 LINE",
"359 642 LINE SMOOTH",
"453 642 OFFCURVE",
"505 594 OFFCURVE",
"505 513 CURVE SMOOTH",
"505 433 OFFCURVE",
"451 386 OFFCURVE",
"377 386 CURVE SMOOTH",
"208 386 LINE"
);
}
);
width = 685;
}
);
note = B;
unicode = 0042;
},
{
glyphname = C;
lastChange = "2015-07-30 07:35:18 +0000";
layers = (
{
layerId = "9EA4E357-4DFB-45A6-8407-D27A22F681E3";
name = Light;
paths = (
{
closed = 1;
nodes = (
"467 -12 OFFCURVE",
"533 10 OFFCURVE",
"572 34 CURVE SMOOTH",
"587 43 OFFCURVE",
"601 55 OFFCURVE",
"601 71 CURVE SMOOTH",
"601 85 OFFCURVE",
"591 96 OFFCURVE",
"579 96 CURVE SMOOTH",
"571 96 OFFCURVE",
"567 92 OFFCURVE",
"555 84 CURVE SMOOTH",
"510 54 OFFCURVE",
"453 43 OFFCURVE",
"392 43 CURVE SMOOTH",
"237 43 OFFCURVE",
"128 152 OFFCURVE",
"128 348 CURVE SMOOTH",
"128 543 OFFCURVE",
"229 652 OFFCURVE",
"383 652 CURVE SMOOTH",
"445 652 OFFCURVE",
"502 636 OFFCURVE",
"537 610 CURVE",
"551 541 LINE SMOOTH",
"556 516 OFFCURVE",
"564 505 OFFCURVE",
"580 505 CURVE SMOOTH",
"592 505 OFFCURVE",
"595 512 OFFCURVE",
"595 520 CURVE SMOOTH",
"595 634 LINE",
"544 677 OFFCURVE",
"463 707 OFFCURVE",
"372 707 CURVE SMOOTH",
"190 707 OFFCURVE",
"47 585 OFFCURVE",
"47 348 CURVE SMOOTH",
"47 110 OFFCURVE",
"192 -12 OFFCURVE",
"384 -12 CURVE SMOOTH"
);
}
);
width = 654;
}
);
note = C;
unicode = 0043;
},
{
glyphname = Cacute;
lastChange = "2015-07-30 07:35:18 +0000";
layers = (
{
components = (
{
name = C;
}
);
layerId = "9EA4E357-4DFB-45A6-8407-D27A22F681E3";
name = Light;
paths = (
{
closed = 1;
nodes = (
"460 888 LINE",
"400 927 LINE",
"313 781 LINE",
"358 752 LINE"
);
}
);
width = 654;
}
);
note = Cacute;
unicode = 0106;
},
{
glyphname = Ccaron;
lastChange = "2015-07-30 07:35:18 +0000";
layers = (
{
components = (
{
name = C;
}
);
layerId = "9EA4E357-4DFB-45A6-8407-D27A22F681E3";
name = Light;
paths = (
{
closed = 1;
nodes = (
"380 751 LINE",
"487 887 LINE",
"450 917 LINE",
"359 818 LINE",
"268 917 LINE",
"231 887 LINE",
"338 751 LINE"
);
}
);
width = 654;
}
);
note = Ccaron;
unicode = 010C;
},
{
glyphname = Ccedilla;
lastChange = "2015-07-30 07:35:18 +0000";
layers = (
{
layerId = "9EA4E357-4DFB-45A6-8407-D27A22F681E3";
name = Light;
paths = (
{
closed = 1;
nodes = (
"373 -202 OFFCURVE",
"428 -166 OFFCURVE",
"428 -119 CURVE SMOOTH",
"428 -82 OFFCURVE",
"405 -63 OFFCURVE",
"379 -52 CURVE",
"398 -12 LINE",
"474 -10 OFFCURVE",
"535 11 OFFCURVE",
"572 34 CURVE SMOOTH",
"587 43 OFFCURVE",
"601 55 OFFCURVE",
"601 71 CURVE SMOOTH",
"601 85 OFFCURVE",
"591 96 OFFCURVE",
"579 96 CURVE SMOOTH",
"571 96 OFFCURVE",
"567 92 OFFCURVE",
"555 84 CURVE SMOOTH",
"510 54 OFFCURVE",
"453 43 OFFCURVE",
"392 43 CURVE SMOOTH",
"237 43 OFFCURVE",
"128 152 OFFCURVE",
"128 348 CURVE SMOOTH",
"128 543 OFFCURVE",
"229 652 OFFCURVE",
"383 652 CURVE SMOOTH",
"445 652 OFFCURVE",
"502 636 OFFCURVE",
"537 610 CURVE",
"551 541 LINE SMOOTH",
"556 516 OFFCURVE",
"564 505 OFFCURVE",
"580 505 CURVE SMOOTH",
"592 505 OFFCURVE",
"595 512 OFFCURVE",
"595 520 CURVE SMOOTH",
"595 634 LINE",
"544 677 OFFCURVE",
"463 707 OFFCURVE",
"372 707 CURVE SMOOTH",
"190 707 OFFCURVE",
"47 585 OFFCURVE",
"47 348 CURVE SMOOTH",
"47 126 OFFCURVE",
"173 5 OFFCURVE",
"346 -10 CURVE",
"326 -64 LINE",
"359 -75 OFFCURVE",
"371 -92 OFFCURVE",
"371 -118 CURVE SMOOTH",
"371 -145 OFFCURVE",
"349 -171 OFFCURVE",
"303 -186 CURVE",
"315 -215 LINE"
);
}
);
width = 654;
}
);
note = Ccedilla;
unicode = 00C7;
},
{
glyphname = Ccircumflex;
lastChange = "2015-07-30 07:35:18 +0000";
layers = (
{
components = (
{
name = C;
}
);
layerId = "9EA4E357-4DFB-45A6-8407-D27A22F681E3";
name = Light;
paths = (
{
closed = 1;
nodes = (
"360 850 LINE",
"451 751 LINE",
"488 781 LINE",
"381 917 LINE",
"339 917 LINE",
"232 781 LINE",
"269 751 LINE"
);
}
);
width = 654;
}
);
note = Ccircumflex;
unicode = 0108;
},
{
glyphname = Cdotaccent;
lastChange = "2015-07-30 07:35:18 +0000";
layers = (
{
components = (
{
name = C;
}
);
layerId = "9EA4E357-4DFB-45A6-8407-D27A22F681E3";
name = Light;
paths = (
{
closed = 1;
nodes = (
"387 768 OFFCURVE",
"409 789 OFFCURVE",
"409 817 CURVE SMOOTH",
"409 845 OFFCURVE",
"387 866 OFFCURVE",
"360 866 CURVE SMOOTH",
"333 866 OFFCURVE",
"311 845 OFFCURVE",
"311 817 CURVE SMOOTH",
"311 789 OFFCURVE",
"333 768 OFFCURVE",
"360 768 CURVE SMOOTH"
);
}
);
width = 654;
}
);
note = Cdotaccent;
unicode = 010A;
},
{
glyphname = D;
lastChange = "2015-07-30 07:35:19 +0000";
layers = (
{
layerId = "9EA4E357-4DFB-45A6-8407-D27A22F681E3";
name = Light;
paths = (
{
closed = 1;
nodes = (
"358 0 LINE SMOOTH",
"545 0 OFFCURVE",
"689 108 OFFCURVE",
"689 347 CURVE SMOOTH",
"689 585 OFFCURVE",
"545 695 OFFCURVE",
"358 695 CURVE SMOOTH",
"72 695 LINE SMOOTH",
"64 695 OFFCURVE",
"58 689 OFFCURVE",
"58 678 CURVE SMOOTH",
"58 661 OFFCURVE",
"70 652 OFFCURVE",
"96 647 CURVE SMOOTH",
"129 641 LINE",
"129 54 LINE",
"96 48 LINE SMOOTH",
"70 43 OFFCURVE",
"58 34 OFFCURVE",
"58 17 CURVE SMOOTH",
"58 6 OFFCURVE",
"64 0 OFFCURVE",
"72 0 CURVE SMOOTH"
);
},
{
closed = 1;
nodes = (
"208 641 LINE",
"358 641 LINE SMOOTH",
"513 641 OFFCURVE",
"607 533 OFFCURVE",
"607 347 CURVE SMOOTH",
"607 160 OFFCURVE",
"513 54 OFFCURVE",
"358 54 CURVE SMOOTH",
"208 54 LINE"
);
}
);
width = 737;
}
);
note = D;
unicode = 0044;
},
{
glyphname = Eth;
lastChange = "2015-07-30 07:35:19 +0000";
layers = (
{
layerId = "9EA4E357-4DFB-45A6-8407-D27A22F681E3";
name = Light;
paths = (
{
closed = 1;
nodes = (
"360 0 LINE SMOOTH",
"547 0 OFFCURVE",
"691 108 OFFCURVE",
"691 347 CURVE SMOOTH",
"691 585 OFFCURVE",
"547 695 OFFCURVE",
"360 695 CURVE SMOOTH",
"74 695 LINE SMOOTH",
"66 695 OFFCURVE",
"60 689 OFFCURVE",
"60 678 CURVE SMOOTH",
"60 661 OFFCURVE",
"74 651 OFFCURVE",
"98 647 CURVE SMOOTH",
"131 641 LINE",
"131 382 LINE",
"64 382 LINE",
"64 326 LINE",
"131 326 LINE",
"131 54 LINE",
"98 48 LINE SMOOTH",
"72 43 OFFCURVE",
"60 34 OFFCURVE",
"60 17 CURVE SMOOTH",
"60 6 OFFCURVE",
"66 0 OFFCURVE",
"74 0 CURVE SMOOTH"
);
},
{
closed = 1;
nodes = (
"210 326 LINE",
"401 326 LINE",
"401 382 LINE",
"210 382 LINE",
"210 641 LINE",
"360 641 LINE SMOOTH",
"515 641 OFFCURVE",
"609 533 OFFCURVE",
"609 347 CURVE SMOOTH",
"609 160 OFFCURVE",
"515 54 OFFCURVE",
"360 54 CURVE SMOOTH",
"210 54 LINE"
);
}
);
width = 739;
}
);
note = Eth;
unicode = 00D0;
},
{
glyphname = Dcaron;
lastChange = "2015-07-30 07:35:18 +0000";
layers = (
{
components = (
{
name = D;
}
);
layerId = "9EA4E357-4DFB-45A6-8407-D27A22F681E3";
name = Light;
paths = (
{
closed = 1;
nodes = (
"368 751 LINE",
"475 887 LINE",
"438 917 LINE",
"347 818 LINE",
"256 917 LINE",
"219 887 LINE",
"326 751 LINE"
);
}
);
width = 737;
}
);
note = Dcaron;
unicode = 010E;
},
{
glyphname = Dcroat;
lastChange = "2015-07-30 07:35:19 +0000";
layers = (
{
layerId = "9EA4E357-4DFB-45A6-8407-D27A22F681E3";
name = Light;
paths = (
{
closed = 1;
nodes = (
"360 0 LINE SMOOTH",
"547 0 OFFCURVE",
"691 108 OFFCURVE",
"691 347 CURVE SMOOTH",
"691 585 OFFCURVE",
"547 695 OFFCURVE",
"360 695 CURVE SMOOTH",
"74 695 LINE SMOOTH",
"66 695 OFFCURVE",
"60 689 OFFCURVE",
"60 678 CURVE SMOOTH",
"60 661 OFFCURVE",
"72 652 OFFCURVE",
"98 647 CURVE SMOOTH",
"131 641 LINE",
"131 382 LINE",
"64 382 LINE",
"64 326 LINE",
"131 326 LINE",
"131 54 LINE",
"98 48 LINE SMOOTH",
"73 43 OFFCURVE",
"60 34 OFFCURVE",
"60 17 CURVE SMOOTH",
"60 6 OFFCURVE",
"66 0 OFFCURVE",
"74 0 CURVE SMOOTH"
);
},
{
closed = 1;
nodes = (
"210 326 LINE",
"401 326 LINE",
"401 382 LINE",
"210 382 LINE",
"210 641 LINE",
"360 641 LINE SMOOTH",
"515 641 OFFCURVE",
"609 533 OFFCURVE",
"609 347 CURVE SMOOTH",
"609 160 OFFCURVE",
"515 54 OFFCURVE",
"360 54 CURVE SMOOTH",
"210 54 LINE"
);
}
);
width = 739;
}
);
note = Dcroat;
unicode = 0110;
},
{
glyphname = Ddotbelow;
lastChange = "2015-07-30 07:35:19 +0000";
layers = (
{
components = (
{
name = D;
}
);
layerId = "9EA4E357-4DFB-45A6-8407-D27A22F681E3";
name = Light;
paths = (
{
closed = 1;
nodes = (
"395 -164 OFFCURVE",
"417 -143 OFFCURVE",
"417 -115 CURVE SMOOTH",
"417 -86 OFFCURVE",
"395 -65 OFFCURVE",
"368 -65 CURVE SMOOTH",
"341 -65 OFFCURVE",
"319 -86 OFFCURVE",
"319 -115 CURVE SMOOTH",
"319 -143 OFFCURVE",
"341 -164 OFFCURVE",
"368 -164 CURVE SMOOTH"
);
}
);
width = 737;
}
);
note = Ddotbelow;
unicode = 1E0C;
},
{
glyphname = Dlinebelow;
lastChange = "2015-07-30 07:35:19 +0000";
layers = (
{
components = (
{
name = D;
}
);
layerId = "9EA4E357-4DFB-45A6-8407-D27A22F681E3";
name = Light;
paths = (
{
closed = 1;
nodes = (
"536 -141 LINE",
"536 -88 LINE",
"158 -88 LINE",
"158 -141 LINE"
);
}
);
width = 737;
}
);
note = Dlinebelow;
unicode = 1E0E;
},
{
glyphname = E;
lastChange = "2015-07-30 07:35:18 +0000";
layers = (
{
layerId = "9EA4E357-4DFB-45A6-8407-D27A22F681E3";
name = Light;
paths = (
{
closed = 1;
nodes = (
"614 0 LINE",
"614 130 LINE SMOOTH",
"614 139 OFFCURVE",
"610 145 OFFCURVE",
"599 145 CURVE SMOOTH",
"586 145 OFFCURVE",
"576 133 OFFCURVE",
"571 104 CURVE SMOOTH",
"562 53 LINE",
"209 53 LINE",
"209 329 LINE",
"495 329 LINE",
"506 284 LINE SMOOTH",
"511 264 OFFCURVE",
"519 256 OFFCURVE",
"529 256 CURVE SMOOTH",
"539 256 OFFCURVE",
"542 262 OFFCURVE",
"542 270 CURVE SMOOTH",
"542 442 LINE SMOOTH",
"542 449 OFFCURVE",
"539 455 OFFCURVE",
"529 455 CURVE SMOOTH",
"519 455 OFFCURVE",
"511 448 OFFCURVE",
"506 427 CURVE SMOOTH",
"495 382 LINE",
"209 382 LINE",
"209 642 LINE",
"549 642 LINE",
"558 595 LINE SMOOTH",
"564 565 OFFCURVE",
"573 554 OFFCURVE",
"586 554 CURVE SMOOTH",
"597 554 OFFCURVE",
"601 560 OFFCURVE",
"601 568 CURVE SMOOTH",
"601 695 LINE",
"72 695 LINE SMOOTH",
"64 695 OFFCURVE",
"58 689 OFFCURVE",
"58 678 CURVE SMOOTH",
"58 661 OFFCURVE",
"69 652 OFFCURVE",
"96 647 CURVE SMOOTH",
"129 641 LINE",
"129 54 LINE",
"96 48 LINE SMOOTH",
"73 44 OFFCURVE",
"58 34 OFFCURVE",
"58 17 CURVE SMOOTH",
"58 6 OFFCURVE",
"64 0 OFFCURVE",
"72 0 CURVE SMOOTH"
);
}
);
width = 684;
}
);
note = E;
unicode = 0045;
},
{
glyphname = Eacute;
lastChange = "2015-07-30 07:35:18 +0000";
layers = (
{
components = (
{
name = E;
}
);
layerId = "9EA4E357-4DFB-45A6-8407-D27A22F681E3";
name = Light;
paths = (
{
closed = 1;
nodes = (
"432 888 LINE",
"372 927 LINE",
"285 781 LINE",
"330 752 LINE"
);
}
);
width = 684;
}
);
note = Eacute;
unicode = 00C9;
},
{
glyphname = Ebreve;
lastChange = "2015-07-30 07:35:18 +0000";
layers = (
{
components = (
{
name = E;
}
);
layerId = "9EA4E357-4DFB-45A6-8407-D27A22F681E3";
name = Light;
paths = (
{
closed = 1;
nodes = (
"408 747 OFFCURVE",
"467 780 OFFCURVE",
"491 867 CURVE",
"445 883 LINE",
"431 835 OFFCURVE",
"396 801 OFFCURVE",
"345 801 CURVE SMOOTH",
"294 801 OFFCURVE",
"259 835 OFFCURVE",
"245 883 CURVE",
"199 867 LINE",
"223 780 OFFCURVE",
"282 747 OFFCURVE",
"345 747 CURVE SMOOTH"
);
}
);
width = 684;
}
);
note = Ebreve;
unicode = 0114;
},
{
glyphname = Ecaron;
lastChange = "2015-07-30 07:35:18 +0000";
layers = (
{
components = (
{
name = E;
}
);
layerId = "9EA4E357-4DFB-45A6-8407-D27A22F681E3";
name = Light;
paths = (
{
closed = 1;
nodes = (
"367 751 LINE",
"474 887 LINE",
"437 917 LINE",
"346 818 LINE",
"255 917 LINE",
"218 887 LINE",
"325 751 LINE"
);
}
);
width = 684;
}
);
note = Ecaron;
unicode = 011A;
},
{
glyphname = Ecircumflex;
lastChange = "2015-07-30 07:35:18 +0000";
layers = (
{
components = (
{
name = E;
}
);
layerId = "9EA4E357-4DFB-45A6-8407-D27A22F681E3";
name = Light;
paths = (
{
closed = 1;
nodes = (
"346 850 LINE",
"437 751 LINE",
"474 781 LINE",
"367 917 LINE",
"325 917 LINE",
"218 781 LINE",
"255 751 LINE"
);
}
);
width = 684;
}
);
note = Ecircumflex;
unicode = 00CA;
},
{
glyphname = Ecircumflexacute;
lastChange = "2015-07-30 07:35:19 +0000";
layers = (
{
components = (
{
name = E;
}
);
layerId = "9EA4E357-4DFB-45A6-8407-D27A22F681E3";
name = Light;
paths = (
{
closed = 1;
nodes = (
"350 850 LINE",
"441 751 LINE",
"478 781 LINE",
"371 917 LINE",
"329 917 LINE",
"222 781 LINE",
"259 751 LINE"
);
},
{
closed = 1;
nodes = (
"561 950 LINE",
"507 985 LINE",
"444 876 LINE",
"481 851 LINE"
);
}
);
width = 684;
}
);
note = Ecircumflexacute;
unicode = 1EBE;
},
{
glyphname = Ecircumflexdotbelow;
lastChange = "2015-07-30 07:35:19 +0000";
layers = (
{
components = (
{
name = E;
}
);
layerId = "9EA4E357-4DFB-45A6-8407-D27A22F681E3";
name = Light;
paths = (
{
closed = 1;
nodes = (
"346 850 LINE",
"437 751 LINE",
"474 781 LINE",
"367 917 LINE",
"325 917 LINE",
"218 781 LINE",
"255 751 LINE"
);
},
{
closed = 1;
nodes = (
"382 -164 OFFCURVE",
"404 -143 OFFCURVE",
"404 -115 CURVE SMOOTH",
"404 -86 OFFCURVE",
"382 -65 OFFCURVE",
"355 -65 CURVE SMOOTH",
"328 -65 OFFCURVE",
"306 -86 OFFCURVE",
"306 -115 CURVE SMOOTH",
"306 -143 OFFCURVE",
"328 -164 OFFCURVE",
"355 -164 CURVE SMOOTH"
);
}
);
width = 684;
}
);
note = Ecircumflexdotbelow;
unicode = 1EC6;
},
{
glyphname = Ecircumflexgrave;
lastChange = "2015-07-30 07:35:19 +0000";
layers = (
{
components = (
{
name = E;
}
);
layerId = "9EA4E357-4DFB-45A6-8407-D27A22F681E3";
name = Light;
paths = (
{
closed = 1;
nodes = (
"351 850 LINE",
"442 751 LINE",
"479 781 LINE",
"372 917 LINE",
"330 917 LINE",
"223 781 LINE",
"260 751 LINE"
);
},
{
closed = 1;
nodes = (
"257 876 LINE",
"195 985 LINE",
"140 950 LINE",
"220 851 LINE"
);
}
);
width = 684;
}
);
note = Ecircumflexgrave;
unicode = 1EC0;
},
{
glyphname = Ecircumflexhookabove;
lastChange = "2015-07-30 07:35:19 +0000";
layers = (
{
components = (
{
name = E;
}
);
layerId = "9EA4E357-4DFB-45A6-8407-D27A22F681E3";
name = Light;
paths = (
{
closed = 1;
nodes = (
"342 850 LINE",
"433 751 LINE",
"470 781 LINE",
"363 917 LINE",
"321 917 LINE",
"214 781 LINE",
"251 751 LINE"
);
},
{
closed = 1;
nodes = (
"506 846 LINE",
"511 889 LINE",
"544 901 OFFCURVE",
"565 923 OFFCURVE",
"565 953 CURVE SMOOTH",
"565 992 OFFCURVE",
"533 1017 OFFCURVE",
"488 1017 CURVE SMOOTH",
"468 1017 OFFCURVE",
"444 1010 OFFCURVE",
"429 1004 CURVE",
"436 973 LINE",
"450 977 OFFCURVE",
"465 980 OFFCURVE",
"480 980 CURVE SMOOTH",
"500 980 OFFCURVE",
"512 971 OFFCURVE",
"512 953 CURVE SMOOTH",
"512 932 OFFCURVE",
"494 917 OFFCURVE",
"462 906 CURVE",
"467 846 LINE"
);
}
);
width = 684;
}
);
note = Ecircumflexhookabove;
unicode = 1EC2;
},
{
glyphname = Ecircumflextilde;
lastChange = "2015-07-30 07:35:19 +0000";
layers = (
{
components = (
{
name = E;
}
);
layerId = "9EA4E357-4DFB-45A6-8407-D27A22F681E3";
name = Light;
paths = (
{
closed = 1;
nodes = (
"350 850 LINE",
"441 751 LINE",
"478 781 LINE",
"371 917 LINE",
"329 917 LINE",
"222 781 LINE",
"259 751 LINE"
);
},
{
closed = 1;
nodes = (
"420 947 OFFCURVE",
"446 962 OFFCURVE",
"467 982 CURVE",
"445 1017 LINE",
"429 1005 OFFCURVE",
"413 997 OFFCURVE",
"395 997 CURVE SMOOTH",
"368 997 OFFCURVE",
"338 1024 OFFCURVE",
"308 1024 CURVE SMOOTH",
"285 1024 OFFCURVE",
"257 1008 OFFCURVE",
"236 990 CURVE",
"258 954 LINE",
"273 965 OFFCURVE",
"288 975 OFFCURVE",
"308 975 CURVE SMOOTH",
"339 975 OFFCURVE",
"363 947 OFFCURVE",
"396 947 CURVE SMOOTH"
);
}
);
width = 684;
}
);
note = Ecircumflextilde;
unicode = 1EC4;
},
{
glyphname = Edieresis;
lastChange = "2015-07-30 07:35:19 +0000";
layers = (
{
components = (
{
name = E;
}
);
layerId = "9EA4E357-4DFB-45A6-8407-D27A22F681E3";
name = Light;
paths = (
{
closed = 1;
nodes = (
"477 762 OFFCURVE",
"499 782 OFFCURVE",
"499 811 CURVE SMOOTH",
"499 839 OFFCURVE",
"477 859 OFFCURVE",
"451 859 CURVE SMOOTH",
"424 859 OFFCURVE",
"402 839 OFFCURVE",
"402 811 CURVE SMOOTH",
"402 782 OFFCURVE",
"424 762 OFFCURVE",
"451 762 CURVE SMOOTH"
);
},
{
closed = 1;
nodes = (
"285 762 OFFCURVE",
"307 782 OFFCURVE",
"307 811 CURVE SMOOTH",
"307 839 OFFCURVE",
"285 859 OFFCURVE",
"259 859 CURVE SMOOTH",
"232 859 OFFCURVE",
"210 839 OFFCURVE",
"210 811 CURVE SMOOTH",
"210 782 OFFCURVE",
"232 762 OFFCURVE",
"259 762 CURVE SMOOTH"
);
}
);
width = 684;
}
);
note = Edieresis;
unicode = 00CB;
},
{
glyphname = Edotaccent;
lastChange = "2015-07-30 07:35:18 +0000";
layers = (
{
components = (
{
name = E;
}
);
layerId = "9EA4E357-4DFB-45A6-8407-D27A22F681E3";
name = Light;
paths = (
{
closed = 1;
nodes = (
"379 768 OFFCURVE",
"401 789 OFFCURVE",
"401 817 CURVE SMOOTH",
"401 845 OFFCURVE",
"379 866 OFFCURVE",
"352 866 CURVE SMOOTH",
"325 866 OFFCURVE",
"303 845 OFFCURVE",
"303 817 CURVE SMOOTH",
"303 789 OFFCURVE",
"325 768 OFFCURVE",
"352 768 CURVE SMOOTH"
);
}
);
width = 684;
}
);
note = Edotaccent;
unicode = 0116;
},
{
glyphname = Edotbelow;
lastChange = "2015-07-30 07:35:19 +0000";
layers = (
{
components = (
{
name = E;
}
);
layerId = "9EA4E357-4DFB-45A6-8407-D27A22F681E3";
name = Light;
paths = (
{
closed = 1;
nodes = (
"386 -164 OFFCURVE",
"408 -143 OFFCURVE",
"408 -115 CURVE SMOOTH",
"408 -86 OFFCURVE",
"386 -65 OFFCURVE",
"359 -65 CURVE SMOOTH",
"332 -65 OFFCURVE",
"310 -86 OFFCURVE",
"310 -115 CURVE SMOOTH",
"310 -143 OFFCURVE",
"332 -164 OFFCURVE",
"359 -164 CURVE SMOOTH"
);
}
);
width = 684;
}
);
note = Edotbelow;
unicode = 1EB8;
},
{
glyphname = Egrave;
lastChange = "2015-07-30 07:35:18 +0000";
layers = (
{
components = (
{
name = E;
}
);
layerId = "9EA4E357-4DFB-45A6-8407-D27A22F681E3";
name = Light;
paths = (
{
closed = 1;
nodes = (
"404 781 LINE",
"317 927 LINE",
"257 888 LINE",
"359 752 LINE"
);
}
);
width = 684;
}
);
note = Egrave;
unicode = 00C8;
},
{
glyphname = Ehookabove;
lastChange = "2015-07-30 07:35:19 +0000";
layers = (
{
components = (
{
name = E;
}
);
layerId = "9EA4E357-4DFB-45A6-8407-D27A22F681E3";
name = Light;
paths = (
{
closed = 1;
nodes = (
"366 750 LINE",
"372 795 LINE",
"407 807 OFFCURVE",
"428 832 OFFCURVE",
"428 863 CURVE SMOOTH",
"428 903 OFFCURVE",
"394 929 OFFCURVE",
"348 929 CURVE SMOOTH",
"326 929 OFFCURVE",
"301 922 OFFCURVE",
"286 916 CURVE",
"293 883 LINE",
"307 887 OFFCURVE",
"324 891 OFFCURVE",
"340 891 CURVE SMOOTH",
"361 891 OFFCURVE",
"373 881 OFFCURVE",
"373 862 CURVE SMOOTH",
"373 840 OFFCURVE",
"355 825 OFFCURVE",
"321 813 CURVE",
"327 750 LINE"
);
}
);
width = 684;
}
);
note = Ehookabove;
unicode = 1EBA;
},
{
glyphname = Emacron;
lastChange = "2015-07-30 07:35:18 +0000";
layers = (
{
components = (
{
name = E;
}
);
layerId = "9EA4E357-4DFB-45A6-8407-D27A22F681E3";
name = Light;
paths = (
{
closed = 1;
nodes = (
"491 778 LINE",
"491 833 LINE",
"209 833 LINE",
"209 778 LINE"
);
}
);
width = 684;
}
);
note = Emacron;
unicode = 0112;
},
{
glyphname = Eogonek;
lastChange = "2015-07-30 07:35:18 +0000";
layers = (
{
layerId = "9EA4E357-4DFB-45A6-8407-D27A22F681E3";
name = Light;
paths = (
{
closed = 1;
nodes = (
"573 -207 OFFCURVE",
"595 -202 OFFCURVE",
"613 -194 CURVE",
"606 -160 LINE",
"593 -164 OFFCURVE",
"581 -166 OFFCURVE",
"566 -166 CURVE SMOOTH",
"528 -166 OFFCURVE",
"500 -147 OFFCURVE",
"500 -107 CURVE SMOOTH",
"500 -61 OFFCURVE",
"538 -19 OFFCURVE",
"577 0 CURVE",
"614 0 LINE",
"614 130 LINE SMOOTH",
"614 139 OFFCURVE",
"610 145 OFFCURVE",
"599 145 CURVE SMOOTH",
"586 145 OFFCURVE",
"576 133 OFFCURVE",
"571 104 CURVE SMOOTH",
"562 53 LINE",
"209 53 LINE",
"209 329 LINE",
"495 329 LINE",
"506 284 LINE SMOOTH",
"511 265 OFFCURVE",
"519 256 OFFCURVE",
"529 256 CURVE SMOOTH",
"539 256 OFFCURVE",
"542 262 OFFCURVE",
"542 270 CURVE SMOOTH",
"542 442 LINE SMOOTH",
"542 449 OFFCURVE",
"539 455 OFFCURVE",
"529 455 CURVE SMOOTH",
"519 455 OFFCURVE",
"511 448 OFFCURVE",
"506 427 CURVE SMOOTH",
"495 382 LINE",
"209 382 LINE",
"209 642 LINE",
"549 642 LINE",
"558 595 LINE SMOOTH",
"564 565 OFFCURVE",
"573 554 OFFCURVE",
"586 554 CURVE SMOOTH",
"597 554 OFFCURVE",
"601 560 OFFCURVE",
"601 568 CURVE SMOOTH",
"601 695 LINE",
"72 695 LINE SMOOTH",
"64 695 OFFCURVE",
"58 689 OFFCURVE",
"58 678 CURVE SMOOTH",
"58 661 OFFCURVE",
"70 652 OFFCURVE",
"96 647 CURVE SMOOTH",
"129 641 LINE",
"129 54 LINE",
"96 48 LINE SMOOTH",
"70 43 OFFCURVE",
"58 34 OFFCURVE",
"58 17 CURVE SMOOTH",
"58 6 OFFCURVE",
"64 0 OFFCURVE",
"72 0 CURVE SMOOTH",
"519 0 LINE",
"476 -23 OFFCURVE",
"445 -63 OFFCURVE",
"445 -109 CURVE SMOOTH",
"445 -172 OFFCURVE",
"492 -207 OFFCURVE",
"555 -207 CURVE SMOOTH"
);
}
);
width = 684;
}
);
note = Eogonek;
unicode = 0118;
},
{
glyphname = Etilde;
lastChange = "2015-07-30 07:35:19 +0000";
layers = (
{
components = (
{
name = E;
}
);
layerId = "9EA4E357-4DFB-45A6-8407-D27A22F681E3";
name = Light;
paths = (
{
closed = 1;
nodes = (
"446 762 OFFCURVE",
"480 781 OFFCURVE",
"507 807 CURVE",
"479 845 LINE",
"458 829 OFFCURVE",
"437 819 OFFCURVE",
"414 819 CURVE SMOOTH",
"379 819 OFFCURVE",
"340 854 OFFCURVE",
"301 854 CURVE SMOOTH",
"270 854 OFFCURVE",
"233 833 OFFCURVE",
"206 808 CURVE",
"234 771 LINE",
"255 786 OFFCURVE",
"275 797 OFFCURVE",
"300 797 CURVE SMOOTH",
"340 797 OFFCURVE",
"372 762 OFFCURVE",
"415 762 CURVE SMOOTH"
);
}
);
width = 684;
}
);
note = Etilde;
unicode = 1EBC;
},
{
glyphname = F;
lastChange = "2015-07-30 07:35:18 +0000";
layers = (
{
layerId = "9EA4E357-4DFB-45A6-8407-D27A22F681E3";
name = Light;
paths = (
{
closed = 1;
nodes = (
"274 0 LINE SMOOTH",
"283 0 OFFCURVE",
"286 6 OFFCURVE",
"286 13 CURVE SMOOTH",
"286 26 OFFCURVE",
"277 33 OFFCURVE",
"258 38 CURVE SMOOTH",
"209 50 LINE",
"209 312 LINE",
"479 312 LINE",
"489 266 LINE SMOOTH",
"493 246 OFFCURVE",
"501 237 OFFCURVE",
"512 237 CURVE SMOOTH",
"521 237 OFFCURVE",
"526 243 OFFCURVE",
"526 251 CURVE SMOOTH",
"526 428 LINE SMOOTH",
"526 435 OFFCURVE",
"521 441 OFFCURVE",
"512 441 CURVE SMOOTH",
"501 441 OFFCURVE",
"493 433 OFFCURVE",
"489 413 CURVE SMOOTH",
"479 366 LINE",
"209 366 LINE",
"209 641 LINE",
"532 641 LINE",
"543 591 LINE SMOOTH",
"549 563 OFFCURVE",
"557 550 OFFCURVE",
"571 550 CURVE SMOOTH",
"582 550 OFFCURVE",
"585 556 OFFCURVE",
"585 564 CURVE SMOOTH",
"585 695 LINE",
"72 695 LINE SMOOTH",
"64 695 OFFCURVE",
"58 689 OFFCURVE",
"58 678 CURVE SMOOTH",
"58 661 OFFCURVE",
"70 652 OFFCURVE",
"96 647 CURVE SMOOTH",
"129 641 LINE",
"129 49 LINE",
"97 49 LINE SMOOTH",
"74 49 OFFCURVE",
"60 39 OFFCURVE",
"60 21 CURVE SMOOTH",
"60 8 OFFCURVE",
"66 0 OFFCURVE",
"77 0 CURVE SMOOTH"
);
}
);
width = 650;
}
);
note = F;
unicode = 0046;
},
{
glyphname = G;
lastChange = "2015-07-30 07:35:18 +0000";
layers = (
{
layerId = "9EA4E357-4DFB-45A6-8407-D27A22F681E3";
name = Light;
paths = (
{
closed = 1;
nodes = (
"453 -12 OFFCURVE",
"539 4 OFFCURVE",
"601 38 CURVE",
"601 297 LINE",
"649 309 LINE SMOOTH",
"667 314 OFFCURVE",
"675 320 OFFCURVE",
"675 333 CURVE SMOOTH",
"675 340 OFFCURVE",
"672 346 OFFCURVE",
"664 346 CURVE SMOOTH",
"432 346 LINE SMOOTH",
"410 346 OFFCURVE",
"396 336 OFFCURVE",
"396 318 CURVE SMOOTH",
"396 305 OFFCURVE",
"402 298 OFFCURVE",
"412 298 CURVE SMOOTH",
"521 298 LINE",
"521 70 LINE",
"483 52 OFFCURVE",
"433 43 OFFCURVE",
"387 43 CURVE SMOOTH",
"232 43 OFFCURVE",
"131 152 OFFCURVE",
"131 348 CURVE SMOOTH",
"131 543 OFFCURVE",
"231 652 OFFCURVE",
"386 652 CURVE SMOOTH",
"448 652 OFFCURVE",
"505 636 OFFCURVE",
"540 610 CURVE",
"554 541 LINE SMOOTH",
"559 516 OFFCURVE",
"567 505 OFFCURVE",
"583 505 CURVE SMOOTH",
"595 505 OFFCURVE",
"598 512 OFFCURVE",
"598 520 CURVE SMOOTH",
"598 634 LINE",
"547 677 OFFCURVE",
"465 707 OFFCURVE",
"374 707 CURVE SMOOTH",
"191 707 OFFCURVE",
"50 585 OFFCURVE",
"50 348 CURVE SMOOTH",
"50 104 OFFCURVE",
"192 -12 OFFCURVE",
"385 -12 CURVE SMOOTH"
);
}
);
width = 718;
}
);
note = G;
unicode = 0047;
},
{
glyphname = Gbreve;
lastChange = "2015-07-30 07:35:18 +0000";
layers = (
{
components = (
{
name = G;
}
);
layerId = "9EA4E357-4DFB-45A6-8407-D27A22F681E3";
name = Light;
paths = (
{
closed = 1;
nodes = (
"429 747 OFFCURVE",
"488 780 OFFCURVE",
"512 867 CURVE",
"466 883 LINE",
"452 835 OFFCURVE",
"417 801 OFFCURVE",
"366 801 CURVE SMOOTH",
"315 801 OFFCURVE",
"280 835 OFFCURVE",
"266 883 CURVE",
"220 867 LINE",
"244 780 OFFCURVE",
"303 747 OFFCURVE",
"366 747 CURVE SMOOTH"
);
}
);
width = 718;
}
);
note = Gbreve;
unicode = 011E;
},
{
glyphname = Gcaron;
lastChange = "2015-07-30 07:35:19 +0000";
layers = (
{
components = (
{
name = G;
}
);
layerId = "9EA4E357-4DFB-45A6-8407-D27A22F681E3";
name = Light;
paths = (
{
closed = 1;
nodes = (
"393 751 LINE",
"500 887 LINE",
"463 917 LINE",
"372 818 LINE",
"281 917 LINE",
"244 887 LINE",
"351 751 LINE"
);
}
);
width = 718;
}
);
note = Gcaron;
unicode = 01E6;
},
{
glyphname = Gcircumflex;
lastChange = "2015-07-30 07:35:18 +0000";
layers = (
{
components = (
{
name = G;
}
);
layerId = "9EA4E357-4DFB-45A6-8407-D27A22F681E3";
name = Light;
paths = (
{
closed = 1;
nodes = (
"369 850 LINE",
"460 751 LINE",
"497 781 LINE",
"390 917 LINE",
"348 917 LINE",
"241 781 LINE",
"278 751 LINE"
);
}
);
width = 718;
}
);
note = Gcircumflex;
unicode = 011C;
},
{
glyphname = Gcommaaccent;
lastChange = "2015-07-30 07:35:18 +0000";
layers = (
{
components = (
{
name = G;
}
);
layerId = "9EA4E357-4DFB-45A6-8407-D27A22F681E3";
name = Light;
paths = (
{
closed = 1;
nodes = (
"380 -189 OFFCURVE",
"411 -121 OFFCURVE",
"426 -64 CURVE",
"351 -46 LINE SMOOTH",
"330 -41 OFFCURVE",
"315 -50 OFFCURVE",
"315 -69 CURVE SMOOTH",
"315 -77 OFFCURVE",
"320 -82 OFFCURVE",
"327 -84 CURVE SMOOTH",
"356 -94 LINE",
"352 -126 OFFCURVE",
"327 -180 OFFCURVE",
"303 -216 CURVE",
"338 -238 LINE"
);
}
);
width = 718;
}
);
note = Gcommaaccent;
unicode = 0122;
},
{
glyphname = Gdotaccent;
lastChange = "2015-07-30 07:35:18 +0000";
layers = (
{
components = (
{
name = G;
}
);
layerId = "9EA4E357-4DFB-45A6-8407-D27A22F681E3";
name = Light;
paths = (
{
closed = 1;
nodes = (
"395 768 OFFCURVE",
"417 789 OFFCURVE",
"417 817 CURVE SMOOTH",
"417 845 OFFCURVE",
"395 866 OFFCURVE",
"368 866 CURVE SMOOTH",
"341 866 OFFCURVE",
"319 845 OFFCURVE",
"319 817 CURVE SMOOTH",
"319 789 OFFCURVE",
"341 768 OFFCURVE",
"368 768 CURVE SMOOTH"
);
}
);
width = 718;
}
);
note = Gdotaccent;
unicode = 0120;
},
{
glyphname = Gmacron;
lastChange = "2015-07-30 07:35:19 +0000";
layers = (
{
components = (
{
name = G;
}
);
layerId = "9EA4E357-4DFB-45A6-8407-D27A22F681E3";
name = Light;
paths = (
{
closed = 1;
nodes = (
"513 778 LINE",
"513 833 LINE",
"231 833 LINE",
"231 778 LINE"
);
}
);
width = 718;
}
);
note = Gmacron;
unicode = 1E20;
},
{
glyphname = H;
lastChange = "2015-07-30 07:35:18 +0000";
layers = (
{
layerId = "9EA4E357-4DFB-45A6-8407-D27A22F681E3";
name = Light;
paths = (
{
closed = 1;
nodes = (
"272 0 LINE SMOOTH",
"281 0 OFFCURVE",
"284 6 OFFCURVE",
"284 13 CURVE SMOOTH",
"284 26 OFFCURVE",
"275 33 OFFCURVE",
"256 38 CURVE SMOOTH",
"206 50 LINE",
"206 334 LINE",
"591 334 LINE",
"591 49 LINE",
"554 49 LINE SMOOTH",
"532 49 OFFCURVE",
"518 39 OFFCURVE",
"518 21 CURVE SMOOTH",
"518 8 OFFCURVE",
"524 0 OFFCURVE",
"535 0 CURVE SMOOTH",
"732 0 LINE SMOOTH",
"741 0 OFFCURVE",
"743 6 OFFCURVE",
"743 13 CURVE SMOOTH",
"743 26 OFFCURVE",
"735 33 OFFCURVE",
"719 37 CURVE SMOOTH",
"671 50 LINE",
"671 645 LINE",
"719 658 LINE SMOOTH",
"736 662 OFFCURVE",
"743 669 OFFCURVE",
"743 682 CURVE SMOOTH",
"743 689 OFFCURVE",
"741 695 OFFCURVE",
"732 695 CURVE SMOOTH",
"554 695 LINE SMOOTH",
"532 695 OFFCURVE",
"518 685 OFFCURVE",
"518 667 CURVE SMOOTH",
"518 654 OFFCURVE",
"524 646 OFFCURVE",
"535 646 CURVE SMOOTH",
"591 646 LINE",
"591 388 LINE",
"206 388 LINE",
"206 645 LINE",
"256 657 LINE SMOOTH",
"275 662 OFFCURVE",
"284 669 OFFCURVE",
"284 682 CURVE SMOOTH",
"284 689 OFFCURVE",
"281 695 OFFCURVE",
"272 695 CURVE SMOOTH",
"94 695 LINE SMOOTH",
"72 695 OFFCURVE",
"58 685 OFFCURVE",
"58 667 CURVE SMOOTH",
"58 654 OFFCURVE",
"64 646 OFFCURVE",
"75 646 CURVE SMOOTH",
"126 646 LINE",
"126 49 LINE",
"95 49 LINE SMOOTH",
"72 49 OFFCURVE",
"58 39 OFFCURVE",
"58 21 CURVE SMOOTH",
"58 8 OFFCURVE",
"64 0 OFFCURVE",
"75 0 CURVE SMOOTH"
);
}
);
width = 801;
}
);
note = H;
unicode = 0048;
},
{
glyphname = Hbar;
lastChange = "2015-07-30 07:35:19 +0000";
layers = (
{
layerId = "9EA4E357-4DFB-45A6-8407-D27A22F681E3";
name = Light;
paths = (
{
closed = 1;
nodes = (
"273 0 LINE SMOOTH",
"282 0 OFFCURVE",
"285 6 OFFCURVE",
"285 13 CURVE SMOOTH",
"285 26 OFFCURVE",
"276 33 OFFCURVE",
"257 38 CURVE SMOOTH",
"207 50 LINE",
"207 334 LINE",
"592 334 LINE",
"592 49 LINE",
"555 49 LINE SMOOTH",
"533 49 OFFCURVE",
"519 39 OFFCURVE",
"519 21 CURVE SMOOTH",
"519 8 OFFCURVE",
"525 0 OFFCURVE",
"536 0 CURVE SMOOTH",
"733 0 LINE SMOOTH",
"742 0 OFFCURVE",
"744 6 OFFCURVE",
"744 13 CURVE SMOOTH",
"744 26 OFFCURVE",
"737 33 OFFCURVE",
"720 37 CURVE SMOOTH",
"672 50 LINE",
"672 494 LINE",
"744 494 LINE",
"744 545 LINE",
"672 545 LINE",
"672 645 LINE",
"720 658 LINE SMOOTH",
"736 662 OFFCURVE",
"744 669 OFFCURVE",
"744 682 CURVE SMOOTH",
"744 689 OFFCURVE",
"742 695 OFFCURVE",
"733 695 CURVE SMOOTH",
"555 695 LINE SMOOTH",
"533 695 OFFCURVE",
"519 685 OFFCURVE",
"519 667 CURVE SMOOTH",
"519 654 OFFCURVE",
"525 646 OFFCURVE",
"536 646 CURVE SMOOTH",
"592 646 LINE",
"592 545 LINE",
"207 545 LINE",
"207 645 LINE",
"257 657 LINE SMOOTH",
"277 662 OFFCURVE",
"285 669 OFFCURVE",
"285 682 CURVE SMOOTH",
"285 689 OFFCURVE",
"282 695 OFFCURVE",
"273 695 CURVE SMOOTH",
"95 695 LINE SMOOTH",
"73 695 OFFCURVE",
"59 685 OFFCURVE",
"59 667 CURVE SMOOTH",
"59 654 OFFCURVE",
"65 646 OFFCURVE",
"76 646 CURVE SMOOTH",
"127 646 LINE",
"127 545 LINE",
"59 545 LINE",
"59 494 LINE",
"127 494 LINE",
"127 49 LINE",
"96 49 LINE SMOOTH",
"73 49 OFFCURVE",
"59 39 OFFCURVE",
"59 21 CURVE SMOOTH",
"59 8 OFFCURVE",
"65 0 OFFCURVE",
"76 0 CURVE SMOOTH"
);
},
{
closed = 1;
nodes = (
"207 494 LINE",
"592 494 LINE",
"592 388 LINE",
"207 388 LINE"
);
}
);
width = 803;
}
);
note = Hbar;
unicode = 0126;
},
{
glyphname = Hbrevebelow;
lastChange = "2015-07-30 07:35:19 +0000";
layers = (
{
components = (
{
name = H;
}
);
layerId = "9EA4E357-4DFB-45A6-8407-D27A22F681E3";
name = Light;
paths = (
{
closed = 1;
nodes = (
"464 -194 OFFCURVE",
"523 -160 OFFCURVE",
"547 -74 CURVE",
"501 -58 LINE",
"487 -106 OFFCURVE",
"452 -140 OFFCURVE",
"401 -140 CURVE SMOOTH",
"350 -140 OFFCURVE",
"315 -106 OFFCURVE",
"301 -58 CURVE",
"255 -74 LINE",
"279 -160 OFFCURVE",
"338 -194 OFFCURVE",
"401 -194 CURVE SMOOTH"
);
}
);
width = 801;
}
);
note = Hbrevebelow;
unicode = 1E2A;
},
{
glyphname = Hcircumflex;
lastChange = "2015-07-30 07:35:18 +0000";
layers = (
{
components = (
{
name = H;
}
);
layerId = "9EA4E357-4DFB-45A6-8407-D27A22F681E3";
name = Light;
paths = (
{
closed = 1;
nodes = (
"400 850 LINE",
"491 751 LINE",
"528 781 LINE",
"421 917 LINE",
"379 917 LINE",
"272 781 LINE",
"309 751 LINE"
);
}
);
width = 801;
}
);
note = Hcircumflex;
unicode = 0124;
},
{
glyphname = Hdotbelow;
lastChange = "2015-07-30 07:35:19 +0000";
layers = (
{
components = (
{
name = H;
}
);
layerId = "9EA4E357-4DFB-45A6-8407-D27A22F681E3";
name = Light;
paths = (
{
closed = 1;
nodes = (
"430 -164 OFFCURVE",
"452 -143 OFFCURVE",
"452 -115 CURVE SMOOTH",
"452 -86 OFFCURVE",
"430 -65 OFFCURVE",
"403 -65 CURVE SMOOTH",
"376 -65 OFFCURVE",
"354 -86 OFFCURVE",
"354 -115 CURVE SMOOTH",
"354 -143 OFFCURVE",
"376 -164 OFFCURVE",
"403 -164 CURVE SMOOTH"
);
}
);
width = 801;
}
);
note = Hdotbelow;
unicode = 1E24;
},
{
glyphname = I;
lastChange = "2015-07-30 07:35:18 +0000";
layers = (
{
layerId = "9EA4E357-4DFB-45A6-8407-D27A22F681E3";
name = Light;
paths = (
{
closed = 1;
nodes = (
"277 0 LINE SMOOTH",
"286 0 OFFCURVE",
"289 6 OFFCURVE",
"289 13 CURVE SMOOTH",
"289 26 OFFCURVE",
"280 33 OFFCURVE",
"261 38 CURVE SMOOTH",
"211 50 LINE",
"211 645 LINE",
"261 657 LINE SMOOTH",
"280 662 OFFCURVE",
"289 669 OFFCURVE",
"289 682 CURVE SMOOTH",
"289 689 OFFCURVE",
"286 695 OFFCURVE",
"277 695 CURVE SMOOTH",
"99 695 LINE SMOOTH",
"77 695 OFFCURVE",
"63 685 OFFCURVE",
"63 667 CURVE SMOOTH",
"63 654 OFFCURVE",
"69 646 OFFCURVE",
"80 646 CURVE SMOOTH",
"131 646 LINE",
"131 49 LINE",
"100 49 LINE SMOOTH",
"77 49 OFFCURVE",
"63 39 OFFCURVE",
"63 21 CURVE SMOOTH",
"63 8 OFFCURVE",
"69 0 OFFCURVE",
"80 0 CURVE SMOOTH"
);
}
);
width = 351;
}
);
note = I;
unicode = 0049;
},
{
glyphname = IJ;
lastChange = "2015-07-30 07:35:19 +0000";
layers = (
{
layerId = "9EA4E357-4DFB-45A6-8407-D27A22F681E3";
name = Light;
paths = (
{
closed = 1;
nodes = (
"413 -12 OFFCURVE",
"427 -8 OFFCURVE",
"448 1 CURVE SMOOTH",
"526 38 OFFCURVE",
"577 107 OFFCURVE",
"577 227 CURVE SMOOTH",
"577 645 LINE",
"627 657 LINE SMOOTH",
"646 662 OFFCURVE",
"654 669 OFFCURVE",
"654 682 CURVE SMOOTH",
"654 689 OFFCURVE",
"652 695 OFFCURVE",
"643 695 CURVE SMOOTH",
"457 695 LINE SMOOTH",
"435 695 OFFCURVE",
"421 685 OFFCURVE",
"421 667 CURVE SMOOTH",
"421 654 OFFCURVE",
"427 646 OFFCURVE",
"438 646 CURVE SMOOTH",
"497 646 LINE",
"497 232 LINE SMOOTH",
"497 128 OFFCURVE",
"459 79 OFFCURVE",
"354 44 CURVE",
"356 4 OFFCURVE",
"374 -12 OFFCURVE",
"398 -12 CURVE SMOOTH"
);
},
{
closed = 1;
nodes = (
"277 0 LINE SMOOTH",
"286 0 OFFCURVE",
"289 6 OFFCURVE",
"289 13 CURVE SMOOTH",
"289 26 OFFCURVE",
"280 33 OFFCURVE",
"261 38 CURVE SMOOTH",
"211 50 LINE",
"211 645 LINE",
"261 657 LINE SMOOTH",
"280 662 OFFCURVE",
"289 669 OFFCURVE",
"289 682 CURVE SMOOTH",
"289 689 OFFCURVE",
"286 695 OFFCURVE",
"277 695 CURVE SMOOTH",
"99 695 LINE SMOOTH",
"77 695 OFFCURVE",
"63 685 OFFCURVE",
"63 667 CURVE SMOOTH",
"63 654 OFFCURVE",
"69 646 OFFCURVE",
"80 646 CURVE SMOOTH",
"131 646 LINE",
"131 49 LINE",
"100 49 LINE SMOOTH",
"77 49 OFFCURVE",
"63 39 OFFCURVE",
"63 21 CURVE SMOOTH",
"63 8 OFFCURVE",
"69 0 OFFCURVE",
"80 0 CURVE SMOOTH"
);
}
);
width = 700;
}
);
note = IJ;
unicode = 0132;
},
{
glyphname = Iacute;
lastChange = "2015-07-30 07:35:18 +0000";
layers = (
{
components = (
{
name = I;
}
);
layerId = "9EA4E357-4DFB-45A6-8407-D27A22F681E3";
name = Light;
paths = (
{
closed = 1;
nodes = (
"262 888 LINE",
"202 927 LINE",
"115 781 LINE",
"160 752 LINE"
);
}
);
width = 351;
}
);
note = Iacute;
unicode = 00CD;
},
{
glyphname = Ibreve;
lastChange = "2015-07-30 07:35:18 +0000";
layers = (
{
components = (
{
name = I;
transform = "{1, 0, 0, 1, -2, 0}";
}
);
layerId = "9EA4E357-4DFB-45A6-8407-D27A22F681E3";
name = Light;
paths = (
{
closed = 1;
nodes = (
"231 747 OFFCURVE",
"290 780 OFFCURVE",
"314 867 CURVE",
"268 883 LINE",
"254 835 OFFCURVE",
"219 801 OFFCURVE",
"168 801 CURVE SMOOTH",
"117 801 OFFCURVE",
"82 835 OFFCURVE",
"68 883 CURVE",
"22 867 LINE",
"46 780 OFFCURVE",
"105 747 OFFCURVE",
"168 747 CURVE SMOOTH"
);
}
);
width = 336;
}
);
note = Ibreve;
unicode = 012C;
},
{
glyphname = Icaron;
lastChange = "2015-07-30 07:35:19 +0000";
layers = (
{
layerId = "9EA4E357-4DFB-45A6-8407-D27A22F681E3";
name = Light;
paths = (
{
closed = 1;
nodes = (
"273 0 LINE SMOOTH",
"282 0 OFFCURVE",
"285 6 OFFCURVE",
"285 13 CURVE SMOOTH",
"285 26 OFFCURVE",
"276 33 OFFCURVE",
"257 38 CURVE SMOOTH",
"207 50 LINE",
"207 645 LINE",
"257 657 LINE SMOOTH",
"276 662 OFFCURVE",
"285 669 OFFCURVE",
"285 682 CURVE SMOOTH",
"285 689 OFFCURVE",
"282 695 OFFCURVE",
"273 695 CURVE SMOOTH",
"95 695 LINE SMOOTH",
"73 695 OFFCURVE",
"59 685 OFFCURVE",
"59 667 CURVE SMOOTH",
"59 654 OFFCURVE",
"65 646 OFFCURVE",
"76 646 CURVE SMOOTH",
"127 646 LINE",
"127 49 LINE",
"96 49 LINE SMOOTH",
"73 49 OFFCURVE",
"59 39 OFFCURVE",
"59 21 CURVE SMOOTH",
"59 8 OFFCURVE",
"65 0 OFFCURVE",
"76 0 CURVE SMOOTH"
);
},
{
closed = 1;
nodes = (
"188 751 LINE",
"295 887 LINE",
"258 917 LINE",
"167 818 LINE",
"76 917 LINE",
"39 887 LINE",
"146 751 LINE"
);
}
);
width = 335;
}
);
note = Icaron;
unicode = 01CF;
},
{
glyphname = Icircumflex;
lastChange = "2015-07-30 07:35:18 +0000";
layers = (
{
components = (
{
name = I;
transform = "{1, 0, 0, 1, -5, 0}";
}
);
layerId = "9EA4E357-4DFB-45A6-8407-D27A22F681E3";
name = Light;
paths = (
{
closed = 1;
nodes = (
"167 850 LINE",
"258 751 LINE",
"295 781 LINE",
"188 917 LINE",
"146 917 LINE",
"39 781 LINE",
"76 751 LINE"
);
}
);
width = 335;
}
);
note = Icircumflex;
unicode = 00CE;
},
{
glyphname = Idieresis;
lastChange = "2015-07-30 07:35:19 +0000";
layers = (
{
components = (
{
name = I;
transform = "{1, 0, 0, 1, -4, 0}";
}
);
layerId = "9EA4E357-4DFB-45A6-8407-D27A22F681E3";
name = Light;
paths = (
{
closed = 1;
nodes = (
"290 762 OFFCURVE",
"312 782 OFFCURVE",
"312 811 CURVE SMOOTH",
"312 839 OFFCURVE",
"290 859 OFFCURVE",
"264 859 CURVE SMOOTH",
"237 859 OFFCURVE",
"215 839 OFFCURVE",
"215 811 CURVE SMOOTH",
"215 782 OFFCURVE",
"237 762 OFFCURVE",
"264 762 CURVE SMOOTH"
);
},
{
closed = 1;
nodes = (
"99 762 OFFCURVE",
"121 782 OFFCURVE",
"121 811 CURVE SMOOTH",
"121 839 OFFCURVE",
"99 859 OFFCURVE",
"73 859 CURVE SMOOTH",
"46 859 OFFCURVE",
"24 839 OFFCURVE",
"24 811 CURVE SMOOTH",
"24 782 OFFCURVE",
"46 762 OFFCURVE",
"73 762 CURVE SMOOTH"
);
}
);
width = 336;
}
);
note = Idieresis;
unicode = 00CF;
},
{
glyphname = Idotaccent;
lastChange = "2015-07-30 07:35:18 +0000";
layers = (
{
components = (
{
name = I;
transform = "{1, 0, 0, 1, 2, 0}";
}
);
layerId = "9EA4E357-4DFB-45A6-8407-D27A22F681E3";
name = Light;
paths = (
{
closed = 1;
nodes = (
"203 768 OFFCURVE",
"225 789 OFFCURVE",
"225 817 CURVE SMOOTH",
"225 845 OFFCURVE",
"203 866 OFFCURVE",
"176 866 CURVE SMOOTH",
"149 866 OFFCURVE",
"127 845 OFFCURVE",
"127 817 CURVE SMOOTH",
"127 789 OFFCURVE",
"149 768 OFFCURVE",
"176 768 CURVE SMOOTH"
);
}
);
width = 355;
}
);
note = Idotaccent;
unicode = 0130;
},
{
glyphname = Idotbelow;
lastChange = "2015-07-30 07:35:19 +0000";
layers = (
{
components = (
{
name = I;
}
);
layerId = "9EA4E357-4DFB-45A6-8407-D27A22F681E3";
name = Light;
paths = (
{
closed = 1;
nodes = (
"201 -164 OFFCURVE",
"223 -143 OFFCURVE",
"223 -115 CURVE SMOOTH",
"223 -86 OFFCURVE",
"201 -65 OFFCURVE",
"174 -65 CURVE SMOOTH",
"147 -65 OFFCURVE",
"125 -86 OFFCURVE",
"125 -115 CURVE SMOOTH",
"125 -143 OFFCURVE",
"147 -164 OFFCURVE",
"174 -164 CURVE SMOOTH"
);
}
);
width = 351;
}
);
note = Idotbelow;
unicode = 1ECA;
},
{
glyphname = Igrave;
lastChange = "2015-07-30 07:35:18 +0000";
layers = (
{
components = (
{
name = I;
}
);
layerId = "9EA4E357-4DFB-45A6-8407-D27A22F681E3";
name = Light;
paths = (
{
closed = 1;
nodes = (
"230 781 LINE",
"143 927 LINE",
"83 888 LINE",
"185 752 LINE"
);
}
);
width = 351;
}
);
note = Igrave;
unicode = 00CC;
},
{
glyphname = Ihookabove;
lastChange = "2015-07-30 07:35:19 +0000";
layers = (
{
components = (
{
name = I;
transform = "{1, 0, 0, 1, 2, 0}";
}
);
layerId = "9EA4E357-4DFB-45A6-8407-D27A22F681E3";
name = Light;
paths = (
{
closed = 1;
nodes = (
"192 750 LINE",
"198 795 LINE",
"233 807 OFFCURVE",
"254 832 OFFCURVE",
"254 863 CURVE SMOOTH",
"254 903 OFFCURVE",
"220 929 OFFCURVE",
"174 929 CURVE SMOOTH",
"152 929 OFFCURVE",
"127 922 OFFCURVE",
"112 916 CURVE",
"119 883 LINE",
"133 887 OFFCURVE",
"150 891 OFFCURVE",
"166 891 CURVE SMOOTH",
"187 891 OFFCURVE",
"199 881 OFFCURVE",
"199 862 CURVE SMOOTH",
"199 840 OFFCURVE",
"181 825 OFFCURVE",
"147 813 CURVE",
"153 750 LINE"
);
}
);
width = 378;
}
);
note = Ihookabove;
unicode = 1EC8;
},
{
glyphname = Imacron;
lastChange = "2015-07-30 07:35:18 +0000";
layers = (
{
components = (
{
name = I;
transform = "{1, 0, 0, 1, -18, 0}";
}
);
layerId = "9EA4E357-4DFB-45A6-8407-D27A22F681E3";
name = Light;
paths = (
{
closed = 1;
nodes = (
"297 778 LINE",
"297 833 LINE",
"15 833 LINE",
"15 778 LINE"
);
}
);
width = 314;
}
);
note = Imacron;
unicode = 012A;
},
{
glyphname = Iogonek;
lastChange = "2015-07-30 07:35:18 +0000";
layers = (
{
layerId = "9EA4E357-4DFB-45A6-8407-D27A22F681E3";
name = Light;
paths = (
{
closed = 1;
nodes = (
"201 -207 OFFCURVE",
"223 -202 OFFCURVE",
"241 -194 CURVE",
"234 -160 LINE",
"221 -164 OFFCURVE",
"209 -166 OFFCURVE",
"194 -166 CURVE SMOOTH",
"156 -166 OFFCURVE",
"128 -147 OFFCURVE",
"128 -107 CURVE SMOOTH",
"128 -61 OFFCURVE",
"166 -19 OFFCURVE",
"205 0 CURVE",
"279 0 LINE SMOOTH",
"288 0 OFFCURVE",
"291 6 OFFCURVE",
"291 13 CURVE SMOOTH",
"291 26 OFFCURVE",
"282 33 OFFCURVE",
"263 38 CURVE SMOOTH",
"213 50 LINE",
"213 645 LINE",
"263 657 LINE SMOOTH",
"281 661 OFFCURVE",
"291 669 OFFCURVE",
"291 682 CURVE SMOOTH",
"291 689 OFFCURVE",
"288 695 OFFCURVE",
"279 695 CURVE SMOOTH",
"101 695 LINE SMOOTH",
"79 695 OFFCURVE",
"65 685 OFFCURVE",
"65 667 CURVE SMOOTH",
"65 654 OFFCURVE",
"71 646 OFFCURVE",
"82 646 CURVE SMOOTH",
"133 646 LINE",
"133 49 LINE",
"102 49 LINE SMOOTH",
"79 49 OFFCURVE",
"65 39 OFFCURVE",
"65 21 CURVE SMOOTH",
"65 8 OFFCURVE",
"71 0 OFFCURVE",
"82 0 CURVE SMOOTH",
"147 0 LINE",
"104 -23 OFFCURVE",
"73 -63 OFFCURVE",
"73 -109 CURVE SMOOTH",
"73 -172 OFFCURVE",
"120 -207 OFFCURVE",
"183 -207 CURVE SMOOTH"
);
}
);
width = 354;
}
);
note = Iogonek;
unicode = 012E;
},
{
glyphname = Itilde;
lastChange = "2015-07-30 07:35:18 +0000";
layers = (
{
components = (
{
name = I;
transform = "{1, 0, 0, 1, 2, 0}";
}
);
layerId = "9EA4E357-4DFB-45A6-8407-D27A22F681E3";
name = Light;
paths = (
{
closed = 1;
nodes = (
"261 762 OFFCURVE",
"295 781 OFFCURVE",
"322 807 CURVE",
"294 845 LINE",
"273 829 OFFCURVE",
"252 819 OFFCURVE",
"229 819 CURVE SMOOTH",
"194 819 OFFCURVE",
"155 854 OFFCURVE",
"116 854 CURVE SMOOTH",
"85 854 OFFCURVE",
"48 833 OFFCURVE",
"21 808 CURVE",
"49 771 LINE",
"70 786 OFFCURVE",
"90 797 OFFCURVE",
"115 797 CURVE SMOOTH",
"155 797 OFFCURVE",
"187 762 OFFCURVE",
"230 762 CURVE SMOOTH"
);
}
);
width = 342;
}
);
note = Itilde;
unicode = 0128;
},
{
glyphname = J;
lastChange = "2015-07-30 07:35:18 +0000";
layers = (
{
layerId = "9EA4E357-4DFB-45A6-8407-D27A22F681E3";
name = Light;
paths = (
{
closed = 1;
nodes = (
"97 -12 OFFCURVE",
"114 -7 OFFCURVE",
"132 1 CURVE SMOOTH",
"213 36 OFFCURVE",
"261 107 OFFCURVE",
"261 227 CURVE SMOOTH",
"261 645 LINE",
"311 657 LINE SMOOTH",
"330 662 OFFCURVE",
"338 669 OFFCURVE",
"338 682 CURVE SMOOTH",
"338 689 OFFCURVE",
"336 695 OFFCURVE",
"327 695 CURVE SMOOTH",
"141 695 LINE SMOOTH",
"119 695 OFFCURVE",
"105 685 OFFCURVE",
"105 667 CURVE SMOOTH",
"105 654 OFFCURVE",
"111 646 OFFCURVE",
"122 646 CURVE SMOOTH",
"181 646 LINE",
"181 232 LINE SMOOTH",
"181 128 OFFCURVE",
"143 79 OFFCURVE",
"38 44 CURVE",
"40 4 OFFCURVE",
"58 -12 OFFCURVE",
"82 -12 CURVE SMOOTH"
);
}
);
width = 383;
}
);
note = J;
unicode = 004A;
},
{
glyphname = Jcircumflex;
lastChange = "2015-07-30 07:35:18 +0000";
layers = (
{
components = (
{
name = J;
}
);
layerId = "9EA4E357-4DFB-45A6-8407-D27A22F681E3";
name = Light;
paths = (
{
closed = 1;
nodes = (
"219 850 LINE",
"310 751 LINE",
"347 781 LINE",
"240 917 LINE",
"198 917 LINE",
"91 781 LINE",
"128 751 LINE"
);
}
);
width = 391;
}
);
note = Jcircumflex;
unicode = 0134;
},
{
glyphname = K;
lastChange = "2015-07-30 07:35:19 +0000";
layers = (
{
layerId = "9EA4E357-4DFB-45A6-8407-D27A22F681E3";
name = Light;
paths = (
{
closed = 1;
nodes = (
"661 0 LINE SMOOTH",
"671 0 OFFCURVE",
"673 6 OFFCURVE",
"673 13 CURVE SMOOTH",
"673 26 OFFCURVE",
"664 34 OFFCURVE",
"645 38 CURVE SMOOTH",
"595 48 LINE",
"295 368 LINE",
"588 647 LINE",
"627 653 LINE SMOOTH",
"647 656 OFFCURVE",
"655 666 OFFCURVE",
"655 679 CURVE SMOOTH",
"655 689 OFFCURVE",
"652 695 OFFCURVE",
"642 695 CURVE SMOOTH",
"465 695 LINE SMOOTH",
"442 695 OFFCURVE",
"428 685 OFFCURVE",
"428 667 CURVE SMOOTH",
"428 654 OFFCURVE",
"434 646 OFFCURVE",
"445 646 CURVE SMOOTH",
"510 646 LINE",
"206 357 LINE",
"530 0 LINE"
);
},
{
closed = 1;
nodes = (
"272 0 LINE SMOOTH",
"280 0 OFFCURVE",
"284 6 OFFCURVE",
"284 13 CURVE SMOOTH",
"284 26 OFFCURVE",
"275 33 OFFCURVE",
"256 38 CURVE SMOOTH",
"206 50 LINE",
"206 645 LINE",
"256 657 LINE SMOOTH",
"275 662 OFFCURVE",
"283 669 OFFCURVE",
"283 682 CURVE SMOOTH",
"283 689 OFFCURVE",
"279 695 OFFCURVE",
"271 695 CURVE SMOOTH",
"94 695 LINE SMOOTH",
"72 695 OFFCURVE",
"58 685 OFFCURVE",
"58 667 CURVE SMOOTH",
"58 654 OFFCURVE",
"64 646 OFFCURVE",
"75 646 CURVE SMOOTH",
"126 646 LINE",
"126 49 LINE",
"95 49 LINE SMOOTH",
"72 49 OFFCURVE",
"58 39 OFFCURVE",
"58 21 CURVE SMOOTH",
"58 8 OFFCURVE",
"64 0 OFFCURVE",
"75 0 CURVE SMOOTH"
);
}
);
width = 684;
}
);
note = K;
unicode = 004B;
},
{
glyphname = Kcommaaccent;
lastChange = "2015-07-30 07:35:18 +0000";
layers = (
{
components = (
{
name = K;
}
);
layerId = "9EA4E357-4DFB-45A6-8407-D27A22F681E3";
name = Light;
paths = (
{
closed = 1;
nodes = (
"363 -189 OFFCURVE",
"394 -121 OFFCURVE",
"409 -64 CURVE",
"334 -46 LINE SMOOTH",
"313 -41 OFFCURVE",
"298 -50 OFFCURVE",
"298 -69 CURVE SMOOTH",
"298 -77 OFFCURVE",
"303 -82 OFFCURVE",
"310 -84 CURVE SMOOTH",
"339 -94 LINE",
"335 -126 OFFCURVE",
"310 -180 OFFCURVE",
"286 -216 CURVE",
"321 -238 LINE"
);
}
);
width = 684;
}
);
note = Kcommaaccent;
unicode = 0136;
},
{
glyphname = L;
lastChange = "2015-07-30 07:35:18 +0000";
layers = (
{
layerId = "9EA4E357-4DFB-45A6-8407-D27A22F681E3";
name = Light;
paths = (
{
closed = 1;
nodes = (
"580 0 LINE",
"580 143 LINE SMOOTH",
"580 152 OFFCURVE",
"576 158 OFFCURVE",
"565 158 CURVE SMOOTH",
"552 158 OFFCURVE",
"543 146 OFFCURVE",
"537 117 CURVE SMOOTH",
"524 54 LINE",
"209 54 LINE",
"209 645 LINE",
"262 657 LINE SMOOTH",
"281 661 OFFCURVE",
"290 669 OFFCURVE",
"290 682 CURVE SMOOTH",
"290 689 OFFCURVE",
"287 695 OFFCURVE",
"278 695 CURVE SMOOTH",
"96 695 LINE SMOOTH",
"74 695 OFFCURVE",
"60 685 OFFCURVE",
"60 667 CURVE SMOOTH",
"60 654 OFFCURVE",
"66 646 OFFCURVE",
"77 646 CURVE SMOOTH",
"129 646 LINE",
"129 54 LINE",
"96 48 LINE SMOOTH",
"70 43 OFFCURVE",
"58 34 OFFCURVE",
"58 17 CURVE SMOOTH",
"58 6 OFFCURVE",
"64 0 OFFCURVE",
"72 0 CURVE SMOOTH"
);
}
);
width = 599;
}
);
note = L;
unicode = 004C;
},
{
glyphname = Lacute;
lastChange = "2015-07-30 07:35:18 +0000";
layers = (
{
components = (
{
name = L;
}
);
layerId = "9EA4E357-4DFB-45A6-8407-D27A22F681E3";
name = Light;
paths = (
{
closed = 1;
nodes = (
"248 887 LINE",
"188 926 LINE",
"101 780 LINE",
"146 751 LINE"
);
}
);
width = 599;
}
);
note = Lacute;
unicode = 0139;
},
{
glyphname = Lcaron;
lastChange = "2015-07-30 07:35:18 +0000";
layers = (
{
components = (
{
name = L;
}
);
layerId = "9EA4E357-4DFB-45A6-8407-D27A22F681E3";
name = Light;
paths = (
{
closed = 1;
nodes = (
"442 559 OFFCURVE",
"473 627 OFFCURVE",
"488 684 CURVE",
"413 702 LINE SMOOTH",
"392 707 OFFCURVE",
"377 698 OFFCURVE",
"377 679 CURVE SMOOTH",
"377 671 OFFCURVE",
"382 666 OFFCURVE",
"389 664 CURVE",
"418 654 LINE",
"414 622 OFFCURVE",
"389 568 OFFCURVE",
"365 532 CURVE",
"400 510 LINE"
);
}
);
width = 599;
}
);
note = Lcaron;
unicode = 013D;
},
{
glyphname = Lcommaaccent;
lastChange = "2015-07-30 07:35:18 +0000";
layers = (
{
components = (
{
name = L;
}
);
layerId = "9EA4E357-4DFB-45A6-8407-D27A22F681E3";
name = Light;
paths = (
{
closed = 1;
nodes = (
"358 -189 OFFCURVE",
"389 -121 OFFCURVE",
"404 -64 CURVE",
"329 -46 LINE SMOOTH",
"308 -41 OFFCURVE",
"293 -50 OFFCURVE",
"293 -69 CURVE SMOOTH",
"293 -77 OFFCURVE",
"298 -82 OFFCURVE",
"305 -84 CURVE SMOOTH",
"334 -94 LINE",
"330 -126 OFFCURVE",
"305 -180 OFFCURVE",
"281 -216 CURVE",
"316 -238 LINE"
);
}
);
width = 599;
}
);
note = Lcommaaccent;
unicode = 013B;
},
{
glyphname = Ldot;
lastChange = "2015-07-30 07:35:18 +0000";
layers = (
{
components = (
{
name = L;
}
);
layerId = "9EA4E357-4DFB-45A6-8407-D27A22F681E3";
name = Light;
paths = (
{
closed = 1;
nodes = (
"462 331 OFFCURVE",
"484 352 OFFCURVE",
"484 380 CURVE SMOOTH",
"484 409 OFFCURVE",
"462 430 OFFCURVE",
"435 430 CURVE SMOOTH",
"408 430 OFFCURVE",
"386 409 OFFCURVE",
"386 380 CURVE SMOOTH",
"386 352 OFFCURVE",
"408 331 OFFCURVE",
"435 331 CURVE SMOOTH"
);
}
);
width = 599;
}
);
note = Ldot;
unicode = 013F;
},
{
glyphname = Ldotbelow;
lastChange = "2015-07-30 07:35:19 +0000";
layers = (
{
components = (
{
name = L;
}
);
layerId = "9EA4E357-4DFB-45A6-8407-D27A22F681E3";
name = Light;
paths = (
{
closed = 1;
nodes = (
"366 -164 OFFCURVE",
"388 -143 OFFCURVE",
"388 -115 CURVE SMOOTH",
"388 -86 OFFCURVE",
"366 -65 OFFCURVE",
"339 -65 CURVE SMOOTH",
"312 -65 OFFCURVE",
"290 -86 OFFCURVE",
"290 -115 CURVE SMOOTH",
"290 -143 OFFCURVE",
"312 -164 OFFCURVE",
"339 -164 CURVE SMOOTH"
);
}
);
width = 599;
}
);
note = Ldotbelow;
unicode = 1E36;
},
{
glyphname = Ldotbelowmacron;
lastChange = "2015-07-30 07:35:19 +0000";
layers = (
{
components = (
{
name = L;
}
);
layerId = "9EA4E357-4DFB-45A6-8407-D27A22F681E3";
name = Light;
paths = (
{
closed = 1;
nodes = (
"317 778 LINE",
"317 833 LINE",
"35 833 LINE",
"35 778 LINE"
);
},
{
closed = 1;
nodes = (
"369 -164 OFFCURVE",
"391 -143 OFFCURVE",
"391 -115 CURVE SMOOTH",
"391 -86 OFFCURVE",
"369 -65 OFFCURVE",
"342 -65 CURVE SMOOTH",
"315 -65 OFFCURVE",
"293 -86 OFFCURVE",
"293 -115 CURVE SMOOTH",
"293 -143 OFFCURVE",
"315 -164 OFFCURVE",
"342 -164 CURVE SMOOTH"
);
}
);
width = 601;
}
);
note = Ldotbelowmacron;
unicode = 1E38;
},
{
glyphname = Llinebelow;
lastChange = "2015-07-30 07:35:19 +0000";
layers = (
{
components = (
{
name = L;
}
);
layerId = "9EA4E357-4DFB-45A6-8407-D27A22F681E3";
name = Light;
paths = (
{
closed = 1;
nodes = (
"552 -141 LINE",
"552 -88 LINE",
"114 -88 LINE",
"114 -141 LINE"
);
}
);
width = 599;
}
);
note = Llinebelow;
unicode = 1E3A;
},
{
glyphname = Lslash;
lastChange = "2015-07-30 07:35:18 +0000";
layers = (
{
layerId = "9EA4E357-4DFB-45A6-8407-D27A22F681E3";
name = Light;
paths = (
{
closed = 1;
nodes = (
"598 0 LINE",
"598 143 LINE SMOOTH",
"598 152 OFFCURVE",
"594 158 OFFCURVE",
"583 158 CURVE SMOOTH",
"570 158 OFFCURVE",
"561 146 OFFCURVE",
"555 117 CURVE SMOOTH",
"542 54 LINE",
"227 54 LINE",
"227 336 LINE",
"399 442 LINE",
"371 488 LINE",
"227 399 LINE",
"227 645 LINE",
"280 657 LINE SMOOTH",
"299 662 OFFCURVE",
"308 669 OFFCURVE",
"308 682 CURVE SMOOTH",
"308 689 OFFCURVE",
"305 695 OFFCURVE",
"296 695 CURVE SMOOTH",
"114 695 LINE SMOOTH",
"92 695 OFFCURVE",
"78 685 OFFCURVE",
"78 667 CURVE SMOOTH",
"78 654 OFFCURVE",
"84 646 OFFCURVE",
"95 646 CURVE SMOOTH",
"147 646 LINE",
"147 350 LINE",
"59 296 LINE",
"86 249 LINE",
"147 287 LINE",
"147 54 LINE",
"114 48 LINE SMOOTH",
"88 43 OFFCURVE",
"76 34 OFFCURVE",
"76 17 CURVE SMOOTH",
"76 6 OFFCURVE",
"82 0 OFFCURVE",
"90 0 CURVE SMOOTH"
);
}
);
width = 617;
}
);
note = Lslash;
unicode = 0141;
},
{
glyphname = M;
lastChange = "2015-07-30 07:35:18 +0000";
layers = (
{
layerId = "9EA4E357-4DFB-45A6-8407-D27A22F681E3";
name = Light;
paths = (
{
closed = 1;
nodes = (
"231 0 LINE SMOOTH",
"239 0 OFFCURVE",
"242 6 OFFCURVE",
"242 14 CURVE SMOOTH",
"242 26 OFFCURVE",
"235 34 OFFCURVE",
"214 38 CURVE SMOOTH",
"157 50 LINE",
"260 574 LINE SMOOTH",
"265 600 OFFCURVE",
"268 638 OFFCURVE",
"268 638 CURVE",
"273 638 LINE",
"273 638 OFFCURVE",
"280 600 OFFCURVE",
"288 574 CURVE SMOOTH",
"462 0 LINE",
"555 0 LINE",
"717 574 LINE SMOOTH",
"724 600 OFFCURVE",
"732 638 OFFCURVE",
"732 638 CURVE",
"737 638 LINE",
"737 638 OFFCURVE",
"740 600 OFFCURVE",
"746 574 CURVE SMOOTH",
"858 49 LINE",
"814 49 LINE SMOOTH",
"792 49 OFFCURVE",
"777 39 OFFCURVE",
"777 21 CURVE SMOOTH",
"777 8 OFFCURVE",
"784 0 OFFCURVE",
"794 0 CURVE SMOOTH",
"997 0 LINE SMOOTH",
"1006 0 OFFCURVE",
"1008 7 OFFCURVE",
"1008 15 CURVE SMOOTH",
"1008 28 OFFCURVE",
"999 36 OFFCURVE",
"981 40 CURVE SMOOTH",
"937 50 LINE",
"809 641 LINE",
"842 646 LINE SMOOTH",
"867 650 OFFCURVE",
"879 660 OFFCURVE",
"879 677 CURVE SMOOTH",
"879 690 OFFCURVE",
"873 695 OFFCURVE",
"865 695 CURVE SMOOTH",
"689 695 LINE",
"539 166 LINE SMOOTH",
"528 123 OFFCURVE",
"520 59 OFFCURVE",
"520 59 CURVE SMOOTH",
"514 59 LINE SMOOTH",
"514 59 OFFCURVE",
"506 123 OFFCURVE",
"494 166 CURVE SMOOTH",
"334 695 LINE",
"158 695 LINE SMOOTH",
"150 695 OFFCURVE",
"144 690 OFFCURVE",
"144 677 CURVE SMOOTH",
"144 660 OFFCURVE",
"155 650 OFFCURVE",
"181 646 CURVE SMOOTH",
"214 641 LINE",
"96 49 LINE",
"64 49 LINE SMOOTH",
"41 49 OFFCURVE",
"27 39 OFFCURVE",
"27 21 CURVE SMOOTH",
"27 8 OFFCURVE",
"33 0 OFFCURVE",
"44 0 CURVE SMOOTH"
);
}
);
width = 1032;
}
);
note = M;
unicode = 004D;
},
{
glyphname = Mdotbelow;
lastChange = "2015-07-30 07:35:19 +0000";
layers = (
{
components = (
{
name = M;
}
);
layerId = "9EA4E357-4DFB-45A6-8407-D27A22F681E3";
name = Light;
paths = (
{
closed = 1;
nodes = (
"536 -164 OFFCURVE",
"558 -143 OFFCURVE",
"558 -115 CURVE SMOOTH",
"558 -86 OFFCURVE",
"536 -65 OFFCURVE",
"509 -65 CURVE SMOOTH",
"482 -65 OFFCURVE",
"460 -86 OFFCURVE",
"460 -115 CURVE SMOOTH",
"460 -143 OFFCURVE",
"482 -164 OFFCURVE",
"509 -164 CURVE SMOOTH"
);
}
);
width = 1032;
}
);
note = Mdotbelow;
unicode = 1E42;
},
{
glyphname = N;
lastChange = "2015-07-30 07:35:18 +0000";
layers = (
{
layerId = "9EA4E357-4DFB-45A6-8407-D27A22F681E3";
name = Light;
paths = (
{
closed = 1;
nodes = (
"259 0 LINE SMOOTH",
"268 0 OFFCURVE",
"270 6 OFFCURVE",
"270 13 CURVE SMOOTH",
"270 26 OFFCURVE",
"263 34 OFFCURVE",
"243 38 CURVE SMOOTH",
"190 50 LINE",
"190 590 LINE",
"205 554 OFFCURVE",
"218 529 OFFCURVE",
"237 502 CURVE SMOOTH",
"585 0 LINE",
"660 0 LINE",
"660 645 LINE",
"703 656 LINE SMOOTH",
"721 660 OFFCURVE",
"732 670 OFFCURVE",
"732 682 CURVE SMOOTH",
"732 689 OFFCURVE",
"730 695 OFFCURVE",
"721 695 CURVE SMOOTH",
"556 695 LINE SMOOTH",
"534 695 OFFCURVE",
"520 685 OFFCURVE",
"520 667 CURVE SMOOTH",
"520 654 OFFCURVE",
"526 646 OFFCURVE",
"537 646 CURVE SMOOTH",
"597 646 LINE",
"597 103 LINE",
"580 141 OFFCURVE",
"564 171 OFFCURVE",
"543 202 CURVE SMOOTH",
"201 695 LINE",
"73 695 LINE SMOOTH",
"65 695 OFFCURVE",
"58 690 OFFCURVE",
"58 677 CURVE SMOOTH",
"58 660 OFFCURVE",
"67 650 OFFCURVE",
"95 646 CURVE SMOOTH",
"127 641 LINE",
"127 49 LINE",
"95 49 LINE SMOOTH",
"72 49 OFFCURVE",
"58 39 OFFCURVE",
"58 21 CURVE SMOOTH",
"58 8 OFFCURVE",
"64 0 OFFCURVE",
"75 0 CURVE SMOOTH"
);
}
);
width = 788;
}
);
note = N;
unicode = 004E;
},
{
glyphname = Nacute;
lastChange = "2015-07-30 07:35:18 +0000";
layers = (
{
components = (
{
name = N;
}
);
layerId = "9EA4E357-4DFB-45A6-8407-D27A22F681E3";
name = Light;
paths = (
{
closed = 1;
nodes = (
"475 887 LINE",
"415 926 LINE",
"328 780 LINE",
"373 751 LINE"
);
}
);
width = 788;
}
);
note = Nacute;
unicode = 0143;
},
{
glyphname = Ncaron;
lastChange = "2015-07-30 07:35:18 +0000";
layers = (
{
components = (
{
name = N;
}
);
layerId = "9EA4E357-4DFB-45A6-8407-D27A22F681E3";
name = Light;
paths = (
{
closed = 1;
nodes = (
"413 751 LINE",
"520 887 LINE",
"483 917 LINE",
"392 818 LINE",
"301 917 LINE",
"264 887 LINE",
"371 751 LINE"
);
}
);
width = 788;
}
);
note = Ncaron;
unicode = 0147;
},
{
glyphname = Ncommaaccent;
lastChange = "2015-07-30 07:35:18 +0000";
layers = (
{
components = (
{
name = N;
}
);
layerId = "9EA4E357-4DFB-45A6-8407-D27A22F681E3";
name = Light;
paths = (
{
closed = 1;
nodes = (
"409 -189 OFFCURVE",
"440 -121 OFFCURVE",
"455 -64 CURVE",
"380 -46 LINE SMOOTH",
"359 -41 OFFCURVE",
"344 -50 OFFCURVE",
"344 -69 CURVE SMOOTH",
"344 -77 OFFCURVE",
"349 -82 OFFCURVE",
"356 -84 CURVE SMOOTH",
"385 -94 LINE",
"381 -126 OFFCURVE",
"356 -180 OFFCURVE",
"332 -216 CURVE",
"367 -238 LINE"
);
}
);
width = 788;
}
);
note = Ncommaaccent;
unicode = 0145;
},
{
glyphname = Ndotaccent;
lastChange = "2015-07-30 07:35:19 +0000";
layers = (
{
components = (
{
name = N;
}
);
layerId = "9EA4E357-4DFB-45A6-8407-D27A22F681E3";
name = Light;
paths = (
{
closed = 1;
nodes = (
"420 768 OFFCURVE",
"442 789 OFFCURVE",
"442 817 CURVE SMOOTH",
"442 845 OFFCURVE",
"420 866 OFFCURVE",
"393 866 CURVE SMOOTH",
"366 866 OFFCURVE",
"344 845 OFFCURVE",
"344 817 CURVE SMOOTH",
"344 789 OFFCURVE",
"366 768 OFFCURVE",
"393 768 CURVE SMOOTH"
);
}
);
width = 788;
}
);
note = Ndotaccent;
unicode = 1E44;
},
{
glyphname = Ndotbelow;
lastChange = "2015-07-30 07:35:19 +0000";
layers = (
{
components = (
{
name = N;
}
);
layerId = "9EA4E357-4DFB-45A6-8407-D27A22F681E3";
name = Light;
paths = (
{
closed = 1;
nodes = (
"425 -164 OFFCURVE",
"447 -143 OFFCURVE",
"447 -115 CURVE SMOOTH",
"447 -86 OFFCURVE",
"425 -65 OFFCURVE",
"398 -65 CURVE SMOOTH",
"371 -65 OFFCURVE",
"349 -86 OFFCURVE",
"349 -115 CURVE SMOOTH",
"349 -143 OFFCURVE",
"371 -164 OFFCURVE",
"398 -164 CURVE SMOOTH"
);
}
);
width = 788;
}
);
note = Ndotbelow;
unicode = 1E46;
},
{
glyphname = Eng;
lastChange = "2015-07-30 07:35:18 +0000";
layers = (
{
layerId = "9EA4E357-4DFB-45A6-8407-D27A22F681E3";
name = Light;
paths = (
{
closed = 1;
nodes = (
"560 -203 OFFCURVE",
"660 -149 OFFCURVE",
"660 -20 CURVE SMOOTH",
"660 645 LINE",
"704 656 LINE SMOOTH",
"720 660 OFFCURVE",
"733 670 OFFCURVE",
"733 682 CURVE SMOOTH",
"733 689 OFFCURVE",
"731 695 OFFCURVE",
"721 695 CURVE SMOOTH",
"557 695 LINE SMOOTH",
"534 695 OFFCURVE",
"521 685 OFFCURVE",
"521 667 CURVE SMOOTH",
"521 654 OFFCURVE",
"527 646 OFFCURVE",
"538 646 CURVE SMOOTH",
"597 646 LINE",
"597 107 LINE",
"582 137 OFFCURVE",
"567 166 OFFCURVE",
"543 202 CURVE SMOOTH",
"201 695 LINE",
"73 695 LINE SMOOTH",
"65 695 OFFCURVE",
"58 690 OFFCURVE",
"58 677 CURVE SMOOTH",
"58 660 OFFCURVE",
"68 650 OFFCURVE",
"95 646 CURVE SMOOTH",
"127 641 LINE",
"127 49 LINE",
"96 49 LINE SMOOTH",
"73 49 OFFCURVE",
"59 39 OFFCURVE",
"59 21 CURVE SMOOTH",
"59 8 OFFCURVE",
"65 0 OFFCURVE",
"76 0 CURVE SMOOTH",
"259 0 LINE SMOOTH",
"269 0 OFFCURVE",
"271 6 OFFCURVE",
"271 13 CURVE SMOOTH",
"271 26 OFFCURVE",
"264 34 OFFCURVE",
"244 38 CURVE SMOOTH",
"190 50 LINE",
"190 586 LINE",
"205 553 OFFCURVE",
"218 529 OFFCURVE",
"237 502 CURVE SMOOTH",
"585 0 LINE",
"585 -23 LINE SMOOTH",
"585 -110 OFFCURVE",
"537 -152 OFFCURVE",
"459 -167 CURVE",
"477 -215 LINE"
);
}
);
width = 789;
}
);
note = Eng;
unicode = 014A;
},
{
glyphname = Nlinebelow;
lastChange = "2015-07-30 07:35:19 +0000";
layers = (
{
components = (
{
name = N;
}
);
layerId = "9EA4E357-4DFB-45A6-8407-D27A22F681E3";
name = Light;
paths = (
{
closed = 1;
nodes = (
"588 -141 LINE",
"588 -88 LINE",
"210 -88 LINE",
"210 -141 LINE"
);
}
);
width = 788;
}
);
note = Nlinebelow;
unicode = 1E48;
},
{
glyphname = Ntilde;
lastChange = "2015-07-30 07:35:18 +0000";
layers = (
{
components = (
{
name = N;
}
);
layerId = "9EA4E357-4DFB-45A6-8407-D27A22F681E3";
name = Light;
paths = (
{
closed = 1;
nodes = (
"477 762 OFFCURVE",
"511 781 OFFCURVE",
"538 807 CURVE",
"510 845 LINE",
"489 829 OFFCURVE",
"468 819 OFFCURVE",
"445 819 CURVE SMOOTH",
"410 819 OFFCURVE",
"371 854 OFFCURVE",
"332 854 CURVE SMOOTH",
"301 854 OFFCURVE",
"264 833 OFFCURVE",
"237 808 CURVE",
"265 771 LINE",
"286 786 OFFCURVE",
"306 797 OFFCURVE",
"331 797 CURVE SMOOTH",
"371 797 OFFCURVE",
"403 762 OFFCURVE",
"446 762 CURVE SMOOTH"
);
}
);
width = 788;
}
);
note = Ntilde;
unicode = 00D1;
},
{
glyphname = O;
lastChange = "2015-07-30 07:35:19 +0000";
layers = (
{
layerId = "9EA4E357-4DFB-45A6-8407-D27A22F681E3";
name = Light;
paths = (
{
closed = 1;
nodes = (
"557 -12 OFFCURVE",
"687 104 OFFCURVE",
"687 346 CURVE SMOOTH",
"687 588 OFFCURVE",
"557 707 OFFCURVE",
"369 707 CURVE SMOOTH",
"181 707 OFFCURVE",
"50 588 OFFCURVE",
"50 346 CURVE SMOOTH",
"50 104 OFFCURVE",
"181 -12 OFFCURVE",
"369 -12 CURVE SMOOTH"
);
},
{
closed = 1;
nodes = (
"215 42 OFFCURVE",
"131 153 OFFCURVE",
"131 346 CURVE SMOOTH",
"131 539 OFFCURVE",
"215 653 OFFCURVE",
"368 653 CURVE SMOOTH",
"522 653 OFFCURVE",
"606 539 OFFCURVE",
"606 346 CURVE SMOOTH",
"606 153 OFFCURVE",
"522 42 OFFCURVE",
"368 42 CURVE SMOOTH"
);
}
);
width = 737;
}
);
note = O;
unicode = 004F;
},
{
glyphname = Oacute;
lastChange = "2015-07-30 07:35:19 +0000";
layers = (
{
layerId = "9EA4E357-4DFB-45A6-8407-D27A22F681E3";
name = Light;
paths = (
{
closed = 1;
nodes = (
"557 -12 OFFCURVE",
"687 104 OFFCURVE",
"687 346 CURVE SMOOTH",
"687 588 OFFCURVE",
"557 707 OFFCURVE",
"369 707 CURVE SMOOTH",
"181 707 OFFCURVE",
"50 588 OFFCURVE",
"50 346 CURVE SMOOTH",
"50 104 OFFCURVE",
"181 -12 OFFCURVE",
"369 -12 CURVE SMOOTH"
);
},
{
closed = 1;
nodes = (
"215 42 OFFCURVE",
"131 153 OFFCURVE",
"131 346 CURVE SMOOTH",
"131 539 OFFCURVE",
"215 653 OFFCURVE",
"368 653 CURVE SMOOTH",
"522 653 OFFCURVE",
"606 539 OFFCURVE",
"606 346 CURVE SMOOTH",
"606 153 OFFCURVE",
"522 42 OFFCURVE",
"368 42 CURVE SMOOTH"
);
},
{
closed = 1;
nodes = (
"448 887 LINE",
"388 926 LINE",
"301 780 LINE",
"346 751 LINE"
);
}
);
width = 737;
}
);
note = Oacute;
unicode = 00D3;
},
{
glyphname = Obreve;
lastChange = "2015-07-30 07:35:19 +0000";
layers = (
{
layerId = "9EA4E357-4DFB-45A6-8407-D27A22F681E3";
name = Light;
paths = (
{
closed = 1;
nodes = (
"557 -12 OFFCURVE",
"687 104 OFFCURVE",
"687 346 CURVE SMOOTH",
"687 588 OFFCURVE",
"557 707 OFFCURVE",
"369 707 CURVE SMOOTH",
"181 707 OFFCURVE",
"50 588 OFFCURVE",
"50 346 CURVE SMOOTH",
"50 104 OFFCURVE",
"181 -12 OFFCURVE",
"369 -12 CURVE SMOOTH"
);
},
{
closed = 1;
nodes = (
"215 42 OFFCURVE",
"131 153 OFFCURVE",
"131 346 CURVE SMOOTH",
"131 539 OFFCURVE",
"215 653 OFFCURVE",
"368 653 CURVE SMOOTH",
"522 653 OFFCURVE",
"606 539 OFFCURVE",
"606 346 CURVE SMOOTH",
"606 153 OFFCURVE",
"522 42 OFFCURVE",
"368 42 CURVE SMOOTH"
);
},
{
closed = 1;
nodes = (
"431 747 OFFCURVE",
"490 780 OFFCURVE",
"514 867 CURVE",
"468 883 LINE",
"454 835 OFFCURVE",
"419 801 OFFCURVE",
"368 801 CURVE SMOOTH",
"317 801 OFFCURVE",
"282 835 OFFCURVE",
"268 883 CURVE",
"222 867 LINE",
"246 780 OFFCURVE",
"305 747 OFFCURVE",
"368 747 CURVE SMOOTH"
);
}
);
width = 737;
}
);
note = Obreve;
unicode = 014E;
},
{
glyphname = Ocaron;
lastChange = "2015-07-30 07:35:19 +0000";
layers = (
{
layerId = "9EA4E357-4DFB-45A6-8407-D27A22F681E3";
name = Light;
paths = (
{
closed = 1;
nodes = (
"557 -12 OFFCURVE",
"687 104 OFFCURVE",
"687 346 CURVE SMOOTH",
"687 588 OFFCURVE",
"557 707 OFFCURVE",
"369 707 CURVE SMOOTH",
"181 707 OFFCURVE",
"50 588 OFFCURVE",
"50 346 CURVE SMOOTH",
"50 104 OFFCURVE",
"181 -12 OFFCURVE",
"369 -12 CURVE SMOOTH"
);
},
{
closed = 1;
nodes = (
"215 42 OFFCURVE",
"131 153 OFFCURVE",
"131 346 CURVE SMOOTH",
"131 539 OFFCURVE",
"215 653 OFFCURVE",
"368 653 CURVE SMOOTH",
"522 653 OFFCURVE",
"606 539 OFFCURVE",
"606 346 CURVE SMOOTH",
"606 153 OFFCURVE",
"522 42 OFFCURVE",
"368 42 CURVE SMOOTH"
);
},
{
closed = 1;
nodes = (
"390 751 LINE",
"497 887 LINE",
"460 917 LINE",
"369 818 LINE",
"278 917 LINE",
"241 887 LINE",
"348 751 LINE"
);
}
);
width = 737;
}
);
note = Ocaron;
unicode = 01D1;
},
{
glyphname = Ocircumflex;
lastChange = "2015-07-30 07:35:19 +0000";
layers = (
{
layerId = "9EA4E357-4DFB-45A6-8407-D27A22F681E3";
name = Light;
paths = (
{
closed = 1;
nodes = (
"557 -12 OFFCURVE",
"687 104 OFFCURVE",
"687 346 CURVE SMOOTH",
"687 588 OFFCURVE",
"557 707 OFFCURVE",
"369 707 CURVE SMOOTH",
"181 707 OFFCURVE",
"50 588 OFFCURVE",
"50 346 CURVE SMOOTH",
"50 104 OFFCURVE",
"181 -12 OFFCURVE",
"369 -12 CURVE SMOOTH"
);
},
{
closed = 1;
nodes = (
"215 42 OFFCURVE",
"131 153 OFFCURVE",
"131 346 CURVE SMOOTH",
"131 539 OFFCURVE",
"215 653 OFFCURVE",
"368 653 CURVE SMOOTH",
"522 653 OFFCURVE",
"606 539 OFFCURVE",
"606 346 CURVE SMOOTH",
"606 153 OFFCURVE",
"522 42 OFFCURVE",
"368 42 CURVE SMOOTH"
);
},
{
closed = 1;
nodes = (
"369 850 LINE",
"460 751 LINE",
"497 781 LINE",
"390 917 LINE",
"348 917 LINE",
"241 781 LINE",
"278 751 LINE"
);
}
);
width = 737;
}
);
note = Ocircumflex;
unicode = 00D4;
},
{
glyphname = Ocircumflexacute;
lastChange = "2015-07-30 07:35:19 +0000";
layers = (
{
layerId = "9EA4E357-4DFB-45A6-8407-D27A22F681E3";
name = Light;
paths = (
{
closed = 1;
nodes = (
"557 -12 OFFCURVE",
"687 104 OFFCURVE",
"687 346 CURVE SMOOTH",
"687 588 OFFCURVE",
"557 707 OFFCURVE",
"369 707 CURVE SMOOTH",
"181 707 OFFCURVE",
"50 588 OFFCURVE",
"50 346 CURVE SMOOTH",
"50 104 OFFCURVE",
"181 -12 OFFCURVE",
"369 -12 CURVE SMOOTH"
);
},
{
closed = 1;
nodes = (
"215 42 OFFCURVE",
"131 153 OFFCURVE",
"131 346 CURVE SMOOTH",
"131 539 OFFCURVE",
"215 653 OFFCURVE",
"368 653 CURVE SMOOTH",
"522 653 OFFCURVE",
"606 539 OFFCURVE",
"606 346 CURVE SMOOTH",
"606 153 OFFCURVE",
"522 42 OFFCURVE",
"368 42 CURVE SMOOTH"
);
},
{
closed = 1;
nodes = (
"368 850 LINE",
"459 751 LINE",
"496 781 LINE",
"389 917 LINE",
"347 917 LINE",
"240 781 LINE",
"277 751 LINE"
);
},
{
closed = 1;
nodes = (
"579 950 LINE",
"525 985 LINE",
"462 876 LINE",
"499 851 LINE"
);
}
);
width = 737;
}
);
note = Ocircumflexacute;
unicode = 1ED0;
},
{
glyphname = Ocircumflexdotbelow;
lastChange = "2015-07-30 07:35:19 +0000";
layers = (
{
layerId = "9EA4E357-4DFB-45A6-8407-D27A22F681E3";
name = Light;
paths = (
{
closed = 1;
nodes = (
"557 -12 OFFCURVE",
"687 104 OFFCURVE",
"687 346 CURVE SMOOTH",
"687 588 OFFCURVE",
"557 707 OFFCURVE",
"369 707 CURVE SMOOTH",
"181 707 OFFCURVE",
"50 588 OFFCURVE",
"50 346 CURVE SMOOTH",
"50 104 OFFCURVE",
"181 -12 OFFCURVE",
"369 -12 CURVE SMOOTH"
);
},
{
closed = 1;
nodes = (
"396 -164 OFFCURVE",
"418 -143 OFFCURVE",
"418 -115 CURVE SMOOTH",
"418 -86 OFFCURVE",
"396 -65 OFFCURVE",
"369 -65 CURVE SMOOTH",
"342 -65 OFFCURVE",
"320 -86 OFFCURVE",
"320 -115 CURVE SMOOTH",
"320 -143 OFFCURVE",
"342 -164 OFFCURVE",
"369 -164 CURVE SMOOTH"
);
},
{
closed = 1;
nodes = (
"215 42 OFFCURVE",
"131 153 OFFCURVE",
"131 346 CURVE SMOOTH",
"131 539 OFFCURVE",
"215 653 OFFCURVE",
"368 653 CURVE SMOOTH",
"522 653 OFFCURVE",
"606 539 OFFCURVE",
"606 346 CURVE SMOOTH",
"606 153 OFFCURVE",
"522 42 OFFCURVE",
"368 42 CURVE SMOOTH"
);
},
{
closed = 1;
nodes = (
"369 850 LINE",
"460 751 LINE",
"497 781 LINE",
"390 917 LINE",
"348 917 LINE",
"241 781 LINE",
"278 751 LINE"
);
}
);
width = 737;
}
);
note = Ocircumflexdotbelow;
unicode = 1ED8;
},
{
glyphname = Ocircumflexgrave;
lastChange = "2015-07-30 07:35:19 +0000";
layers = (
{
layerId = "9EA4E357-4DFB-45A6-8407-D27A22F681E3";
name = Light;
paths = (
{
closed = 1;
nodes = (
"557 -12 OFFCURVE",
"687 104 OFFCURVE",
"687 346 CURVE SMOOTH",
"687 588 OFFCURVE",
"557 707 OFFCURVE",
"369 707 CURVE SMOOTH",
"181 707 OFFCURVE",
"50 588 OFFCURVE",
"50 346 CURVE SMOOTH",
"50 104 OFFCURVE",
"181 -12 OFFCURVE",
"369 -12 CURVE SMOOTH"
);
},
{
closed = 1;
nodes = (
"215 42 OFFCURVE",
"131 153 OFFCURVE",
"131 346 CURVE SMOOTH",
"131 539 OFFCURVE",
"215 653 OFFCURVE",
"368 653 CURVE SMOOTH",
"522 653 OFFCURVE",
"606 539 OFFCURVE",
"606 346 CURVE SMOOTH",
"606 153 OFFCURVE",
"522 42 OFFCURVE",
"368 42 CURVE SMOOTH"
);
},
{
closed = 1;
nodes = (
"277 876 LINE",
"215 985 LINE",
"160 950 LINE",
"240 851 LINE"
);
},
{
closed = 1;
nodes = (
"371 850 LINE",
"462 751 LINE",
"499 781 LINE",
"392 917 LINE",
"350 917 LINE",
"243 781 LINE",
"280 751 LINE"
);
}
);
width = 737;
}
);
note = Ocircumflexgrave;
unicode = 1ED2;
},
{
glyphname = Ocircumflexhookabove;
lastChange = "2015-07-30 07:35:19 +0000";
layers = (
{
layerId = "9EA4E357-4DFB-45A6-8407-D27A22F681E3";
name = Light;
paths = (
{
closed = 1;
nodes = (
"557 -12 OFFCURVE",
"687 104 OFFCURVE",
"687 346 CURVE SMOOTH",
"687 588 OFFCURVE",
"557 707 OFFCURVE",
"369 707 CURVE SMOOTH",
"181 707 OFFCURVE",
"50 588 OFFCURVE",
"50 346 CURVE SMOOTH",
"50 104 OFFCURVE",
"181 -12 OFFCURVE",
"369 -12 CURVE SMOOTH"
);
},
{
closed = 1;
nodes = (
"215 42 OFFCURVE",
"131 153 OFFCURVE",
"131 346 CURVE SMOOTH",
"131 539 OFFCURVE",
"215 653 OFFCURVE",
"368 653 CURVE SMOOTH",
"522 653 OFFCURVE",
"606 539 OFFCURVE",
"606 346 CURVE SMOOTH",
"606 153 OFFCURVE",
"522 42 OFFCURVE",
"368 42 CURVE SMOOTH"
);
},
{
closed = 1;
nodes = (
"372 850 LINE",
"463 751 LINE",
"500 781 LINE",
"393 917 LINE",
"351 917 LINE",
"244 781 LINE",
"281 751 LINE"
);
},
{
closed = 1;
nodes = (
"537 846 LINE",
"542 889 LINE",
"575 901 OFFCURVE",
"596 923 OFFCURVE",
"596 953 CURVE SMOOTH",
"596 992 OFFCURVE",
"564 1017 OFFCURVE",
"519 1017 CURVE SMOOTH",
"499 1017 OFFCURVE",
"475 1010 OFFCURVE",
"460 1004 CURVE",
"467 973 LINE",
"481 977 OFFCURVE",
"496 980 OFFCURVE",
"511 980 CURVE SMOOTH",
"531 980 OFFCURVE",
"543 971 OFFCURVE",
"543 953 CURVE SMOOTH",
"543 932 OFFCURVE",
"525 917 OFFCURVE",
"493 906 CURVE",
"498 846 LINE"
);
}
);
width = 737;
}
);
note = Ocircumflexhookabove;
unicode = 1ED4;
},
{
glyphname = Ocircumflextilde;
lastChange = "2015-07-30 07:35:19 +0000";
layers = (
{
layerId = "9EA4E357-4DFB-45A6-8407-D27A22F681E3";
name = Light;
paths = (
{
closed = 1;
nodes = (
"557 -12 OFFCURVE",
"687 104 OFFCURVE",
"687 346 CURVE SMOOTH",
"687 588 OFFCURVE",
"557 707 OFFCURVE",
"369 707 CURVE SMOOTH",
"181 707 OFFCURVE",
"50 588 OFFCURVE",
"50 346 CURVE SMOOTH",
"50 104 OFFCURVE",
"181 -12 OFFCURVE",
"369 -12 CURVE SMOOTH"
);
},
{
closed = 1;
nodes = (
"215 42 OFFCURVE",
"131 153 OFFCURVE",
"131 346 CURVE SMOOTH",
"131 539 OFFCURVE",
"215 653 OFFCURVE",
"368 653 CURVE SMOOTH",
"522 653 OFFCURVE",
"606 539 OFFCURVE",
"606 346 CURVE SMOOTH",
"606 153 OFFCURVE",
"522 42 OFFCURVE",
"368 42 CURVE SMOOTH"
);
},
{
closed = 1;
nodes = (
"431 747 OFFCURVE",
"490 780 OFFCURVE",
"514 867 CURVE",
"468 883 LINE",
"454 835 OFFCURVE",
"419 801 OFFCURVE",
"368 801 CURVE SMOOTH",
"317 801 OFFCURVE",
"282 835 OFFCURVE",
"268 883 CURVE",
"222 867 LINE",
"246 780 OFFCURVE",
"305 747 OFFCURVE",
"368 747 CURVE SMOOTH"
);
},
{
closed = 1;
nodes = (
"437 922 OFFCURVE",
"463 937 OFFCURVE",
"484 957 CURVE",
"462 993 LINE",
"446 981 OFFCURVE",
"430 972 OFFCURVE",
"412 972 CURVE SMOOTH",
"385 972 OFFCURVE",
"355 1000 OFFCURVE",
"325 1000 CURVE SMOOTH",
"302 1000 OFFCURVE",
"274 984 OFFCURVE",
"253 965 CURVE",
"275 929 LINE",
"290 941 OFFCURVE",
"305 950 OFFCURVE",
"325 950 CURVE SMOOTH",
"356 950 OFFCURVE",
"380 922 OFFCURVE",
"413 922 CURVE SMOOTH"
);
}
);
width = 737;
}
);
note = Ocircumflextilde;
unicode = 1ED6;
},
{
glyphname = Odieresis;
lastChange = "2015-07-30 07:35:19 +0000";
layers = (
{
layerId = "9EA4E357-4DFB-45A6-8407-D27A22F681E3";
name = Light;
paths = (
{
closed = 1;
nodes = (
"557 -12 OFFCURVE",
"687 104 OFFCURVE",
"687 346 CURVE SMOOTH",
"687 588 OFFCURVE",
"557 707 OFFCURVE",
"369 707 CURVE SMOOTH",
"181 707 OFFCURVE",
"50 588 OFFCURVE",
"50 346 CURVE SMOOTH",
"50 104 OFFCURVE",
"181 -12 OFFCURVE",
"369 -12 CURVE SMOOTH"
);
},
{
closed = 1;
nodes = (
"215 42 OFFCURVE",
"131 153 OFFCURVE",
"131 346 CURVE SMOOTH",
"131 539 OFFCURVE",
"215 653 OFFCURVE",
"368 653 CURVE SMOOTH",
"522 653 OFFCURVE",
"606 539 OFFCURVE",
"606 346 CURVE SMOOTH",
"606 153 OFFCURVE",
"522 42 OFFCURVE",
"368 42 CURVE SMOOTH"
);
},
{
closed = 1;
nodes = (
"299 762 OFFCURVE",
"321 782 OFFCURVE",
"321 811 CURVE SMOOTH",
"321 839 OFFCURVE",
"299 859 OFFCURVE",
"273 859 CURVE SMOOTH",
"246 859 OFFCURVE",
"224 839 OFFCURVE",
"224 811 CURVE SMOOTH",
"224 782 OFFCURVE",
"246 762 OFFCURVE",
"273 762 CURVE SMOOTH"
);
},
{
closed = 1;
nodes = (
"491 762 OFFCURVE",
"513 782 OFFCURVE",
"513 811 CURVE SMOOTH",
"513 839 OFFCURVE",
"491 859 OFFCURVE",
"465 859 CURVE SMOOTH",
"438 859 OFFCURVE",
"416 839 OFFCURVE",
"416 811 CURVE SMOOTH",
"416 782 OFFCURVE",
"438 762 OFFCURVE",
"465 762 CURVE SMOOTH"
);
}
);
width = 737;
}
);
note = Odieresis;
unicode = 00D6;
},
{
glyphname = Odotbelow;
lastChange = "2015-07-30 07:35:19 +0000";
layers = (
{
layerId = "9EA4E357-4DFB-45A6-8407-D27A22F681E3";
name = Light;
paths = (
{
closed = 1;
nodes = (
"557 -12 OFFCURVE",
"687 104 OFFCURVE",
"687 346 CURVE SMOOTH",
"687 588 OFFCURVE",
"557 707 OFFCURVE",
"369 707 CURVE SMOOTH",
"181 707 OFFCURVE",
"50 588 OFFCURVE",
"50 346 CURVE SMOOTH",
"50 104 OFFCURVE",
"181 -12 OFFCURVE",
"369 -12 CURVE SMOOTH"
);
},
{
closed = 1;
nodes = (
"396 -164 OFFCURVE",
"418 -143 OFFCURVE",
"418 -115 CURVE SMOOTH",
"418 -86 OFFCURVE",
"396 -65 OFFCURVE",
"369 -65 CURVE SMOOTH",
"342 -65 OFFCURVE",
"320 -86 OFFCURVE",
"320 -115 CURVE SMOOTH",
"320 -143 OFFCURVE",
"342 -164 OFFCURVE",
"369 -164 CURVE SMOOTH"
);
},
{
closed = 1;
nodes = (
"215 42 OFFCURVE",
"131 153 OFFCURVE",
"131 346 CURVE SMOOTH",
"131 539 OFFCURVE",
"215 653 OFFCURVE",
"368 653 CURVE SMOOTH",
"522 653 OFFCURVE",
"606 539 OFFCURVE",
"606 346 CURVE SMOOTH",
"606 153 OFFCURVE",
"522 42 OFFCURVE",
"368 42 CURVE SMOOTH"
);
}
);
width = 737;
}
);
note = Odotbelow;
unicode = 1ECC;
},
{
glyphname = Ograve;
lastChange = "2015-07-30 07:35:19 +0000";
layers = (
{
layerId = "9EA4E357-4DFB-45A6-8407-D27A22F681E3";
name = Light;
paths = (
{
closed = 1;
nodes = (
"557 -12 OFFCURVE",
"687 104 OFFCURVE",
"687 346 CURVE SMOOTH",
"687 588 OFFCURVE",
"557 707 OFFCURVE",
"369 707 CURVE SMOOTH",
"181 707 OFFCURVE",
"50 588 OFFCURVE",
"50 346 CURVE SMOOTH",
"50 104 OFFCURVE",
"181 -12 OFFCURVE",
"369 -12 CURVE SMOOTH"
);
},
{
closed = 1;
nodes = (
"215 42 OFFCURVE",
"131 153 OFFCURVE",
"131 346 CURVE SMOOTH",
"131 539 OFFCURVE",
"215 653 OFFCURVE",
"368 653 CURVE SMOOTH",
"522 653 OFFCURVE",
"606 539 OFFCURVE",
"606 346 CURVE SMOOTH",
"606 153 OFFCURVE",
"522 42 OFFCURVE",
"368 42 CURVE SMOOTH"
);
},
{
closed = 1;
nodes = (
"424 781 LINE",
"337 927 LINE",
"277 888 LINE",
"379 752 LINE"
);
}
);
width = 737;
}
);
note = Ograve;
unicode = 00D2;
},
{
glyphname = Ohookabove;
lastChange = "2015-07-30 07:35:19 +0000";
layers = (
{
layerId = "9EA4E357-4DFB-45A6-8407-D27A22F681E3";
name = Light;
paths = (
{
closed = 1;
nodes = (
"557 -12 OFFCURVE",
"687 104 OFFCURVE",
"687 346 CURVE SMOOTH",
"687 588 OFFCURVE",
"557 707 OFFCURVE",
"369 707 CURVE SMOOTH",
"181 707 OFFCURVE",
"50 588 OFFCURVE",
"50 346 CURVE SMOOTH",
"50 104 OFFCURVE",
"181 -12 OFFCURVE",
"369 -12 CURVE SMOOTH"
);
},
{
closed = 1;
nodes = (
"215 42 OFFCURVE",
"131 153 OFFCURVE",
"131 346 CURVE SMOOTH",
"131 539 OFFCURVE",
"215 653 OFFCURVE",
"368 653 CURVE SMOOTH",
"522 653 OFFCURVE",
"606 539 OFFCURVE",
"606 346 CURVE SMOOTH",
"606 153 OFFCURVE",
"522 42 OFFCURVE",
"368 42 CURVE SMOOTH"
);
},
{
closed = 1;
nodes = (
"391 750 LINE",
"397 795 LINE",
"432 807 OFFCURVE",
"453 832 OFFCURVE",
"453 863 CURVE SMOOTH",
"453 903 OFFCURVE",
"419 929 OFFCURVE",
"373 929 CURVE SMOOTH",
"351 929 OFFCURVE",
"326 922 OFFCURVE",
"311 916 CURVE",
"318 883 LINE",
"332 887 OFFCURVE",
"349 891 OFFCURVE",
"365 891 CURVE SMOOTH",
"386 891 OFFCURVE",
"398 881 OFFCURVE",
"398 862 CURVE SMOOTH",
"398 840 OFFCURVE",
"380 825 OFFCURVE",
"346 813 CURVE",
"352 750 LINE"
);
}
);
width = 737;
}
);
note = Ohookabove;
unicode = 1ECE;
},
{
glyphname = Ohorn;
lastChange = "2015-07-30 07:35:19 +0000";
layers = (
{
layerId = "9EA4E357-4DFB-45A6-8407-D27A22F681E3";
name = Light;
paths = (
{
closed = 1;
nodes = (
"557 -12 OFFCURVE",
"687 104 OFFCURVE",
"687 346 CURVE SMOOTH",
"687 453 OFFCURVE",
"662 535 OFFCURVE",
"619 594 CURVE",
"677 627 OFFCURVE",
"726 679 OFFCURVE",
"726 765 CURVE",
"646 765 LINE",
"646 702 OFFCURVE",
"622 658 OFFCURVE",
"579 635 CURVE",
"525 682 OFFCURVE",
"452 707 OFFCURVE",
"369 707 CURVE SMOOTH",
"181 707 OFFCURVE",
"50 588 OFFCURVE",
"50 346 CURVE SMOOTH",
"50 104 OFFCURVE",
"181 -12 OFFCURVE",
"369 -12 CURVE SMOOTH"
);
},
{
closed = 1;
nodes = (
"215 42 OFFCURVE",
"131 153 OFFCURVE",
"131 346 CURVE SMOOTH",
"131 539 OFFCURVE",
"215 653 OFFCURVE",
"368 653 CURVE SMOOTH",
"522 653 OFFCURVE",
"606 539 OFFCURVE",
"606 346 CURVE SMOOTH",
"606 153 OFFCURVE",
"522 42 OFFCURVE",
"368 42 CURVE SMOOTH"
);
}
);
width = 765;
}
);
note = Ohorn;
unicode = 01A0;
},
{
glyphname = Ohornacute;
lastChange = "2015-07-30 07:35:19 +0000";
layers = (
{
layerId = "9EA4E357-4DFB-45A6-8407-D27A22F681E3";
name = Light;
paths = (
{
closed = 1;
nodes = (
"557 -12 OFFCURVE",
"687 104 OFFCURVE",
"687 346 CURVE SMOOTH",
"687 453 OFFCURVE",
"662 535 OFFCURVE",
"619 594 CURVE",
"677 627 OFFCURVE",
"726 679 OFFCURVE",
"726 765 CURVE",
"646 765 LINE",
"646 702 OFFCURVE",
"622 658 OFFCURVE",
"579 635 CURVE",
"525 682 OFFCURVE",
"452 707 OFFCURVE",
"369 707 CURVE SMOOTH",
"181 707 OFFCURVE",
"50 588 OFFCURVE",
"50 346 CURVE SMOOTH",
"50 104 OFFCURVE",
"181 -12 OFFCURVE",
"369 -12 CURVE SMOOTH"
);
},
{
closed = 1;
nodes = (
"215 42 OFFCURVE",
"131 153 OFFCURVE",
"131 346 CURVE SMOOTH",
"131 539 OFFCURVE",
"215 653 OFFCURVE",
"368 653 CURVE SMOOTH",
"522 653 OFFCURVE",
"606 539 OFFCURVE",
"606 346 CURVE SMOOTH",
"606 153 OFFCURVE",
"522 42 OFFCURVE",
"368 42 CURVE SMOOTH"
);
},
{
closed = 1;
nodes = (
"442 887 LINE",
"382 926 LINE",
"295 780 LINE",
"340 751 LINE"
);
}
);
width = 765;
}
);
note = Ohornacute;
unicode = 1EDA;
},
{
glyphname = Ohorndotbelow;
lastChange = "2015-07-30 07:35:19 +0000";
layers = (
{
layerId = "9EA4E357-4DFB-45A6-8407-D27A22F681E3";
name = Light;
paths = (
{
closed = 1;
nodes = (
"557 -12 OFFCURVE",
"687 104 OFFCURVE",
"687 346 CURVE SMOOTH",
"687 453 OFFCURVE",
"662 535 OFFCURVE",
"619 594 CURVE",
"677 627 OFFCURVE",
"726 679 OFFCURVE",
"726 765 CURVE",
"646 765 LINE",
"646 702 OFFCURVE",
"622 658 OFFCURVE",
"579 635 CURVE",
"525 682 OFFCURVE",
"452 707 OFFCURVE",
"369 707 CURVE SMOOTH",
"181 707 OFFCURVE",
"50 588 OFFCURVE",
"50 346 CURVE SMOOTH",
"50 104 OFFCURVE",
"181 -12 OFFCURVE",
"369 -12 CURVE SMOOTH"
);
},
{
closed = 1;
nodes = (
"398 -164 OFFCURVE",
"420 -143 OFFCURVE",
"420 -115 CURVE SMOOTH",
"420 -86 OFFCURVE",
"398 -65 OFFCURVE",
"371 -65 CURVE SMOOTH",
"344 -65 OFFCURVE",
"322 -86 OFFCURVE",
"322 -115 CURVE SMOOTH",
"322 -143 OFFCURVE",
"344 -164 OFFCURVE",
"371 -164 CURVE SMOOTH"
);
},
{
closed = 1;
nodes = (
"215 42 OFFCURVE",
"131 153 OFFCURVE",
"131 346 CURVE SMOOTH",
"131 539 OFFCURVE",
"215 653 OFFCURVE",
"368 653 CURVE SMOOTH",
"522 653 OFFCURVE",
"606 539 OFFCURVE",
"606 346 CURVE SMOOTH",
"606 153 OFFCURVE",
"522 42 OFFCURVE",
"368 42 CURVE SMOOTH"
);
}
);
width = 765;
}
);
note = Ohorndotbelow;
unicode = 1EE2;
},
{
glyphname = Ohorngrave;
lastChange = "2015-07-30 07:35:19 +0000";
layers = (
{
layerId = "9EA4E357-4DFB-45A6-8407-D27A22F681E3";
name = Light;
paths = (
{
closed = 1;
nodes = (
"557 -12 OFFCURVE",
"687 104 OFFCURVE",
"687 346 CURVE SMOOTH",
"687 453 OFFCURVE",
"662 535 OFFCURVE",
"619 594 CURVE",
"677 627 OFFCURVE",
"726 679 OFFCURVE",
"726 765 CURVE",
"646 765 LINE",
"646 702 OFFCURVE",
"622 658 OFFCURVE",
"579 635 CURVE",
"525 682 OFFCURVE",
"452 707 OFFCURVE",
"369 707 CURVE SMOOTH",
"181 707 OFFCURVE",
"50 588 OFFCURVE",
"50 346 CURVE SMOOTH",
"50 104 OFFCURVE",
"181 -12 OFFCURVE",
"369 -12 CURVE SMOOTH"
);
},
{
closed = 1;
nodes = (
"215 42 OFFCURVE",
"131 153 OFFCURVE",
"131 346 CURVE SMOOTH",
"131 539 OFFCURVE",
"215 653 OFFCURVE",
"368 653 CURVE SMOOTH",
"522 653 OFFCURVE",
"606 539 OFFCURVE",
"606 346 CURVE SMOOTH",
"606 153 OFFCURVE",
"522 42 OFFCURVE",
"368 42 CURVE SMOOTH"
);
},
{
closed = 1;
nodes = (
"432 781 LINE",
"345 927 LINE",
"285 888 LINE",
"387 752 LINE"
);
}
);
width = 765;
}
);
note = Ohorngrave;
unicode = 1EDC;
},
{
glyphname = Ohornhookabove;
lastChange = "2015-07-30 07:35:19 +0000";
layers = (
{
layerId = "9EA4E357-4DFB-45A6-8407-D27A22F681E3";
name = Light;
paths = (
{
closed = 1;
nodes = (
"557 -12 OFFCURVE",
"687 104 OFFCURVE",
"687 346 CURVE SMOOTH",
"687 453 OFFCURVE",
"662 535 OFFCURVE",
"619 594 CURVE",
"677 627 OFFCURVE",
"726 679 OFFCURVE",
"726 765 CURVE",
"646 765 LINE",
"646 702 OFFCURVE",
"622 658 OFFCURVE",
"579 635 CURVE",
"525 682 OFFCURVE",
"452 707 OFFCURVE",
"369 707 CURVE SMOOTH",
"181 707 OFFCURVE",
"50 588 OFFCURVE",
"50 346 CURVE SMOOTH",
"50 104 OFFCURVE",
"181 -12 OFFCURVE",
"369 -12 CURVE SMOOTH"
);
},
{
closed = 1;
nodes = (
"215 42 OFFCURVE",
"131 153 OFFCURVE",
"131 346 CURVE SMOOTH",
"131 539 OFFCURVE",
"215 653 OFFCURVE",
"368 653 CURVE SMOOTH",
"522 653 OFFCURVE",
"606 539 OFFCURVE",
"606 346 CURVE SMOOTH",
"606 153 OFFCURVE",
"522 42 OFFCURVE",
"368 42 CURVE SMOOTH"
);
},
{
closed = 1;
nodes = (
"387 750 LINE",
"393 795 LINE",
"428 807 OFFCURVE",
"449 832 OFFCURVE",
"449 863 CURVE SMOOTH",
"449 903 OFFCURVE",
"415 929 OFFCURVE",
"369 929 CURVE SMOOTH",
"347 929 OFFCURVE",
"322 922 OFFCURVE",
"307 916 CURVE",
"314 883 LINE",
"328 887 OFFCURVE",
"345 891 OFFCURVE",
"361 891 CURVE SMOOTH",
"382 891 OFFCURVE",
"394 881 OFFCURVE",
"394 862 CURVE SMOOTH",
"394 840 OFFCURVE",
"376 825 OFFCURVE",
"342 813 CURVE",
"348 750 LINE"
);
}
);
width = 765;
}
);
note = Ohornhookabove;
unicode = 1EDE;
},
{
glyphname = Ohorntilde;
lastChange = "2015-07-30 07:35:19 +0000";
layers = (
{
layerId = "9EA4E357-4DFB-45A6-8407-D27A22F681E3";
name = Light;
paths = (
{
closed = 1;
nodes = (
"557 -12 OFFCURVE",
"687 104 OFFCURVE",
"687 346 CURVE SMOOTH",
"687 453 OFFCURVE",
"662 535 OFFCURVE",
"619 594 CURVE",
"677 627 OFFCURVE",
"726 679 OFFCURVE",
"726 765 CURVE",
"646 765 LINE",
"646 702 OFFCURVE",
"622 658 OFFCURVE",
"579 635 CURVE",
"525 682 OFFCURVE",
"452 707 OFFCURVE",
"369 707 CURVE SMOOTH",
"181 707 OFFCURVE",
"50 588 OFFCURVE",
"50 346 CURVE SMOOTH",
"50 104 OFFCURVE",
"181 -12 OFFCURVE",
"369 -12 CURVE SMOOTH"
);
},
{
closed = 1;
nodes = (
"215 42 OFFCURVE",
"131 153 OFFCURVE",
"131 346 CURVE SMOOTH",
"131 539 OFFCURVE",
"215 653 OFFCURVE",
"368 653 CURVE SMOOTH",
"522 653 OFFCURVE",
"606 539 OFFCURVE",
"606 346 CURVE SMOOTH",
"606 153 OFFCURVE",
"522 42 OFFCURVE",
"368 42 CURVE SMOOTH"
);
},
{
closed = 1;
nodes = (
"457 762 OFFCURVE",
"491 781 OFFCURVE",
"518 807 CURVE",
"490 845 LINE",
"469 829 OFFCURVE",
"448 819 OFFCURVE",
"425 819 CURVE SMOOTH",
"390 819 OFFCURVE",
"351 854 OFFCURVE",
"312 854 CURVE SMOOTH",
"281 854 OFFCURVE",
"244 833 OFFCURVE",
"217 808 CURVE",
"245 771 LINE",
"266 786 OFFCURVE",
"286 797 OFFCURVE",
"311 797 CURVE SMOOTH",
"351 797 OFFCURVE",
"383 762 OFFCURVE",
"426 762 CURVE SMOOTH"
);
}
);
width = 765;
}
);
note = Ohorntilde;
unicode = 1EE0;
},
{
glyphname = Ohungarumlaut;
lastChange = "2015-07-30 07:35:19 +0000";
layers = (
{
layerId = "9EA4E357-4DFB-45A6-8407-D27A22F681E3";
name = Light;
paths = (
{
closed = 1;
nodes = (
"557 -12 OFFCURVE",
"687 104 OFFCURVE",
"687 346 CURVE SMOOTH",
"687 588 OFFCURVE",
"557 707 OFFCURVE",
"369 707 CURVE SMOOTH",
"181 707 OFFCURVE",
"50 588 OFFCURVE",
"50 346 CURVE SMOOTH",
"50 104 OFFCURVE",
"181 -12 OFFCURVE",
"369 -12 CURVE SMOOTH"
);
},
{
closed = 1;
nodes = (
"215 42 OFFCURVE",
"131 153 OFFCURVE",
"131 346 CURVE SMOOTH",
"131 539 OFFCURVE",
"215 653 OFFCURVE",
"368 653 CURVE SMOOTH",
"522 653 OFFCURVE",
"606 539 OFFCURVE",
"606 346 CURVE SMOOTH",
"606 153 OFFCURVE",
"522 42 OFFCURVE",
"368 42 CURVE SMOOTH"
);
},
{
closed = 1;
nodes = (
"413 927 LINE",
"362 958 LINE",
"250 784 LINE",
"285 760 LINE"
);
},
{
closed = 1;
nodes = (
"589 927 LINE",
"538 958 LINE",
"426 784 LINE",
"461 760 LINE"
);
}
);
width = 737;
}
);
note = Ohungarumlaut;
unicode = 0150;
},
{
glyphname = Omacron;
lastChange = "2015-07-30 07:35:19 +0000";
layers = (
{
layerId = "9EA4E357-4DFB-45A6-8407-D27A22F681E3";
name = Light;
paths = (
{
closed = 1;
nodes = (
"557 -12 OFFCURVE",
"687 104 OFFCURVE",
"687 346 CURVE SMOOTH",
"687 588 OFFCURVE",
"557 707 OFFCURVE",
"369 707 CURVE SMOOTH",
"181 707 OFFCURVE",
"50 588 OFFCURVE",
"50 346 CURVE SMOOTH",
"50 104 OFFCURVE",
"181 -12 OFFCURVE",
"369 -12 CURVE SMOOTH"
);
},
{
closed = 1;
nodes = (
"215 42 OFFCURVE",
"131 153 OFFCURVE",
"131 346 CURVE SMOOTH",
"131 539 OFFCURVE",
"215 653 OFFCURVE",
"368 653 CURVE SMOOTH",
"522 653 OFFCURVE",
"606 539 OFFCURVE",
"606 346 CURVE SMOOTH",
"606 153 OFFCURVE",
"522 42 OFFCURVE",
"368 42 CURVE SMOOTH"
);
},
{
closed = 1;
nodes = (
"509 778 LINE",
"509 833 LINE",
"227 833 LINE",
"227 778 LINE"
);
}
);
width = 737;
}
);
note = Omacron;
unicode = 014C;
},
{
glyphname = Oslash;
lastChange = "2015-07-30 07:35:19 +0000";
layers = (
{
layerId = "9EA4E357-4DFB-45A6-8407-D27A22F681E3";
name = Light;
paths = (
{
closed = 1;
nodes = (
"209 26 LINE",
"256 1 OFFCURVE",
"312 -12 OFFCURVE",
"374 -12 CURVE SMOOTH",
"562 -12 OFFCURVE",
"692 104 OFFCURVE",
"692 346 CURVE SMOOTH",
"692 473 OFFCURVE",
"656 566 OFFCURVE",
"595 626 CURVE",
"656 720 LINE",
"606 748 LINE",
"550 661 LINE",
"501 692 OFFCURVE",
"441 707 OFFCURVE",
"374 707 CURVE SMOOTH",
"186 707 OFFCURVE",
"55 588 OFFCURVE",
"55 346 CURVE SMOOTH",
"55 212 OFFCURVE",
"95 117 OFFCURVE",
"162 59 CURVE",
"88 -57 LINE",
"138 -85 LINE"
);
},
{
closed = 1;
nodes = (
"158 170 OFFCURVE",
"136 247 OFFCURVE",
"136 346 CURVE SMOOTH",
"136 539 OFFCURVE",
"220 653 OFFCURVE",
"373 653 CURVE SMOOTH",
"430 653 OFFCURVE",
"478 637 OFFCURVE",
"515 607 CURVE",
"200 118 LINE"
);
},
{
closed = 1;
nodes = (
"322 42 OFFCURVE",
"278 54 OFFCURVE",
"243 78 CURVE",
"556 564 LINE",
"592 512 OFFCURVE",
"611 438 OFFCURVE",
"611 346 CURVE SMOOTH",
"611 153 OFFCURVE",
"527 42 OFFCURVE",
"373 42 CURVE SMOOTH"
);
}
);
width = 748;
}
);
note = Oslash;
unicode = 00D8;
},
{
glyphname = Oslashacute;
lastChange = "2015-07-30 07:35:19 +0000";
layers = (
{
layerId = "9EA4E357-4DFB-45A6-8407-D27A22F681E3";
name = Light;
paths = (
{
closed = 1;
nodes = (
"209 26 LINE",
"256 1 OFFCURVE",
"312 -12 OFFCURVE",
"374 -12 CURVE SMOOTH",
"562 -12 OFFCURVE",
"692 104 OFFCURVE",
"692 346 CURVE SMOOTH",
"692 473 OFFCURVE",
"656 566 OFFCURVE",
"595 626 CURVE",
"656 720 LINE",
"606 748 LINE",
"550 661 LINE",
"501 692 OFFCURVE",
"441 707 OFFCURVE",
"374 707 CURVE SMOOTH",
"186 707 OFFCURVE",
"55 588 OFFCURVE",
"55 346 CURVE SMOOTH",
"55 212 OFFCURVE",
"95 117 OFFCURVE",
"162 59 CURVE",
"88 -57 LINE",
"138 -85 LINE"
);
},
{
closed = 1;
nodes = (
"158 170 OFFCURVE",
"136 247 OFFCURVE",
"136 346 CURVE SMOOTH",
"136 539 OFFCURVE",
"220 653 OFFCURVE",
"373 653 CURVE SMOOTH",
"430 653 OFFCURVE",
"478 637 OFFCURVE",
"515 607 CURVE",
"200 118 LINE"
);
},
{
closed = 1;
nodes = (
"322 42 OFFCURVE",
"278 54 OFFCURVE",
"243 78 CURVE",
"556 564 LINE",
"592 512 OFFCURVE",
"611 438 OFFCURVE",
"611 346 CURVE SMOOTH",
"611 153 OFFCURVE",
"527 42 OFFCURVE",
"373 42 CURVE SMOOTH"
);
},
{
closed = 1;
nodes = (
"455 887 LINE",
"395 926 LINE",
"308 780 LINE",
"353 751 LINE"
);
}
);
width = 748;
}
);
note = Oslashacute;
unicode = 01FE;
},
{
glyphname = Otilde;
lastChange = "2015-07-30 07:35:19 +0000";
layers = (
{
layerId = "9EA4E357-4DFB-45A6-8407-D27A22F681E3";
name = Light;
paths = (
{
closed = 1;
nodes = (
"557 -12 OFFCURVE",
"687 104 OFFCURVE",
"687 346 CURVE SMOOTH",
"687 588 OFFCURVE",
"557 707 OFFCURVE",
"369 707 CURVE SMOOTH",
"181 707 OFFCURVE",
"50 588 OFFCURVE",
"50 346 CURVE SMOOTH",
"50 104 OFFCURVE",
"181 -12 OFFCURVE",
"369 -12 CURVE SMOOTH"
);
},
{
closed = 1;
nodes = (
"215 42 OFFCURVE",
"131 153 OFFCURVE",
"131 346 CURVE SMOOTH",
"131 539 OFFCURVE",
"215 653 OFFCURVE",
"368 653 CURVE SMOOTH",
"522 653 OFFCURVE",
"606 539 OFFCURVE",
"606 346 CURVE SMOOTH",
"606 153 OFFCURVE",
"522 42 OFFCURVE",
"368 42 CURVE SMOOTH"
);
},
{
closed = 1;
nodes = (
"458 762 OFFCURVE",
"492 781 OFFCURVE",
"519 807 CURVE",
"491 845 LINE",
"470 829 OFFCURVE",
"449 819 OFFCURVE",
"426 819 CURVE SMOOTH",
"391 819 OFFCURVE",
"352 854 OFFCURVE",
"313 854 CURVE SMOOTH",
"282 854 OFFCURVE",
"245 833 OFFCURVE",
"218 808 CURVE",
"246 771 LINE",
"267 786 OFFCURVE",
"287 797 OFFCURVE",
"312 797 CURVE SMOOTH",
"352 797 OFFCURVE",
"384 762 OFFCURVE",
"427 762 CURVE SMOOTH"
);
}
);
width = 737;
}
);
note = Otilde;
unicode = 00D5;
},
{
glyphname = OE;
lastChange = "2015-07-30 07:35:19 +0000";
layers = (
{
layerId = "9EA4E357-4DFB-45A6-8407-D27A22F681E3";
name = Light;
paths = (
{
closed = 1;
nodes = (
"448 -12 OFFCURVE",
"494 -7 OFFCURVE",
"532 0 CURVE",
"990 0 LINE",
"990 130 LINE SMOOTH",
"990 139 OFFCURVE",
"986 145 OFFCURVE",
"975 145 CURVE SMOOTH",
"962 145 OFFCURVE",
"952 133 OFFCURVE",
"947 104 CURVE SMOOTH",
"938 53 LINE",
"588 53 LINE",
"588 329 LINE",
"870 329 LINE",
"882 284 LINE SMOOTH",
"888 264 OFFCURVE",
"894 256 OFFCURVE",
"904 256 CURVE SMOOTH",
"914 256 OFFCURVE",
"918 262 OFFCURVE",
"918 270 CURVE SMOOTH",
"918 442 LINE SMOOTH",
"918 449 OFFCURVE",
"914 455 OFFCURVE",
"904 455 CURVE SMOOTH",
"894 455 OFFCURVE",
"888 447 OFFCURVE",
"882 427 CURVE SMOOTH",
"870 382 LINE",
"588 382 LINE",
"588 642 LINE",
"925 642 LINE",
"934 595 LINE SMOOTH",
"940 565 OFFCURVE",
"948 554 OFFCURVE",
"962 554 CURVE SMOOTH",
"973 554 OFFCURVE",
"976 560 OFFCURVE",
"976 568 CURVE SMOOTH",
"976 695 LINE",
"485 695 LINE",
"455 702 OFFCURVE",
"414 707 OFFCURVE",
"383 707 CURVE SMOOTH",
"197 707 OFFCURVE",
"50 585 OFFCURVE",
"50 348 CURVE SMOOTH",
"50 100 OFFCURVE",
"207 -12 OFFCURVE",
"409 -12 CURVE SMOOTH"
);
},
{
closed = 1;
nodes = (
"244 43 OFFCURVE",
"131 152 OFFCURVE",
"131 348 CURVE SMOOTH",
"131 551 OFFCURVE",
"242 652 OFFCURVE",
"403 652 CURVE SMOOTH",
"436 652 OFFCURVE",
"475 648 OFFCURVE",
"508 640 CURVE",
"508 53 LINE",
"474 45 OFFCURVE",
"441 43 OFFCURVE",
"403 43 CURVE SMOOTH"
);
}
);
width = 1059;
}
);
note = OE;
unicode = 0152;
},
{
glyphname = P;
lastChange = "2015-07-30 07:35:19 +0000";
layers = (
{
layerId = "9EA4E357-4DFB-45A6-8407-D27A22F681E3";
name = Light;
paths = (
{
closed = 1;
nodes = (
"278 0 LINE SMOOTH",
"287 0 OFFCURVE",
"290 6 OFFCURVE",
"290 13 CURVE SMOOTH",
"290 26 OFFCURVE",
"281 33 OFFCURVE",
"259 38 CURVE SMOOTH",
"209 50 LINE",
"209 290 LINE",
"365 290 LINE SMOOTH",
"495 290 OFFCURVE",
"589 359 OFFCURVE",
"589 492 CURVE SMOOTH",
"589 625 OFFCURVE",
"495 695 OFFCURVE",
"365 695 CURVE SMOOTH",
"72 695 LINE SMOOTH",
"64 695 OFFCURVE",
"58 689 OFFCURVE",
"58 678 CURVE SMOOTH",
"58 661 OFFCURVE",
"70 652 OFFCURVE",
"96 647 CURVE SMOOTH",
"129 641 LINE",
"129 49 LINE",
"97 49 LINE SMOOTH",
"74 49 OFFCURVE",
"60 39 OFFCURVE",
"60 21 CURVE SMOOTH",
"60 8 OFFCURVE",
"66 0 OFFCURVE",
"77 0 CURVE SMOOTH"
);
},
{
closed = 1;
nodes = (
"209 641 LINE",
"360 641 LINE SMOOTH",
"456 641 OFFCURVE",
"507 580 OFFCURVE",
"507 492 CURVE SMOOTH",
"507 405 OFFCURVE",
"456 344 OFFCURVE",
"360 344 CURVE SMOOTH",
"209 344 LINE"
);
}
);
width = 617;
}
);
note = P;
unicode = 0050;
},
{
glyphname = Thorn;
lastChange = "2015-07-30 07:35:19 +0000";
layers = (
{
layerId = "9EA4E357-4DFB-45A6-8407-D27A22F681E3";
name = Light;
paths = (
{
closed = 1;
nodes = (
"272 0 LINE SMOOTH",
"281 0 OFFCURVE",
"284 6 OFFCURVE",
"284 13 CURVE SMOOTH",
"284 26 OFFCURVE",
"275 33 OFFCURVE",
"256 38 CURVE SMOOTH",
"206 50 LINE",
"206 150 LINE",
"251 136 OFFCURVE",
"298 130 OFFCURVE",
"342 130 CURVE SMOOTH",
"492 130 OFFCURVE",
"605 202 OFFCURVE",
"605 352 CURVE SMOOTH",
"605 502 OFFCURVE",
"492 574 OFFCURVE",
"342 574 CURVE SMOOTH",
"298 574 OFFCURVE",
"251 568 OFFCURVE",
"206 554 CURVE",
"206 645 LINE",
"256 657 LINE SMOOTH",
"275 662 OFFCURVE",
"284 669 OFFCURVE",
"284 682 CURVE SMOOTH",
"284 689 OFFCURVE",
"281 695 OFFCURVE",
"272 695 CURVE SMOOTH",
"94 695 LINE SMOOTH",
"72 695 OFFCURVE",
"58 685 OFFCURVE",
"58 667 CURVE SMOOTH",
"58 654 OFFCURVE",
"64 646 OFFCURVE",
"75 646 CURVE SMOOTH",
"126 646 LINE",
"126 49 LINE",
"95 49 LINE SMOOTH",
"72 49 OFFCURVE",
"58 39 OFFCURVE",
"58 21 CURVE SMOOTH",
"58 8 OFFCURVE",
"64 0 OFFCURVE",
"75 0 CURVE SMOOTH"
);
},
{
closed = 1;
nodes = (
"301 184 OFFCURVE",
"260 189 OFFCURVE",
"206 206 CURVE",
"206 499 LINE",
"260 516 OFFCURVE",
"301 521 OFFCURVE",
"342 521 CURVE SMOOTH",
"450 521 OFFCURVE",
"524 466 OFFCURVE",
"524 352 CURVE SMOOTH",
"524 238 OFFCURVE",
"450 184 OFFCURVE",
"342 184 CURVE SMOOTH"
);
}
);
width = 659;
}
);
note = Thorn;
unicode = 00DE;
},
{
glyphname = Q;
lastChange = "2015-07-30 07:35:19 +0000";
layers = (
{
layerId = "9EA4E357-4DFB-45A6-8407-D27A22F681E3";
name = Light;
paths = (
{
closed = 1;
nodes = (
"571 -157 OFFCURVE",
"585 -146 OFFCURVE",
"585 -124 CURVE SMOOTH",
"585 -106 OFFCURVE",
"574 -100 OFFCURVE",
"549 -92 CURVE SMOOTH",
"516 -82 OFFCURVE",
"486 -68 OFFCURVE",
"458 -50 CURVE SMOOTH",
"439 -38 OFFCURVE",
"420 -25 OFFCURVE",
"403 -11 CURVE",
"573 3 OFFCURVE",
"687 119 OFFCURVE",
"687 346 CURVE SMOOTH",
"687 588 OFFCURVE",
"557 707 OFFCURVE",
"369 707 CURVE SMOOTH",
"181 707 OFFCURVE",
"50 588 OFFCURVE",
"50 346 CURVE SMOOTH",
"50 118 OFFCURVE",
"166 2 OFFCURVE",
"337 -11 CURVE",
"360 -39 OFFCURVE",
"387 -67 OFFCURVE",
"415 -92 CURVE SMOOTH",
"454 -126 OFFCURVE",
"504 -157 OFFCURVE",
"547 -157 CURVE SMOOTH"
);
},
{
closed = 1;
nodes = (
"215 42 OFFCURVE",
"131 153 OFFCURVE",
"131 346 CURVE SMOOTH",
"131 539 OFFCURVE",
"215 653 OFFCURVE",
"368 653 CURVE SMOOTH",
"522 653 OFFCURVE",
"606 539 OFFCURVE",
"606 346 CURVE SMOOTH",
"606 153 OFFCURVE",
"522 42 OFFCURVE",
"368 42 CURVE SMOOTH"
);
}
);
width = 737;
}
);
note = Q;
unicode = 0051;
},
{
glyphname = R;
lastChange = "2015-07-30 07:35:19 +0000";
layers = (
{
layerId = "9EA4E357-4DFB-45A6-8407-D27A22F681E3";
name = Light;
paths = (
{
closed = 1;
nodes = (
"274 0 LINE SMOOTH",
"283 0 OFFCURVE",
"286 6 OFFCURVE",
"286 13 CURVE SMOOTH",
"286 26 OFFCURVE",
"277 33 OFFCURVE",
"258 38 CURVE SMOOTH",
"209 50 LINE",
"209 324 LINE",
"505 0 LINE",
"637 0 LINE SMOOTH",
"646 0 OFFCURVE",
"648 6 OFFCURVE",
"648 13 CURVE SMOOTH",
"648 26 OFFCURVE",
"639 34 OFFCURVE",
"620 38 CURVE SMOOTH",
"570 48 LINE",
"306 326 LINE",
"360 326 LINE SMOOTH",
"490 326 OFFCURVE",
"583 379 OFFCURVE",
"583 509 CURVE SMOOTH",
"583 640 OFFCURVE",
"490 695 OFFCURVE",
"360 695 CURVE SMOOTH",
"72 695 LINE SMOOTH",
"64 695 OFFCURVE",
"58 689 OFFCURVE",
"58 678 CURVE SMOOTH",
"58 662 OFFCURVE",
"73 656 OFFCURVE",
"96 649 CURVE",
"129 644 LINE",
"129 49 LINE",
"97 49 LINE SMOOTH",
"74 49 OFFCURVE",
"60 39 OFFCURVE",
"60 21 CURVE SMOOTH",
"60 8 OFFCURVE",
"66 0 OFFCURVE",
"77 0 CURVE SMOOTH"
);
},
{
closed = 1;
nodes = (
"209 643 LINE",
"356 643 LINE SMOOTH",
"452 643 OFFCURVE",
"501 594 OFFCURVE",
"501 509 CURVE SMOOTH",
"501 424 OFFCURVE",
"452 376 OFFCURVE",
"356 376 CURVE SMOOTH",
"209 376 LINE"
);
}
);
width = 668;
}
);
note = R;
unicode = 0052;
},
{
glyphname = Racute;
lastChange = "2015-07-30 07:35:18 +0000";
layers = (
{
components = (
{
name = R;
}
);
layerId = "9EA4E357-4DFB-45A6-8407-D27A22F681E3";
name = Light;
paths = (
{
closed = 1;
nodes = (
"411 888 LINE",
"351 927 LINE",
"264 781 LINE",
"309 752 LINE"
);
}
);
width = 668;
}
);
note = Racute;
unicode = 0154;
},
{
glyphname = Rcaron;
lastChange = "2015-07-30 07:35:18 +0000";
layers = (
{
components = (
{
name = R;
}
);
layerId = "9EA4E357-4DFB-45A6-8407-D27A22F681E3";
name = Light;
paths = (
{
closed = 1;
nodes = (
"331 751 LINE",
"438 887 LINE",
"401 917 LINE",
"310 818 LINE",
"219 917 LINE",
"182 887 LINE",
"289 751 LINE"
);
}
);
width = 668;
}
);
note = Rcaron;
unicode = 0158;
},
{
glyphname = Rcommaaccent;
lastChange = "2015-07-30 07:35:18 +0000";
layers = (
{
components = (
{
name = R;
}
);
layerId = "9EA4E357-4DFB-45A6-8407-D27A22F681E3";
name = Light;
paths = (
{
closed = 1;
nodes = (
"355 -189 OFFCURVE",
"386 -121 OFFCURVE",
"401 -64 CURVE",
"326 -46 LINE SMOOTH",
"305 -41 OFFCURVE",
"290 -50 OFFCURVE",
"290 -69 CURVE SMOOTH",
"290 -77 OFFCURVE",
"295 -82 OFFCURVE",
"302 -84 CURVE",
"331 -94 LINE",
"327 -126 OFFCURVE",
"302 -180 OFFCURVE",
"278 -216 CURVE",
"313 -238 LINE"
);
}
);
width = 668;
}
);
note = Rcommaaccent;
unicode = 0156;
},
{
glyphname = Rdotbelow;
lastChange = "2015-07-30 07:35:19 +0000";
layers = (
{
components = (
{
name = R;
}
);
layerId = "9EA4E357-4DFB-45A6-8407-D27A22F681E3";
name = Light;
paths = (
{
closed = 1;
nodes = (
"367 -164 OFFCURVE",
"389 -143 OFFCURVE",
"389 -115 CURVE SMOOTH",
"389 -86 OFFCURVE",
"367 -65 OFFCURVE",
"340 -65 CURVE SMOOTH",
"313 -65 OFFCURVE",
"291 -86 OFFCURVE",
"291 -115 CURVE SMOOTH",
"291 -143 OFFCURVE",
"313 -164 OFFCURVE",
"340 -164 CURVE SMOOTH"
);
}
);
width = 668;
}
);
note = Rdotbelow;
unicode = 1E5A;
},
{
glyphname = Rdotbelowmacron;
lastChange = "2015-07-30 07:35:19 +0000";
layers = (
{
components = (
{
name = R;
}
);
layerId = "9EA4E357-4DFB-45A6-8407-D27A22F681E3";
name = Light;
paths = (
{
closed = 1;
nodes = (
"464 778 LINE",
"464 833 LINE",
"182 833 LINE",
"182 778 LINE"
);
},
{
closed = 1;
nodes = (
"367 -164 OFFCURVE",
"389 -143 OFFCURVE",
"389 -115 CURVE SMOOTH",
"389 -86 OFFCURVE",
"367 -65 OFFCURVE",
"340 -65 CURVE SMOOTH",
"313 -65 OFFCURVE",
"291 -86 OFFCURVE",
"291 -115 CURVE SMOOTH",
"291 -143 OFFCURVE",
"313 -164 OFFCURVE",
"340 -164 CURVE SMOOTH"
);
}
);
width = 668;
}
);
note = Rdotbelowmacron;
unicode = 1E5C;
},
{
glyphname = Rlinebelow;
lastChange = "2015-07-30 07:35:19 +0000";
layers = (
{
components = (
{
name = R;
}
);
layerId = "9EA4E357-4DFB-45A6-8407-D27A22F681E3";
name = Light;
paths = (
{
closed = 1;
nodes = (
"539 -141 LINE",
"539 -88 LINE",
"161 -88 LINE",
"161 -141 LINE"
);
}
);
width = 668;
}
);
note = Rlinebelow;
unicode = 1E5E;
},
{
glyphname = S;
lastChange = "2015-07-30 07:35:18 +0000";
layers = (
{
layerId = "9EA4E357-4DFB-45A6-8407-D27A22F681E3";
name = Light;
paths = (
{
closed = 1;
nodes = (
"427 -12 OFFCURVE",
"543 38 OFFCURVE",
"543 166 CURVE SMOOTH",
"543 279 OFFCURVE",
"466 328 OFFCURVE",
"338 381 CURVE SMOOTH",
"211 435 OFFCURVE",
"136 465 OFFCURVE",
"136 544 CURVE SMOOTH",
"136 622 OFFCURVE",
"209 652 OFFCURVE",
"290 652 CURVE SMOOTH",
"352 652 OFFCURVE",
"411 637 OFFCURVE",
"449 607 CURVE",
"462 544 LINE SMOOTH",
"469 511 OFFCURVE",
"478 503 OFFCURVE",
"493 503 CURVE SMOOTH",
"504 503 OFFCURVE",
"508 509 OFFCURVE",
"508 518 CURVE SMOOTH",
"508 636 LINE",
"456 680 OFFCURVE",
"368 707 OFFCURVE",
"285 707 CURVE SMOOTH",
"170 707 OFFCURVE",
"55 659 OFFCURVE",
"55 534 CURVE SMOOTH",
"55 428 OFFCURVE",
"146 375 OFFCURVE",
"266 326 CURVE SMOOTH",
"406 270 OFFCURVE",
"462 239 OFFCURVE",
"462 159 CURVE SMOOTH",
"462 70 OFFCURVE",
"372 43 OFFCURVE",
"286 43 CURVE SMOOTH",
"229 43 OFFCURVE",
"153 57 OFFCURVE",
"111 88 CURVE",
"98 152 LINE SMOOTH",
"92 184 OFFCURVE",
"82 193 OFFCURVE",
"67 193 CURVE SMOOTH",
"57 193 OFFCURVE",
"52 186 OFFCURVE",
"52 178 CURVE SMOOTH",
"52 55 LINE",
"109 11 OFFCURVE",
"217 -12 OFFCURVE",
"292 -12 CURVE SMOOTH"
);
}
);
width = 595;
}
);
note = S;
unicode = 0053;
},
{
glyphname = Sacute;
lastChange = "2015-07-30 07:35:19 +0000";
layers = (
{
layerId = "9EA4E357-4DFB-45A6-8407-D27A22F681E3";
name = Light;
paths = (
{
closed = 1;
nodes = (
"427 -12 OFFCURVE",
"543 38 OFFCURVE",
"543 166 CURVE SMOOTH",
"543 279 OFFCURVE",
"466 328 OFFCURVE",
"338 381 CURVE SMOOTH",
"211 435 OFFCURVE",
"136 465 OFFCURVE",
"136 544 CURVE SMOOTH",
"136 622 OFFCURVE",
"209 652 OFFCURVE",
"290 652 CURVE SMOOTH",
"352 652 OFFCURVE",
"411 637 OFFCURVE",
"449 607 CURVE",
"462 544 LINE SMOOTH",
"468 513 OFFCURVE",
"478 503 OFFCURVE",
"493 503 CURVE SMOOTH",
"504 503 OFFCURVE",
"508 509 OFFCURVE",
"508 518 CURVE SMOOTH",
"508 636 LINE",
"456 680 OFFCURVE",
"368 707 OFFCURVE",
"285 707 CURVE SMOOTH",
"170 707 OFFCURVE",
"55 659 OFFCURVE",
"55 534 CURVE SMOOTH",
"55 428 OFFCURVE",
"146 375 OFFCURVE",
"266 326 CURVE SMOOTH",
"406 270 OFFCURVE",
"462 239 OFFCURVE",
"462 159 CURVE SMOOTH",
"462 70 OFFCURVE",
"372 43 OFFCURVE",
"286 43 CURVE SMOOTH",
"229 43 OFFCURVE",
"153 57 OFFCURVE",
"111 88 CURVE",
"98 152 LINE SMOOTH",
"92 184 OFFCURVE",
"82 193 OFFCURVE",
"67 193 CURVE SMOOTH",
"57 193 OFFCURVE",
"52 186 OFFCURVE",
"52 178 CURVE SMOOTH",
"52 55 LINE",
"109 11 OFFCURVE",
"217 -12 OFFCURVE",
"292 -12 CURVE SMOOTH"
);
},
{
closed = 1;
nodes = (
"368 887 LINE",
"308 926 LINE",
"221 780 LINE",
"266 751 LINE"
);
}
);
width = 595;
}
);
note = Sacute;
unicode = 015A;
},
{
glyphname = Scaron;
lastChange = "2015-07-30 07:35:18 +0000";
layers = (
{
components = (
{
name = S;
}
);
layerId = "9EA4E357-4DFB-45A6-8407-D27A22F681E3";
name = Light;
paths = (
{
closed = 1;
nodes = (
"308 751 LINE",
"415 887 LINE",
"378 917 LINE",
"287 818 LINE",
"196 917 LINE",
"159 887 LINE",
"266 751 LINE"
);
}
);
width = 595;
}
);
note = Scaron;
unicode = 0160;
},
{
glyphname = Scedilla;
lastChange = "2015-07-30 07:35:18 +0000";
layers = (
{
layerId = "9EA4E357-4DFB-45A6-8407-D27A22F681E3";
name = Light;
paths = (
{
closed = 1;
nodes = (
"293 -200 OFFCURVE",
"348 -163 OFFCURVE",
"348 -117 CURVE SMOOTH",
"348 -80 OFFCURVE",
"325 -61 OFFCURVE",
"299 -50 CURVE",
"317 -11 LINE",
"441 -6 OFFCURVE",
"543 46 OFFCURVE",
"543 166 CURVE SMOOTH",
"543 279 OFFCURVE",
"466 328 OFFCURVE",
"338 381 CURVE SMOOTH",
"211 435 OFFCURVE",
"136 465 OFFCURVE",
"136 544 CURVE SMOOTH",
"136 622 OFFCURVE",
"209 652 OFFCURVE",
"290 652 CURVE SMOOTH",
"352 652 OFFCURVE",
"411 637 OFFCURVE",
"449 607 CURVE",
"462 544 LINE SMOOTH",
"469 511 OFFCURVE",
"478 503 OFFCURVE",
"493 503 CURVE SMOOTH",
"504 503 OFFCURVE",
"508 509 OFFCURVE",
"508 518 CURVE SMOOTH",
"508 636 LINE",
"456 680 OFFCURVE",
"368 707 OFFCURVE",
"285 707 CURVE SMOOTH",
"170 707 OFFCURVE",
"55 659 OFFCURVE",
"55 534 CURVE SMOOTH",
"55 428 OFFCURVE",
"146 375 OFFCURVE",
"266 326 CURVE SMOOTH",
"406 270 OFFCURVE",
"462 239 OFFCURVE",
"462 159 CURVE SMOOTH",
"462 70 OFFCURVE",
"372 43 OFFCURVE",
"286 43 CURVE SMOOTH",
"229 43 OFFCURVE",
"153 57 OFFCURVE",
"111 88 CURVE",
"98 152 LINE SMOOTH",
"92 184 OFFCURVE",
"82 193 OFFCURVE",
"67 193 CURVE SMOOTH",
"57 193 OFFCURVE",
"52 186 OFFCURVE",
"52 178 CURVE SMOOTH",
"52 55 LINE",
"102 16 OFFCURVE",
"192 -6 OFFCURVE",
"264 -11 CURVE",
"246 -62 LINE",
"279 -72 OFFCURVE",
"291 -89 OFFCURVE",
"291 -115 CURVE SMOOTH",
"291 -143 OFFCURVE",
"269 -168 OFFCURVE",
"223 -183 CURVE",
"235 -213 LINE"
);
}
);
width = 595;
}
);
note = Scedilla;
unicode = 015E;
},
{
glyphname = Scircumflex;
lastChange = "2015-07-30 07:35:18 +0000";
layers = (
{
components = (
{
name = S;
}
);
layerId = "9EA4E357-4DFB-45A6-8407-D27A22F681E3";
name = Light;
paths = (
{
closed = 1;
nodes = (
"282 850 LINE",
"373 751 LINE",
"410 781 LINE",
"303 917 LINE",
"261 917 LINE",
"154 781 LINE",
"191 751 LINE"
);
}
);
width = 595;
}
);
note = Scircumflex;
unicode = 015C;
},
{
glyphname = Scommaaccent;
lastChange = "2015-07-30 07:35:18 +0000";
layers = (
{
components = (
{
name = S;
}
);
layerId = "9EA4E357-4DFB-45A6-8407-D27A22F681E3";
name = Light;
paths = (
{
closed = 1;
nodes = (
"310 -189 OFFCURVE",
"341 -121 OFFCURVE",
"356 -64 CURVE",
"281 -46 LINE SMOOTH",
"260 -41 OFFCURVE",
"245 -50 OFFCURVE",
"245 -69 CURVE SMOOTH",
"245 -77 OFFCURVE",
"250 -82 OFFCURVE",
"257 -84 CURVE SMOOTH",
"286 -94 LINE",
"282 -126 OFFCURVE",
"257 -180 OFFCURVE",
"233 -216 CURVE",
"268 -238 LINE"
);
}
);
width = 595;
}
);
note = Scommaaccent;
unicode = 0218;
},
{
glyphname = Sdotaccent;
lastChange = "2015-07-30 07:35:19 +0000";
layers = (
{
components = (
{
name = S;
}
);
layerId = "9EA4E357-4DFB-45A6-8407-D27A22F681E3";
name = Light;
paths = (
{
closed = 1;
nodes = (
"314 768 OFFCURVE",
"336 789 OFFCURVE",
"336 817 CURVE SMOOTH",
"336 845 OFFCURVE",
"314 866 OFFCURVE",
"287 866 CURVE SMOOTH",
"260 866 OFFCURVE",
"238 845 OFFCURVE",
"238 817 CURVE SMOOTH",
"238 789 OFFCURVE",
"260 768 OFFCURVE",
"287 768 CURVE SMOOTH"
);
}
);
width = 595;
}
);
note = Sdotaccent;
unicode = 1E60;
},
{
glyphname = Sdotbelow;
lastChange = "2015-07-30 07:35:19 +0000";
layers = (
{
components = (
{
name = S;
}
);
layerId = "9EA4E357-4DFB-45A6-8407-D27A22F681E3";
name = Light;
paths = (
{
closed = 1;
nodes = (
"321 -164 OFFCURVE",
"343 -143 OFFCURVE",
"343 -115 CURVE SMOOTH",
"343 -86 OFFCURVE",
"321 -65 OFFCURVE",
"294 -65 CURVE SMOOTH",
"267 -65 OFFCURVE",
"245 -86 OFFCURVE",
"245 -115 CURVE SMOOTH",
"245 -143 OFFCURVE",
"267 -164 OFFCURVE",
"294 -164 CURVE SMOOTH"
);
}
);
width = 595;
}
);
note = Sdotbelow;
unicode = 1E62;
},
{
glyphname = uni1E9E;
lastChange = "2015-07-30 07:35:19 +0000";
layers = (
{
layerId = "9EA4E357-4DFB-45A6-8407-D27A22F681E3";
name = Light;
paths = (
{
closed = 1;
nodes = (
"540 -12 OFFCURVE",
"607 71 OFFCURVE",
"607 175 CURVE SMOOTH",
"607 281 OFFCURVE",
"550 365 OFFCURVE",
"416 365 CURVE SMOOTH",
"403 365 LINE",
"527 530 LINE",
"515 619 OFFCURVE",
"432 677 OFFCURVE",
"327 677 CURVE SMOOTH",
"203 677 OFFCURVE",
"119 606 OFFCURVE",
"119 478 CURVE SMOOTH",
"119 47 LINE",
"86 47 LINE SMOOTH",
"66 47 OFFCURVE",
"51 39 OFFCURVE",
"51 20 CURVE SMOOTH",
"51 7 OFFCURVE",
"57 0 OFFCURVE",
"67 0 CURVE SMOOTH",
"196 0 LINE",
"196 476 LINE SMOOTH",
"196 567 OFFCURVE",
"235 623 OFFCURVE",
"329 623 CURVE SMOOTH",
"397 623 OFFCURVE",
"458 585 OFFCURVE",
"458 534 CURVE",
"340 375 LINE",
"340 313 LINE",
"401 313 LINE SMOOTH",
"494 313 OFFCURVE",
"530 251 OFFCURVE",
"530 174 CURVE SMOOTH",
"530 96 OFFCURVE",
"481 41 OFFCURVE",
"409 41 CURVE SMOOTH",
"376 41 OFFCURVE",
"347 48 OFFCURVE",
"323 60 CURVE",
"315 104 LINE SMOOTH",
"311 123 OFFCURVE",
"305 133 OFFCURVE",
"290 133 CURVE SMOOTH",
"280 133 OFFCURVE",
"275 126 OFFCURVE",
"275 119 CURVE SMOOTH",
"275 25 LINE",
"311 1 OFFCURVE",
"367 -12 OFFCURVE",
"423 -12 CURVE SMOOTH"
);
}
);
width = 662;
}
);
note = uni1E9E;
unicode = 1E9E;
},
{
glyphname = uni018F;
lastChange = "2015-07-30 07:35:19 +0000";
layers = (
{
layerId = "9EA4E357-4DFB-45A6-8407-D27A22F681E3";
name = Light;
paths = (
{
closed = 1;
nodes = (
"536 -12 OFFCURVE",
"660 124 OFFCURVE",
"660 349 CURVE SMOOTH",
"660 572 OFFCURVE",
"531 707 OFFCURVE",
"345 707 CURVE SMOOTH",
"272 707 OFFCURVE",
"204 690 OFFCURVE",
"138 654 CURVE SMOOTH",
"110 638 OFFCURVE",
"94 628 OFFCURVE",
"94 610 CURVE SMOOTH",
"94 591 OFFCURVE",
"108 583 OFFCURVE",
"120 583 CURVE SMOOTH",
"128 583 OFFCURVE",
"137 588 OFFCURVE",
"152 596 CURVE SMOOTH",
"212 632 OFFCURVE",
"276 653 OFFCURVE",
"343 653 CURVE SMOOTH",
"476 653 OFFCURVE",
"574 550 OFFCURVE",
"578 359 CURVE",
"69 359 LINE",
"59 337 OFFCURVE",
"50 299 OFFCURVE",
"50 271 CURVE SMOOTH",
"50 100 OFFCURVE",
"164 -12 OFFCURVE",
"343 -12 CURVE SMOOTH"
);
},
{
closed = 1;
nodes = (
"220 42 OFFCURVE",
"130 120 OFFCURVE",
"130 265 CURVE SMOOTH",
"130 278 OFFCURVE",
"132 295 OFFCURVE",
"136 305 CURVE",
"577 305 LINE",
"565 141 OFFCURVE",
"481 42 OFFCURVE",
"343 42 CURVE SMOOTH"
);
}
);
width = 710;
}
);
note = uni018F;
unicode = 018F;
},
{
glyphname = T;
lastChange = "2015-07-30 07:35:18 +0000";
layers = (
{
layerId = "9EA4E357-4DFB-45A6-8407-D27A22F681E3";
name = Light;
paths = (
{
closed = 1;
nodes = (
"404 0 LINE SMOOTH",
"413 0 OFFCURVE",
"416 6 OFFCURVE",
"416 13 CURVE SMOOTH",
"416 26 OFFCURVE",
"407 33 OFFCURVE",
"388 38 CURVE SMOOTH",
"338 50 LINE",
"338 641 LINE",
"510 641 LINE",
"520 588 LINE SMOOTH",
"525 563 OFFCURVE",
"532 551 OFFCURVE",
"547 551 CURVE SMOOTH",
"556 551 OFFCURVE",
"564 555 OFFCURVE",
"564 566 CURVE SMOOTH",
"564 695 LINE",
"33 695 LINE",
"33 566 LINE SMOOTH",
"33 555 OFFCURVE",
"40 551 OFFCURVE",
"50 551 CURVE SMOOTH",
"65 551 OFFCURVE",
"72 563 OFFCURVE",
"77 588 CURVE SMOOTH",
"87 641 LINE",
"258 641 LINE",
"258 49 LINE",
"227 49 LINE SMOOTH",
"204 49 OFFCURVE",
"190 39 OFFCURVE",
"190 21 CURVE SMOOTH",
"190 8 OFFCURVE",
"196 0 OFFCURVE",
"207 0 CURVE SMOOTH"
);
}
);
width = 596;
}
);
note = T;
unicode = 0054;
},
{
glyphname = Tbar;
lastChange = "2015-07-30 07:35:18 +0000";
layers = (
{
layerId = "9EA4E357-4DFB-45A6-8407-D27A22F681E3";
name = Light;
paths = (
{
closed = 1;
nodes = (
"407 0 LINE SMOOTH",
"416 0 OFFCURVE",
"419 6 OFFCURVE",
"419 13 CURVE SMOOTH",
"419 26 OFFCURVE",
"411 33 OFFCURVE",
"391 38 CURVE SMOOTH",
"341 50 LINE",
"341 335 LINE",
"491 335 LINE",
"491 390 LINE",
"341 390 LINE",
"341 641 LINE",
"513 641 LINE",
"523 586 LINE SMOOTH",
"528 561 OFFCURVE",
"535 549 OFFCURVE",
"550 549 CURVE SMOOTH",
"559 549 OFFCURVE",
"567 554 OFFCURVE",
"567 565 CURVE SMOOTH",
"567 695 LINE",
"36 695 LINE",
"36 565 LINE SMOOTH",
"36 554 OFFCURVE",
"43 549 OFFCURVE",
"53 549 CURVE SMOOTH",
"68 549 OFFCURVE",
"75 561 OFFCURVE",
"80 586 CURVE SMOOTH",
"90 641 LINE",
"261 641 LINE",
"261 390 LINE",
"113 390 LINE",
"113 335 LINE",
"261 335 LINE",
"261 49 LINE",
"230 49 LINE SMOOTH",
"207 49 OFFCURVE",
"193 39 OFFCURVE",
"193 21 CURVE SMOOTH",
"193 8 OFFCURVE",
"199 0 OFFCURVE",
"210 0 CURVE SMOOTH"
);
}
);
width = 602;
}
);
note = Tbar;
unicode = 0166;
},
{
glyphname = Tcaron;
lastChange = "2015-07-30 07:35:18 +0000";
layers = (
{
components = (
{
name = T;
}
);
layerId = "9EA4E357-4DFB-45A6-8407-D27A22F681E3";
name = Light;
paths = (
{
closed = 1;
nodes = (
"319 751 LINE",
"426 887 LINE",
"389 917 LINE",
"298 818 LINE",
"207 917 LINE",
"170 887 LINE",
"277 751 LINE"
);
}
);
width = 596;
}
);
note = Tcaron;
unicode = 0164;
},
{
glyphname = Tcedilla;
lastChange = "2015-07-30 07:35:18 +0000";
layers = (
{
layerId = "9EA4E357-4DFB-45A6-8407-D27A22F681E3";
name = Light;
paths = (
{
closed = 1;
nodes = (
"310 -195 OFFCURVE",
"365 -159 OFFCURVE",
"365 -113 CURVE SMOOTH",
"365 -75 OFFCURVE",
"342 -56 OFFCURVE",
"316 -46 CURVE",
"337 0 LINE",
"404 0 LINE SMOOTH",
"413 0 OFFCURVE",
"416 6 OFFCURVE",
"416 13 CURVE SMOOTH",
"416 26 OFFCURVE",
"407 33 OFFCURVE",
"388 38 CURVE SMOOTH",
"338 50 LINE",
"338 641 LINE",
"510 641 LINE",
"520 586 LINE SMOOTH",
"525 561 OFFCURVE",
"532 549 OFFCURVE",
"547 549 CURVE SMOOTH",
"556 549 OFFCURVE",
"564 554 OFFCURVE",
"564 565 CURVE SMOOTH",
"564 695 LINE",
"33 695 LINE",
"33 565 LINE SMOOTH",
"33 554 OFFCURVE",
"40 549 OFFCURVE",
"50 549 CURVE SMOOTH",
"65 549 OFFCURVE",
"72 561 OFFCURVE",
"77 586 CURVE SMOOTH",
"87 641 LINE",
"258 641 LINE",
"258 49 LINE",
"227 49 LINE SMOOTH",
"204 49 OFFCURVE",
"190 39 OFFCURVE",
"190 21 CURVE SMOOTH",
"190 8 OFFCURVE",
"196 0 OFFCURVE",
"207 0 CURVE SMOOTH",
"284 0 LINE",
"263 -58 LINE",
"296 -68 OFFCURVE",
"308 -85 OFFCURVE",
"308 -111 CURVE SMOOTH",
"308 -139 OFFCURVE",
"286 -164 OFFCURVE",
"240 -179 CURVE",
"252 -209 LINE"
);
}
);
width = 596;
}
);
note = Tcedilla;
unicode = 0162;
},
{
glyphname = Tcommaaccent;
lastChange = "2015-07-30 07:35:18 +0000";
layers = (
{
components = (
{
name = T;
}
);
layerId = "9EA4E357-4DFB-45A6-8407-D27A22F681E3";
name = Light;
paths = (
{
closed = 1;
nodes = (
"306 -189 OFFCURVE",
"337 -121 OFFCURVE",
"352 -64 CURVE",
"277 -46 LINE SMOOTH",
"256 -41 OFFCURVE",
"241 -50 OFFCURVE",
"241 -69 CURVE SMOOTH",
"241 -77 OFFCURVE",
"246 -82 OFFCURVE",
"253 -84 CURVE SMOOTH",
"282 -94 LINE",
"278 -126 OFFCURVE",
"253 -180 OFFCURVE",
"229 -216 CURVE",
"264 -238 LINE"
);
}
);
width = 596;
}
);
note = Tcommaaccent;
unicode = 021A;
},
{
glyphname = Tdotbelow;
lastChange = "2015-07-30 07:35:19 +0000";
layers = (
{
components = (
{
name = T;
}
);
layerId = "9EA4E357-4DFB-45A6-8407-D27A22F681E3";
name = Light;
paths = (
{
closed = 1;
nodes = (
"325 -164 OFFCURVE",
"347 -143 OFFCURVE",
"347 -115 CURVE SMOOTH",
"347 -86 OFFCURVE",
"325 -65 OFFCURVE",
"298 -65 CURVE SMOOTH",
"271 -65 OFFCURVE",
"249 -86 OFFCURVE",
"249 -115 CURVE SMOOTH",
"249 -143 OFFCURVE",
"271 -164 OFFCURVE",
"298 -164 CURVE SMOOTH"
);
}
);
width = 596;
}
);
note = Tdotbelow;
unicode = 1E6C;
},
{
glyphname = Tlinebelow;
lastChange = "2015-07-30 07:35:19 +0000";
layers = (
{
components = (
{
name = T;
}
);
layerId = "9EA4E357-4DFB-45A6-8407-D27A22F681E3";
name = Light;
paths = (
{
closed = 1;
nodes = (
"489 -141 LINE",
"489 -88 LINE",
"111 -88 LINE",
"111 -141 LINE"
);
}
);
width = 596;
}
);
note = Tlinebelow;
unicode = 1E6E;
},
{
glyphname = U;
lastChange = "2015-07-30 07:35:18 +0000";
layers = (
{
layerId = "9EA4E357-4DFB-45A6-8407-D27A22F681E3";
name = Light;
paths = (
{
closed = 1;
nodes = (
"562 -12 OFFCURVE",
"666 87 OFFCURVE",
"666 263 CURVE SMOOTH",
"666 645 LINE",
"712 659 LINE SMOOTH",
"729 664 OFFCURVE",
"738 672 OFFCURVE",
"738 683 CURVE SMOOTH",
"738 690 OFFCURVE",
"735 695 OFFCURVE",
"726 695 CURVE SMOOTH",
"563 695 LINE SMOOTH",
"541 695 OFFCURVE",
"527 685 OFFCURVE",
"527 667 CURVE SMOOTH",
"527 654 OFFCURVE",
"533 646 OFFCURVE",
"544 646 CURVE SMOOTH",
"602 646 LINE",
"602 259 LINE SMOOTH",
"602 118 OFFCURVE",
"527 43 OFFCURVE",
"396 43 CURVE SMOOTH",
"266 43 OFFCURVE",
"191 119 OFFCURVE",
"191 259 CURVE SMOOTH",
"191 645 LINE",
"241 657 LINE SMOOTH",
"261 662 OFFCURVE",
"269 669 OFFCURVE",
"269 682 CURVE SMOOTH",
"269 689 OFFCURVE",
"266 695 OFFCURVE",
"257 695 CURVE SMOOTH",
"79 695 LINE SMOOTH",
"57 695 OFFCURVE",
"43 685 OFFCURVE",
"43 667 CURVE SMOOTH",
"43 654 OFFCURVE",
"49 646 OFFCURVE",
"60 646 CURVE SMOOTH",
"111 646 LINE",
"111 263 LINE SMOOTH",
"111 87 OFFCURVE",
"221 -12 OFFCURVE",
"393 -12 CURVE SMOOTH"
);
}
);
width = 781;
}
);
note = U;
unicode = 0055;
},
{
glyphname = Uacute;
lastChange = "2015-07-30 07:35:18 +0000";
layers = (
{
components = (
{
name = U;
}
);
layerId = "9EA4E357-4DFB-45A6-8407-D27A22F681E3";
name = Light;
paths = (
{
closed = 1;
nodes = (
"473 887 LINE",
"413 926 LINE",
"326 780 LINE",
"371 751 LINE"
);
}
);
width = 781;
}
);
note = Uacute;
unicode = 00DA;
},
{
glyphname = Ubreve;
lastChange = "2015-07-30 07:35:18 +0000";
layers = (
{
components = (
{
name = U;
}
);
layerId = "9EA4E357-4DFB-45A6-8407-D27A22F681E3";
name = Light;
paths = (
{
closed = 1;
nodes = (
"460 747 OFFCURVE",
"519 780 OFFCURVE",
"543 867 CURVE",
"497 883 LINE",
"483 835 OFFCURVE",
"448 801 OFFCURVE",
"397 801 CURVE SMOOTH",
"346 801 OFFCURVE",
"311 835 OFFCURVE",
"297 883 CURVE",
"251 867 LINE",
"275 780 OFFCURVE",
"334 747 OFFCURVE",
"397 747 CURVE SMOOTH"
);
}
);
width = 781;
}
);
note = Ubreve;
unicode = 016C;
},
{
glyphname = Ucaron;
lastChange = "2015-07-30 07:35:19 +0000";
layers = (
{
components = (
{
name = U;
}
);
layerId = "9EA4E357-4DFB-45A6-8407-D27A22F681E3";
name = Light;
paths = (
{
closed = 1;
nodes = (
"414 751 LINE",
"521 887 LINE",
"484 917 LINE",
"393 818 LINE",
"302 917 LINE",
"265 887 LINE",
"372 751 LINE"
);
}
);
width = 781;
}
);
note = Ucaron;
unicode = 01D3;
},
{
glyphname = Ucircumflex;
lastChange = "2015-07-30 07:35:18 +0000";
layers = (
{
components = (
{
name = U;
}
);
layerId = "9EA4E357-4DFB-45A6-8407-D27A22F681E3";
name = Light;
paths = (
{
closed = 1;
nodes = (
"394 850 LINE",
"485 751 LINE",
"522 781 LINE",
"415 917 LINE",
"373 917 LINE",
"266 781 LINE",
"303 751 LINE"
);
}
);
width = 781;
}
);
note = Ucircumflex;
unicode = 00DB;
},
{
glyphname = Udieresis;
lastChange = "2015-07-30 07:35:19 +0000";
layers = (
{
components = (
{
name = U;
}
);
layerId = "9EA4E357-4DFB-45A6-8407-D27A22F681E3";
name = Light;
paths = (
{
closed = 1;
nodes = (
"516 762 OFFCURVE",
"538 782 OFFCURVE",
"538 811 CURVE SMOOTH",
"538 839 OFFCURVE",
"516 859 OFFCURVE",
"490 859 CURVE SMOOTH",
"463 859 OFFCURVE",
"441 839 OFFCURVE",
"441 811 CURVE SMOOTH",
"441 782 OFFCURVE",
"463 762 OFFCURVE",
"490 762 CURVE SMOOTH"
);
},
{
closed = 1;
nodes = (
"324 762 OFFCURVE",
"346 782 OFFCURVE",
"346 811 CURVE SMOOTH",
"346 839 OFFCURVE",
"324 859 OFFCURVE",
"298 859 CURVE SMOOTH",
"271 859 OFFCURVE",
"249 839 OFFCURVE",
"249 811 CURVE SMOOTH",
"249 782 OFFCURVE",
"271 762 OFFCURVE",
"298 762 CURVE SMOOTH"
);
}
);
width = 781;
}
);
note = Udieresis;
unicode = 00DC;
},
{
glyphname = Udieresisacute;
lastChange = "2015-07-30 07:35:19 +0000";
layers = (
{
components = (
{
name = U;
}
);
layerId = "9EA4E357-4DFB-45A6-8407-D27A22F681E3";
name = Light;
paths = (
{
closed = 1;
nodes = (
"497 1003 LINE",
"441 1039 LINE",
"360 902 LINE",
"401 876 LINE"
);
},
{
closed = 1;
nodes = (
"323 762 OFFCURVE",
"345 782 OFFCURVE",
"345 811 CURVE SMOOTH",
"345 839 OFFCURVE",
"323 859 OFFCURVE",
"297 859 CURVE SMOOTH",
"270 859 OFFCURVE",
"248 839 OFFCURVE",
"248 811 CURVE SMOOTH",
"248 782 OFFCURVE",
"270 762 OFFCURVE",
"297 762 CURVE SMOOTH"
);
},
{
closed = 1;
nodes = (
"514 762 OFFCURVE",
"536 782 OFFCURVE",
"536 811 CURVE SMOOTH",
"536 839 OFFCURVE",
"514 859 OFFCURVE",
"488 859 CURVE SMOOTH",
"461 859 OFFCURVE",
"439 839 OFFCURVE",
"439 811 CURVE SMOOTH",
"439 782 OFFCURVE",
"461 762 OFFCURVE",
"488 762 CURVE SMOOTH"
);
}
);
width = 781;
}
);
note = Udieresisacute;
unicode = 01D7;
},
{
glyphname = Udieresiscaron;
lastChange = "2015-07-30 07:35:19 +0000";
layers = (
{
components = (
{
name = U;
}
);
layerId = "9EA4E357-4DFB-45A6-8407-D27A22F681E3";
name = Light;
paths = (
{
closed = 1;
nodes = (
"416 883 LINE",
"523 1018 LINE",
"486 1048 LINE",
"395 949 LINE",
"304 1048 LINE",
"267 1018 LINE",
"374 883 LINE"
);
},
{
closed = 1;
nodes = (
"325 762 OFFCURVE",
"347 782 OFFCURVE",
"347 811 CURVE SMOOTH",
"347 839 OFFCURVE",
"325 859 OFFCURVE",
"299 859 CURVE SMOOTH",
"272 859 OFFCURVE",
"250 839 OFFCURVE",
"250 811 CURVE SMOOTH",
"250 782 OFFCURVE",
"272 762 OFFCURVE",
"299 762 CURVE SMOOTH"
);
},
{
closed = 1;
nodes = (
"517 762 OFFCURVE",
"539 782 OFFCURVE",
"539 811 CURVE SMOOTH",
"539 839 OFFCURVE",
"517 859 OFFCURVE",
"491 859 CURVE SMOOTH",
"464 859 OFFCURVE",
"442 839 OFFCURVE",
"442 811 CURVE SMOOTH",
"442 782 OFFCURVE",
"464 762 OFFCURVE",
"491 762 CURVE SMOOTH"
);
}
);
width = 781;
}
);
note = Udieresiscaron;
unicode = 01D9;
},
{
glyphname = Udieresisgrave;
lastChange = "2015-07-30 07:35:19 +0000";
layers = (
{
components = (
{
name = U;
}
);
layerId = "9EA4E357-4DFB-45A6-8407-D27A22F681E3";
name = Light;
paths = (
{
closed = 1;
nodes = (
"427 902 LINE",
"347 1039 LINE",
"290 1003 LINE",
"386 876 LINE"
);
},
{
closed = 1;
nodes = (
"326 762 OFFCURVE",
"348 782 OFFCURVE",
"348 811 CURVE SMOOTH",
"348 839 OFFCURVE",
"326 859 OFFCURVE",
"299 859 CURVE SMOOTH",
"273 859 OFFCURVE",
"251 839 OFFCURVE",
"251 811 CURVE SMOOTH",
"251 782 OFFCURVE",
"273 762 OFFCURVE",
"299 762 CURVE SMOOTH"
);
},
{
closed = 1;
nodes = (
"518 762 OFFCURVE",
"540 782 OFFCURVE",
"540 811 CURVE SMOOTH",
"540 839 OFFCURVE",
"518 859 OFFCURVE",
"491 859 CURVE SMOOTH",
"465 859 OFFCURVE",
"443 839 OFFCURVE",
"443 811 CURVE SMOOTH",
"443 782 OFFCURVE",
"465 762 OFFCURVE",
"491 762 CURVE SMOOTH"
);
}
);
width = 781;
}
);
note = Udieresisgrave;
unicode = 01DB;
},
{
glyphname = Udieresismacron;
lastChange = "2015-07-30 07:35:19 +0000";
layers = (
{
components = (
{
name = U;
}
);
layerId = "9EA4E357-4DFB-45A6-8407-D27A22F681E3";
name = Light;
paths = (
{
closed = 1;
nodes = (
"538 916 LINE",
"538 970 LINE",
"256 970 LINE",
"256 916 LINE"
);
},
{
closed = 1;
nodes = (
"327 762 OFFCURVE",
"349 782 OFFCURVE",
"349 811 CURVE SMOOTH",
"349 839 OFFCURVE",
"327 859 OFFCURVE",
"301 859 CURVE SMOOTH",
"274 859 OFFCURVE",
"252 839 OFFCURVE",
"252 811 CURVE SMOOTH",
"252 782 OFFCURVE",
"274 762 OFFCURVE",
"301 762 CURVE SMOOTH"
);
},
{
closed = 1;
nodes = (
"518 762 OFFCURVE",
"540 782 OFFCURVE",
"540 811 CURVE SMOOTH",
"540 839 OFFCURVE",
"518 859 OFFCURVE",
"492 859 CURVE SMOOTH",
"465 859 OFFCURVE",
"443 839 OFFCURVE",
"443 811 CURVE SMOOTH",
"443 782 OFFCURVE",
"465 762 OFFCURVE",
"492 762 CURVE SMOOTH"
);
}
);
width = 781;
}
);
note = Udieresismacron;
unicode = 01D5;
},
{
glyphname = Udotbelow;
lastChange = "2015-07-30 07:35:19 +0000";
layers = (
{
components = (
{
name = U;
}
);
layerId = "9EA4E357-4DFB-45A6-8407-D27A22F681E3";
name = Light;
paths = (
{
closed = 1;
nodes = (
"420 -164 OFFCURVE",
"442 -143 OFFCURVE",
"442 -115 CURVE SMOOTH",
"442 -86 OFFCURVE",
"420 -65 OFFCURVE",
"393 -65 CURVE SMOOTH",
"366 -65 OFFCURVE",
"344 -86 OFFCURVE",
"344 -115 CURVE SMOOTH",
"344 -143 OFFCURVE",
"366 -164 OFFCURVE",
"393 -164 CURVE SMOOTH"
);
}
);
width = 781;
}
);
note = Udotbelow;
unicode = 1EE4;
},
{
glyphname = Ugrave;
lastChange = "2015-07-30 07:35:18 +0000";
layers = (
{
components = (
{
name = U;
}
);
layerId = "9EA4E357-4DFB-45A6-8407-D27A22F681E3";
name = Light;
paths = (
{
closed = 1;
nodes = (
"456 781 LINE",
"369 927 LINE",
"309 888 LINE",
"411 752 LINE"
);
}
);
width = 781;
}
);
note = Ugrave;
unicode = 00D9;
},
{
glyphname = Uhookabove;
lastChange = "2015-07-30 07:35:19 +0000";
layers = (
{
components = (
{
name = U;
}
);
layerId = "9EA4E357-4DFB-45A6-8407-D27A22F681E3";
name = Light;
paths = (
{
closed = 1;
nodes = (
"414 750 LINE",
"420 795 LINE",
"455 807 OFFCURVE",
"476 832 OFFCURVE",
"476 863 CURVE SMOOTH",
"476 903 OFFCURVE",
"442 929 OFFCURVE",
"396 929 CURVE SMOOTH",
"374 929 OFFCURVE",
"349 922 OFFCURVE",
"334 916 CURVE",
"341 883 LINE",
"355 887 OFFCURVE",
"372 891 OFFCURVE",
"388 891 CURVE SMOOTH",
"409 891 OFFCURVE",
"421 881 OFFCURVE",
"421 862 CURVE SMOOTH",
"421 840 OFFCURVE",
"403 825 OFFCURVE",
"369 813 CURVE",
"375 750 LINE"
);
}
);
width = 781;
}
);
note = Uhookabove;
unicode = 1EE6;
},
{
glyphname = Uhorn;
lastChange = "2015-07-30 07:35:19 +0000";
layers = (
{
layerId = "9EA4E357-4DFB-45A6-8407-D27A22F681E3";
name = Light;
paths = (
{
closed = 1;
nodes = (
"562 -12 OFFCURVE",
"666 87 OFFCURVE",
"666 263 CURVE SMOOTH",
"666 461 LINE",
"773 507 OFFCURVE",
"874 594 OFFCURVE",
"874 763 CURVE",
"810 763 LINE",
"810 629 OFFCURVE",
"751 557 OFFCURVE",
"666 518 CURVE",
"666 646 LINE",
"708 656 LINE SMOOTH",
"726 660 OFFCURVE",
"738 670 OFFCURVE",
"738 682 CURVE SMOOTH",
"738 689 OFFCURVE",
"735 695 OFFCURVE",
"726 695 CURVE SMOOTH",
"563 695 LINE SMOOTH",
"541 695 OFFCURVE",
"527 685 OFFCURVE",
"527 667 CURVE SMOOTH",
"527 654 OFFCURVE",
"533 646 OFFCURVE",
"544 646 CURVE SMOOTH",
"602 646 LINE",
"602 259 LINE SMOOTH",
"602 118 OFFCURVE",
"527 43 OFFCURVE",
"396 43 CURVE SMOOTH",
"266 43 OFFCURVE",
"191 119 OFFCURVE",
"191 259 CURVE SMOOTH",
"191 645 LINE",
"241 657 LINE SMOOTH",
"259 661 OFFCURVE",
"269 669 OFFCURVE",
"269 682 CURVE SMOOTH",
"269 689 OFFCURVE",
"266 695 OFFCURVE",
"257 695 CURVE SMOOTH",
"79 695 LINE SMOOTH",
"57 695 OFFCURVE",
"43 685 OFFCURVE",
"43 667 CURVE SMOOTH",
"43 654 OFFCURVE",
"49 646 OFFCURVE",
"60 646 CURVE SMOOTH",
"111 646 LINE",
"111 263 LINE SMOOTH",
"111 87 OFFCURVE",
"221 -12 OFFCURVE",
"393 -12 CURVE SMOOTH"
);
}
);
width = 889;
}
);
note = Uhorn;
unicode = 01AF;
},
{
glyphname = Uhornacute;
lastChange = "2015-07-30 07:35:19 +0000";
layers = (
{
layerId = "9EA4E357-4DFB-45A6-8407-D27A22F681E3";
name = Light;
paths = (
{
closed = 1;
nodes = (
"562 -12 OFFCURVE",
"666 87 OFFCURVE",
"666 263 CURVE SMOOTH",
"666 461 LINE",
"773 507 OFFCURVE",
"874 594 OFFCURVE",
"874 763 CURVE",
"810 763 LINE",
"810 629 OFFCURVE",
"751 557 OFFCURVE",
"666 518 CURVE",
"666 646 LINE",
"708 656 LINE SMOOTH",
"726 660 OFFCURVE",
"738 670 OFFCURVE",
"738 682 CURVE SMOOTH",
"738 689 OFFCURVE",
"735 695 OFFCURVE",
"726 695 CURVE SMOOTH",
"563 695 LINE SMOOTH",
"541 695 OFFCURVE",
"527 685 OFFCURVE",
"527 667 CURVE SMOOTH",
"527 654 OFFCURVE",
"533 646 OFFCURVE",
"544 646 CURVE SMOOTH",
"602 646 LINE",
"602 259 LINE SMOOTH",
"602 118 OFFCURVE",
"527 43 OFFCURVE",
"396 43 CURVE SMOOTH",
"266 43 OFFCURVE",
"191 119 OFFCURVE",
"191 259 CURVE SMOOTH",
"191 645 LINE",
"241 657 LINE SMOOTH",
"260 662 OFFCURVE",
"269 669 OFFCURVE",
"269 682 CURVE SMOOTH",
"269 689 OFFCURVE",
"266 695 OFFCURVE",
"257 695 CURVE SMOOTH",
"79 695 LINE SMOOTH",
"57 695 OFFCURVE",
"43 685 OFFCURVE",
"43 667 CURVE SMOOTH",
"43 654 OFFCURVE",
"49 646 OFFCURVE",
"60 646 CURVE SMOOTH",
"111 646 LINE",
"111 263 LINE SMOOTH",
"111 87 OFFCURVE",
"221 -12 OFFCURVE",
"393 -12 CURVE SMOOTH"
);
},
{
closed = 1;
nodes = (
"477 887 LINE",
"417 926 LINE",
"330 780 LINE",
"375 751 LINE"
);
}
);
width = 889;
}
);
note = Uhornacute;
unicode = 1EE8;
},
{
glyphname = Uhorndotbelow;
lastChange = "2015-07-30 07:35:19 +0000";
layers = (
{
layerId = "9EA4E357-4DFB-45A6-8407-D27A22F681E3";
name = Light;
paths = (
{
closed = 1;
nodes = (
"562 -12 OFFCURVE",
"666 87 OFFCURVE",
"666 263 CURVE SMOOTH",
"666 461 LINE",
"773 507 OFFCURVE",
"874 594 OFFCURVE",
"874 763 CURVE",
"810 763 LINE",
"810 629 OFFCURVE",
"751 557 OFFCURVE",
"666 518 CURVE",
"666 646 LINE",
"708 656 LINE SMOOTH",
"726 660 OFFCURVE",
"738 670 OFFCURVE",
"738 682 CURVE SMOOTH",
"738 689 OFFCURVE",
"735 695 OFFCURVE",
"726 695 CURVE SMOOTH",
"563 695 LINE SMOOTH",
"541 695 OFFCURVE",
"527 685 OFFCURVE",
"527 667 CURVE SMOOTH",
"527 654 OFFCURVE",
"533 646 OFFCURVE",
"544 646 CURVE SMOOTH",
"602 646 LINE",
"602 259 LINE SMOOTH",
"602 118 OFFCURVE",
"527 43 OFFCURVE",
"396 43 CURVE SMOOTH",
"266 43 OFFCURVE",
"191 119 OFFCURVE",
"191 259 CURVE SMOOTH",
"191 645 LINE",
"241 657 LINE SMOOTH",
"260 662 OFFCURVE",
"269 669 OFFCURVE",
"269 682 CURVE SMOOTH",
"269 689 OFFCURVE",
"266 695 OFFCURVE",
"257 695 CURVE SMOOTH",
"79 695 LINE SMOOTH",
"57 695 OFFCURVE",
"43 685 OFFCURVE",
"43 667 CURVE SMOOTH",
"43 654 OFFCURVE",
"49 646 OFFCURVE",
"60 646 CURVE SMOOTH",
"111 646 LINE",
"111 263 LINE SMOOTH",
"111 87 OFFCURVE",
"221 -12 OFFCURVE",
"393 -12 CURVE SMOOTH"
);
},
{
closed = 1;
nodes = (
"424 -164 OFFCURVE",
"446 -143 OFFCURVE",
"446 -115 CURVE SMOOTH",
"446 -86 OFFCURVE",
"424 -65 OFFCURVE",
"397 -65 CURVE SMOOTH",
"370 -65 OFFCURVE",
"348 -86 OFFCURVE",
"348 -115 CURVE SMOOTH",
"348 -143 OFFCURVE",
"370 -164 OFFCURVE",
"397 -164 CURVE SMOOTH"
);
}
);
width = 889;
}
);
note = Uhorndotbelow;
unicode = 1EF0;
},
{
glyphname = Uhorngrave;
lastChange = "2015-07-30 07:35:19 +0000";
layers = (
{
layerId = "9EA4E357-4DFB-45A6-8407-D27A22F681E3";
name = Light;
paths = (
{
closed = 1;
nodes = (
"562 -12 OFFCURVE",
"666 87 OFFCURVE",
"666 263 CURVE SMOOTH",
"666 461 LINE",
"773 507 OFFCURVE",
"874 594 OFFCURVE",
"874 763 CURVE",
"810 763 LINE",
"810 629 OFFCURVE",
"751 557 OFFCURVE",
"666 518 CURVE",
"666 646 LINE",
"708 656 LINE SMOOTH",
"726 660 OFFCURVE",
"738 670 OFFCURVE",
"738 682 CURVE SMOOTH",
"738 689 OFFCURVE",
"735 695 OFFCURVE",
"726 695 CURVE SMOOTH",
"563 695 LINE SMOOTH",
"541 695 OFFCURVE",
"527 685 OFFCURVE",
"527 667 CURVE SMOOTH",
"527 654 OFFCURVE",
"533 646 OFFCURVE",
"544 646 CURVE SMOOTH",
"602 646 LINE",
"602 259 LINE SMOOTH",
"602 118 OFFCURVE",
"527 43 OFFCURVE",
"396 43 CURVE SMOOTH",
"266 43 OFFCURVE",
"191 119 OFFCURVE",
"191 259 CURVE SMOOTH",
"191 645 LINE",
"241 657 LINE SMOOTH",
"260 662 OFFCURVE",
"269 669 OFFCURVE",
"269 682 CURVE SMOOTH",
"269 689 OFFCURVE",
"266 695 OFFCURVE",
"257 695 CURVE SMOOTH",
"79 695 LINE SMOOTH",
"57 695 OFFCURVE",
"43 685 OFFCURVE",
"43 667 CURVE SMOOTH",
"43 654 OFFCURVE",
"49 646 OFFCURVE",
"60 646 CURVE SMOOTH",
"111 646 LINE",
"111 263 LINE SMOOTH",
"111 87 OFFCURVE",
"221 -12 OFFCURVE",
"393 -12 CURVE SMOOTH"
);
},
{
closed = 1;
nodes = (
"444 781 LINE",
"357 927 LINE",
"297 888 LINE",
"399 752 LINE"
);
}
);
width = 889;
}
);
note = Uhorngrave;
unicode = 1EEA;
},
{
glyphname = Uhornhookabove;
lastChange = "2015-07-30 07:35:19 +0000";
layers = (
{
layerId = "9EA4E357-4DFB-45A6-8407-D27A22F681E3";
name = Light;
paths = (
{
closed = 1;
nodes = (
"562 -12 OFFCURVE",
"666 87 OFFCURVE",
"666 263 CURVE SMOOTH",
"666 461 LINE",
"773 507 OFFCURVE",
"874 594 OFFCURVE",
"874 763 CURVE",
"810 763 LINE",
"810 629 OFFCURVE",
"751 557 OFFCURVE",
"666 518 CURVE",
"666 646 LINE",
"708 656 LINE SMOOTH",
"726 660 OFFCURVE",
"738 670 OFFCURVE",
"738 682 CURVE SMOOTH",
"738 689 OFFCURVE",
"735 695 OFFCURVE",
"726 695 CURVE SMOOTH",
"563 695 LINE SMOOTH",
"541 695 OFFCURVE",
"527 685 OFFCURVE",
"527 667 CURVE SMOOTH",
"527 654 OFFCURVE",
"533 646 OFFCURVE",
"544 646 CURVE SMOOTH",
"602 646 LINE",
"602 259 LINE SMOOTH",
"602 118 OFFCURVE",
"527 43 OFFCURVE",
"396 43 CURVE SMOOTH",
"266 43 OFFCURVE",
"191 119 OFFCURVE",
"191 259 CURVE SMOOTH",
"191 645 LINE",
"241 657 LINE SMOOTH",
"260 662 OFFCURVE",
"269 669 OFFCURVE",
"269 682 CURVE SMOOTH",
"269 689 OFFCURVE",
"266 695 OFFCURVE",
"257 695 CURVE SMOOTH",
"79 695 LINE SMOOTH",
"57 695 OFFCURVE",
"43 685 OFFCURVE",
"43 667 CURVE SMOOTH",
"43 654 OFFCURVE",
"49 646 OFFCURVE",
"60 646 CURVE SMOOTH",
"111 646 LINE",
"111 263 LINE SMOOTH",
"111 87 OFFCURVE",
"221 -12 OFFCURVE",
"393 -12 CURVE SMOOTH"
);
},
{
closed = 1;
nodes = (
"418 750 LINE",
"424 795 LINE",
"459 807 OFFCURVE",
"480 832 OFFCURVE",
"480 863 CURVE SMOOTH",
"480 903 OFFCURVE",
"446 929 OFFCURVE",
"400 929 CURVE SMOOTH",
"378 929 OFFCURVE",
"353 922 OFFCURVE",
"338 916 CURVE",
"345 883 LINE",
"359 887 OFFCURVE",
"376 891 OFFCURVE",
"392 891 CURVE SMOOTH",
"412 891 OFFCURVE",
"425 881 OFFCURVE",
"425 862 CURVE SMOOTH",
"425 840 OFFCURVE",
"407 825 OFFCURVE",
"373 813 CURVE",
"379 750 LINE"
);
}
);
width = 889;
}
);
note = Uhornhookabove;
unicode = 1EEC;
},
{
glyphname = Uhorntilde;
lastChange = "2015-07-30 07:35:19 +0000";
layers = (
{
layerId = "9EA4E357-4DFB-45A6-8407-D27A22F681E3";
name = Light;
paths = (
{
closed = 1;
nodes = (
"562 -12 OFFCURVE",
"666 87 OFFCURVE",
"666 263 CURVE SMOOTH",
"666 461 LINE",
"773 507 OFFCURVE",
"874 594 OFFCURVE",
"874 763 CURVE",
"810 763 LINE",
"810 629 OFFCURVE",
"751 557 OFFCURVE",
"666 518 CURVE",
"666 646 LINE",
"708 656 LINE SMOOTH",
"726 660 OFFCURVE",
"738 670 OFFCURVE",
"738 682 CURVE SMOOTH",
"738 689 OFFCURVE",
"735 695 OFFCURVE",
"726 695 CURVE SMOOTH",
"563 695 LINE SMOOTH",
"541 695 OFFCURVE",
"527 685 OFFCURVE",
"527 667 CURVE SMOOTH",
"527 654 OFFCURVE",
"533 646 OFFCURVE",
"544 646 CURVE SMOOTH",
"602 646 LINE",
"602 259 LINE SMOOTH",
"602 118 OFFCURVE",
"527 43 OFFCURVE",
"396 43 CURVE SMOOTH",
"266 43 OFFCURVE",
"191 119 OFFCURVE",
"191 259 CURVE SMOOTH",
"191 645 LINE",
"241 657 LINE SMOOTH",
"260 662 OFFCURVE",
"269 669 OFFCURVE",
"269 682 CURVE SMOOTH",
"269 689 OFFCURVE",
"266 695 OFFCURVE",
"257 695 CURVE SMOOTH",
"79 695 LINE SMOOTH",
"57 695 OFFCURVE",
"43 685 OFFCURVE",
"43 667 CURVE SMOOTH",
"43 654 OFFCURVE",
"49 646 OFFCURVE",
"60 646 CURVE SMOOTH",
"111 646 LINE",
"111 263 LINE SMOOTH",
"111 87 OFFCURVE",
"221 -12 OFFCURVE",
"393 -12 CURVE SMOOTH"
);
},
{
closed = 1;
nodes = (
"483 762 OFFCURVE",
"517 781 OFFCURVE",
"544 807 CURVE",
"516 845 LINE",
"495 829 OFFCURVE",
"474 819 OFFCURVE",
"451 819 CURVE SMOOTH",
"416 819 OFFCURVE",
"377 854 OFFCURVE",
"338 854 CURVE SMOOTH",
"307 854 OFFCURVE",
"270 833 OFFCURVE",
"243 808 CURVE",
"271 771 LINE",
"292 786 OFFCURVE",
"312 797 OFFCURVE",
"337 797 CURVE SMOOTH",
"377 797 OFFCURVE",
"409 762 OFFCURVE",
"452 762 CURVE SMOOTH"
);
}
);
width = 889;
}
);
note = Uhorntilde;
unicode = 1EEE;
},
{
glyphname = Uhungarumlaut;
lastChange = "2015-07-30 07:35:19 +0000";
layers = (
{
components = (
{
name = U;
}
);
layerId = "9EA4E357-4DFB-45A6-8407-D27A22F681E3";
name = Light;
paths = (
{
closed = 1;
nodes = (
"596 927 LINE",
"545 958 LINE",
"433 784 LINE",
"468 760 LINE"
);
},
{
closed = 1;
nodes = (
"420 927 LINE",
"369 958 LINE",
"257 784 LINE",
"292 760 LINE"
);
}
);
width = 781;
}
);
note = Uhungarumlaut;
unicode = 0170;
},
{
glyphname = Umacron;
lastChange = "2015-07-30 07:35:18 +0000";
layers = (
{
components = (
{
name = U;
}
);
layerId = "9EA4E357-4DFB-45A6-8407-D27A22F681E3";
name = Light;
paths = (
{
closed = 1;
nodes = (
"537 778 LINE",
"537 833 LINE",
"255 833 LINE",
"255 778 LINE"
);
}
);
width = 781;
}
);
note = Umacron;
unicode = 016A;
},
{
glyphname = Uogonek;
lastChange = "2015-07-30 07:35:18 +0000";
layers = (
{
layerId = "9EA4E357-4DFB-45A6-8407-D27A22F681E3";
name = Light;
paths = (
{
closed = 1;
nodes = (
"460 -211 OFFCURVE",
"482 -207 OFFCURVE",
"500 -198 CURVE",
"493 -164 LINE",
"480 -168 OFFCURVE",
"468 -171 OFFCURVE",
"453 -171 CURVE SMOOTH",
"415 -171 OFFCURVE",
"387 -151 OFFCURVE",
"387 -111 CURVE SMOOTH",
"387 -67 OFFCURVE",
"422 -26 OFFCURVE",
"459 -6 CURVE",
"589 17 OFFCURVE",
"666 111 OFFCURVE",
"666 263 CURVE SMOOTH",
"666 645 LINE",
"712 659 LINE SMOOTH",
"729 664 OFFCURVE",
"738 672 OFFCURVE",
"738 683 CURVE SMOOTH",
"738 690 OFFCURVE",
"735 695 OFFCURVE",
"726 695 CURVE SMOOTH",
"563 695 LINE SMOOTH",
"541 695 OFFCURVE",
"527 685 OFFCURVE",
"527 667 CURVE SMOOTH",
"527 654 OFFCURVE",
"533 646 OFFCURVE",
"544 646 CURVE SMOOTH",
"602 646 LINE",
"602 259 LINE SMOOTH",
"602 118 OFFCURVE",
"527 43 OFFCURVE",
"396 43 CURVE SMOOTH",
"266 43 OFFCURVE",
"191 119 OFFCURVE",
"191 259 CURVE SMOOTH",
"191 645 LINE",
"241 657 LINE SMOOTH",
"259 661 OFFCURVE",
"269 669 OFFCURVE",
"269 682 CURVE SMOOTH",
"269 689 OFFCURVE",
"266 695 OFFCURVE",
"257 695 CURVE SMOOTH",
"79 695 LINE SMOOTH",
"57 695 OFFCURVE",
"43 685 OFFCURVE",
"43 667 CURVE SMOOTH",
"43 654 OFFCURVE",
"49 646 OFFCURVE",
"60 646 CURVE SMOOTH",
"111 646 LINE",
"111 263 LINE SMOOTH",
"111 87 OFFCURVE",
"221 -12 OFFCURVE",
"393 -12 CURVE",
"357 -36 OFFCURVE",
"332 -73 OFFCURVE",
"332 -114 CURVE SMOOTH",
"332 -176 OFFCURVE",
"379 -211 OFFCURVE",
"442 -211 CURVE SMOOTH"
);
}
);
width = 781;
}
);
note = Uogonek;
unicode = 0172;
},
{
glyphname = Uring;
lastChange = "2015-07-30 07:35:19 +0000";
layers = (
{
components = (
{
name = U;
}
);
layerId = "9EA4E357-4DFB-45A6-8407-D27A22F681E3";
name = Light;
paths = (
{
closed = 1;
nodes = (
"449 740 OFFCURVE",
"484 779 OFFCURVE",
"484 827 CURVE SMOOTH",
"484 874 OFFCURVE",
"449 914 OFFCURVE",
"392 914 CURVE SMOOTH",
"335 914 OFFCURVE",
"300 874 OFFCURVE",
"300 827 CURVE SMOOTH",
"300 779 OFFCURVE",
"335 740 OFFCURVE",
"392 740 CURVE SMOOTH"
);
},
{
closed = 1;
nodes = (
"366 780 OFFCURVE",
"346 796 OFFCURVE",
"346 827 CURVE SMOOTH",
"346 857 OFFCURVE",
"366 873 OFFCURVE",
"392 873 CURVE SMOOTH",
"417 873 OFFCURVE",
"437 857 OFFCURVE",
"437 827 CURVE SMOOTH",
"437 796 OFFCURVE",
"417 780 OFFCURVE",
"392 780 CURVE SMOOTH"
);
}
);
width = 781;
}
);
note = Uring;
unicode = 016E;
},
{
glyphname = Utilde;
lastChange = "2015-07-30 07:35:18 +0000";
layers = (
{
components = (
{
name = U;
}
);
layerId = "9EA4E357-4DFB-45A6-8407-D27A22F681E3";
name = Light;
paths = (
{
closed = 1;
nodes = (
"482 762 OFFCURVE",
"516 781 OFFCURVE",
"543 807 CURVE",
"515 845 LINE",
"494 829 OFFCURVE",
"473 819 OFFCURVE",
"450 819 CURVE SMOOTH",
"415 819 OFFCURVE",
"376 854 OFFCURVE",
"337 854 CURVE SMOOTH",
"306 854 OFFCURVE",
"269 833 OFFCURVE",
"242 808 CURVE",
"270 771 LINE",
"291 786 OFFCURVE",
"311 797 OFFCURVE",
"336 797 CURVE SMOOTH",
"376 797 OFFCURVE",
"408 762 OFFCURVE",
"451 762 CURVE SMOOTH"
);
}
);
width = 781;
}
);
note = Utilde;
unicode = 0168;
},
{
glyphname = V;
lastChange = "2015-07-30 07:35:18 +0000";
layers = (
{
layerId = "9EA4E357-4DFB-45A6-8407-D27A22F681E3";
name = Light;
paths = (
{
closed = 1;
nodes = (
"404 0 LINE",
"634 645 LINE",
"685 658 LINE SMOOTH",
"699 662 OFFCURVE",
"709 670 OFFCURVE",
"709 682 CURVE SMOOTH",
"709 689 OFFCURVE",
"707 695 OFFCURVE",
"698 695 CURVE SMOOTH",
"529 695 LINE SMOOTH",
"506 695 OFFCURVE",
"492 685 OFFCURVE",
"492 667 CURVE SMOOTH",
"492 654 OFFCURVE",
"499 646 OFFCURVE",
"509 646 CURVE SMOOTH",
"571 646 LINE",
"382 113 LINE SMOOTH",
"372 85 OFFCURVE",
"367 53 OFFCURVE",
"367 53 CURVE SMOOTH",
"362 53 LINE SMOOTH",
"362 53 OFFCURVE",
"356 85 OFFCURVE",
"346 113 CURVE SMOOTH",
"163 645 LINE",
"216 655 LINE SMOOTH",
"236 659 OFFCURVE",
"246 668 OFFCURVE",
"246 682 CURVE SMOOTH",
"246 689 OFFCURVE",
"243 695 OFFCURVE",
"234 695 CURVE SMOOTH",
"47 695 LINE SMOOTH",
"25 695 OFFCURVE",
"11 685 OFFCURVE",
"11 667 CURVE SMOOTH",
"11 654 OFFCURVE",
"17 646 OFFCURVE",
"28 646 CURVE SMOOTH",
"77 646 LINE",
"306 0 LINE"
);
}
);
width = 720;
}
);
note = V;
unicode = 0056;
},
{
glyphname = W;
lastChange = "2015-07-30 07:35:18 +0000";
layers = (
{
layerId = "9EA4E357-4DFB-45A6-8407-D27A22F681E3";
name = Light;
paths = (
{
closed = 1;
nodes = (
"373 0 LINE",
"524 526 LINE SMOOTH",
"533 557 OFFCURVE",
"538 604 OFFCURVE",
"538 604 CURVE",
"543 604 LINE",
"543 604 OFFCURVE",
"547 557 OFFCURVE",
"556 526 CURVE SMOOTH",
"715 0 LINE",
"814 0 LINE",
"999 645 LINE",
"1049 658 LINE SMOOTH",
"1064 662 OFFCURVE",
"1074 670 OFFCURVE",
"1074 682 CURVE SMOOTH",
"1074 689 OFFCURVE",
"1072 695 OFFCURVE",
"1062 695 CURVE SMOOTH",
"892 695 LINE SMOOTH",
"869 695 OFFCURVE",
"855 685 OFFCURVE",
"855 667 CURVE SMOOTH",
"855 654 OFFCURVE",
"862 646 OFFCURVE",
"872 646 CURVE SMOOTH",
"936 646 LINE",
"789 120 LINE SMOOTH",
"781 91 OFFCURVE",
"777 54 OFFCURVE",
"777 54 CURVE SMOOTH",
"771 54 LINE SMOOTH",
"771 54 OFFCURVE",
"768 91 OFFCURVE",
"759 120 CURVE SMOOTH",
"583 695 LINE",
"511 695 LINE",
"346 120 LINE SMOOTH",
"338 91 OFFCURVE",
"334 54 OFFCURVE",
"334 54 CURVE SMOOTH",
"329 54 LINE SMOOTH",
"329 54 OFFCURVE",
"325 91 OFFCURVE",
"317 120 CURVE SMOOTH",
"160 645 LINE",
"213 655 LINE SMOOTH",
"233 659 OFFCURVE",
"244 668 OFFCURVE",
"244 682 CURVE SMOOTH",
"244 689 OFFCURVE",
"241 695 OFFCURVE",
"232 695 CURVE SMOOTH",
"48 695 LINE SMOOTH",
"26 695 OFFCURVE",
"12 685 OFFCURVE",
"12 667 CURVE SMOOTH",
"12 654 OFFCURVE",
"18 646 OFFCURVE",
"29 646 CURVE SMOOTH",
"79 646 LINE",
"274 0 LINE"
);
}
);
width = 1086;
}
);
note = W;
unicode = 0057;
},
{
glyphname = Wacute;
lastChange = "2015-07-30 07:35:18 +0000";
layers = (
{
components = (
{
name = W;
}
);
layerId = "9EA4E357-4DFB-45A6-8407-D27A22F681E3";
name = Light;
paths = (
{
closed = 1;
nodes = (
"636 887 LINE",
"576 926 LINE",
"489 780 LINE",
"534 751 LINE"
);
}
);
width = 1086;
}
);
note = Wacute;
unicode = 1E82;
},
{
glyphname = Wcircumflex;
lastChange = "2015-07-30 07:35:18 +0000";
layers = (
{
components = (
{
name = W;
}
);
layerId = "9EA4E357-4DFB-45A6-8407-D27A22F681E3";
name = Light;
paths = (
{
closed = 1;
nodes = (
"540 850 LINE",
"631 751 LINE",
"668 781 LINE",
"561 917 LINE",
"519 917 LINE",
"412 781 LINE",
"449 751 LINE"
);
}
);
width = 1086;
}
);
note = Wcircumflex;
unicode = 0174;
},
{
glyphname = Wdieresis;
lastChange = "2015-07-30 07:35:19 +0000";
layers = (
{
components = (
{
name = W;
}
);
layerId = "9EA4E357-4DFB-45A6-8407-D27A22F681E3";
name = Light;
paths = (
{
closed = 1;
nodes = (
"670 762 OFFCURVE",
"692 782 OFFCURVE",
"692 811 CURVE SMOOTH",
"692 839 OFFCURVE",
"670 859 OFFCURVE",
"644 859 CURVE SMOOTH",
"617 859 OFFCURVE",
"595 839 OFFCURVE",
"595 811 CURVE SMOOTH",
"595 782 OFFCURVE",
"617 762 OFFCURVE",
"644 762 CURVE SMOOTH"
);
},
{
closed = 1;
nodes = (
"478 762 OFFCURVE",
"500 782 OFFCURVE",
"500 811 CURVE SMOOTH",
"500 839 OFFCURVE",
"478 859 OFFCURVE",
"452 859 CURVE SMOOTH",
"425 859 OFFCURVE",
"403 839 OFFCURVE",
"403 811 CURVE SMOOTH",
"403 782 OFFCURVE",
"425 762 OFFCURVE",
"452 762 CURVE SMOOTH"
);
}
);
width = 1086;
}
);
note = Wdieresis;
unicode = 1E84;
},
{
glyphname = Wgrave;
lastChange = "2015-07-30 07:35:18 +0000";
layers = (
{
components = (
{
name = W;
}
);
layerId = "9EA4E357-4DFB-45A6-8407-D27A22F681E3";
name = Light;
paths = (
{
closed = 1;
nodes = (
"598 781 LINE",
"511 927 LINE",
"451 888 LINE",
"553 752 LINE"
);
}
);
width = 1086;
}
);
note = Wgrave;
unicode = 1E80;
},
{
glyphname = X;
lastChange = "2015-07-30 07:35:18 +0000";
layers = (
{
layerId = "9EA4E357-4DFB-45A6-8407-D27A22F681E3";
name = Light;
paths = (
{
closed = 1;
nodes = (
"223 0 LINE SMOOTH",
"232 0 OFFCURVE",
"234 6 OFFCURVE",
"234 13 CURVE SMOOTH",
"234 25 OFFCURVE",
"225 34 OFFCURVE",
"210 37 CURVE SMOOTH",
"151 50 LINE",
"337 319 LINE",
"522 49 LINE",
"480 49 LINE SMOOTH",
"457 49 OFFCURVE",
"444 39 OFFCURVE",
"444 21 CURVE SMOOTH",
"444 8 OFFCURVE",
"450 0 OFFCURVE",
"460 0 CURVE SMOOTH",
"681 0 LINE SMOOTH",
"689 0 OFFCURVE",
"692 6 OFFCURVE",
"692 13 CURVE SMOOTH",
"692 27 OFFCURVE",
"682 37 OFFCURVE",
"662 40 CURVE SMOOTH",
"622 47 LINE",
"400 368 LINE",
"596 645 LINE",
"645 658 LINE SMOOTH",
"665 663 OFFCURVE",
"670 670 OFFCURVE",
"670 682 CURVE SMOOTH",
"670 689 OFFCURVE",
"667 695 OFFCURVE",
"658 695 CURVE SMOOTH",
"494 695 LINE SMOOTH",
"471 695 OFFCURVE",
"458 685 OFFCURVE",
"458 667 CURVE SMOOTH",
"458 654 OFFCURVE",
"464 646 OFFCURVE",
"475 646 CURVE SMOOTH",
"529 646 LINE",
"359 406 LINE",
"196 648 LINE",
"247 655 LINE SMOOTH",
"266 658 OFFCURVE",
"277 668 OFFCURVE",
"277 682 CURVE SMOOTH",
"277 689 OFFCURVE",
"274 695 OFFCURVE",
"266 695 CURVE SMOOTH",
"74 695 LINE SMOOTH",
"52 695 OFFCURVE",
"38 685 OFFCURVE",
"38 667 CURVE SMOOTH",
"38 654 OFFCURVE",
"44 646 OFFCURVE",
"55 646 CURVE SMOOTH",
"101 646 LINE",
"295 356 LINE",
"84 49 LINE",
"51 49 LINE SMOOTH",
"29 49 OFFCURVE",
"15 39 OFFCURVE",
"15 21 CURVE SMOOTH",
"15 8 OFFCURVE",
"21 0 OFFCURVE",
"32 0 CURVE SMOOTH"
);
}
);
width = 707;
}
);
note = X;
unicode = 0058;
},
{
glyphname = Y;
lastChange = "2015-07-30 07:35:18 +0000";
layers = (
{
layerId = "9EA4E357-4DFB-45A6-8407-D27A22F681E3";
name = Light;
paths = (
{
closed = 1;
nodes = (
"444 0 LINE SMOOTH",
"453 0 OFFCURVE",
"456 6 OFFCURVE",
"456 13 CURVE SMOOTH",
"456 26 OFFCURVE",
"447 33 OFFCURVE",
"428 38 CURVE SMOOTH",
"379 50 LINE",
"379 306 LINE",
"608 645 LINE",
"657 658 LINE SMOOTH",
"671 662 OFFCURVE",
"681 670 OFFCURVE",
"681 682 CURVE SMOOTH",
"681 689 OFFCURVE",
"679 695 OFFCURVE",
"670 695 CURVE SMOOTH",
"506 695 LINE SMOOTH",
"483 695 OFFCURVE",
"470 685 OFFCURVE",
"470 667 CURVE SMOOTH",
"470 654 OFFCURVE",
"476 646 OFFCURVE",
"487 646 CURVE SMOOTH",
"542 646 LINE",
"352 363 LINE",
"172 645 LINE",
"228 655 LINE SMOOTH",
"246 658 OFFCURVE",
"256 666 OFFCURVE",
"256 681 CURVE SMOOTH",
"256 688 OFFCURVE",
"253 695 OFFCURVE",
"244 695 CURVE SMOOTH",
"48 695 LINE SMOOTH",
"26 695 OFFCURVE",
"12 685 OFFCURVE",
"12 667 CURVE SMOOTH",
"12 654 OFFCURVE",
"18 646 OFFCURVE",
"29 646 CURVE SMOOTH",
"75 646 LINE",
"299 296 LINE",
"299 49 LINE",
"267 49 LINE SMOOTH",
"244 49 OFFCURVE",
"230 39 OFFCURVE",
"230 21 CURVE SMOOTH",
"230 8 OFFCURVE",
"236 0 OFFCURVE",
"247 0 CURVE SMOOTH"
);
}
);
width = 693;
}
);
note = Y;
unicode = 0059;
},
{
glyphname = Yacute;
lastChange = "2015-07-30 07:35:18 +0000";
layers = (
{
components = (
{
name = Y;
}
);
layerId = "9EA4E357-4DFB-45A6-8407-D27A22F681E3";
name = Light;
paths = (
{
closed = 1;
nodes = (
"432 888 LINE",
"372 927 LINE",
"285 781 LINE",
"330 752 LINE"
);
}
);
width = 693;
}
);
note = Yacute;
unicode = 00DD;
},
{
glyphname = Ycircumflex;
lastChange = "2015-07-30 07:35:18 +0000";
layers = (
{
components = (
{
name = Y;
}
);
layerId = "9EA4E357-4DFB-45A6-8407-D27A22F681E3";
name = Light;
paths = (
{
closed = 1;
nodes = (
"344 850 LINE",
"435 751 LINE",
"472 781 LINE",
"365 917 LINE",
"323 917 LINE",
"216 781 LINE",
"253 751 LINE"
);
}
);
width = 693;
}
);
note = Ycircumflex;
unicode = 0176;
},
{
glyphname = Ydieresis;
lastChange = "2015-07-30 07:35:19 +0000";
layers = (
{
components = (
{
name = Y;
}
);
layerId = "9EA4E357-4DFB-45A6-8407-D27A22F681E3";
name = Light;
paths = (
{
closed = 1;
nodes = (
"466 762 OFFCURVE",
"488 782 OFFCURVE",
"488 811 CURVE SMOOTH",
"488 839 OFFCURVE",
"466 859 OFFCURVE",
"440 859 CURVE SMOOTH",
"413 859 OFFCURVE",
"391 839 OFFCURVE",
"391 811 CURVE SMOOTH",
"391 782 OFFCURVE",
"413 762 OFFCURVE",
"440 762 CURVE SMOOTH"
);
},
{
closed = 1;
nodes = (
"274 762 OFFCURVE",
"296 782 OFFCURVE",
"296 811 CURVE SMOOTH",
"296 839 OFFCURVE",
"274 859 OFFCURVE",
"248 859 CURVE SMOOTH",
"221 859 OFFCURVE",
"199 839 OFFCURVE",
"199 811 CURVE SMOOTH",
"199 782 OFFCURVE",
"221 762 OFFCURVE",
"248 762 CURVE SMOOTH"
);
}
);
width = 693;
}
);
note = Ydieresis;
unicode = 0178;
},
{
glyphname = Ydotaccent;
lastChange = "2015-07-30 07:35:19 +0000";
layers = (
{
components = (
{
name = Y;
}
);
layerId = "9EA4E357-4DFB-45A6-8407-D27A22F681E3";
name = Light;
paths = (
{
closed = 1;
nodes = (
"378 768 OFFCURVE",
"400 789 OFFCURVE",
"400 817 CURVE SMOOTH",
"400 845 OFFCURVE",
"378 866 OFFCURVE",
"351 866 CURVE SMOOTH",
"324 866 OFFCURVE",
"302 845 OFFCURVE",
"302 817 CURVE SMOOTH",
"302 789 OFFCURVE",
"324 768 OFFCURVE",
"351 768 CURVE SMOOTH"
);
}
);
width = 693;
}
);
note = Ydotaccent;
unicode = 1E8E;
},
{
glyphname = Ydotbelow;
lastChange = "2015-07-30 07:35:19 +0000";
layers = (
{
components = (
{
name = Y;
}
);
layerId = "9EA4E357-4DFB-45A6-8407-D27A22F681E3";
name = Light;
paths = (
{
closed = 1;
nodes = (
"367 -164 OFFCURVE",
"389 -143 OFFCURVE",
"389 -115 CURVE SMOOTH",
"389 -86 OFFCURVE",
"367 -65 OFFCURVE",
"340 -65 CURVE SMOOTH",
"313 -65 OFFCURVE",
"291 -86 OFFCURVE",
"291 -115 CURVE SMOOTH",
"291 -143 OFFCURVE",
"313 -164 OFFCURVE",
"340 -164 CURVE SMOOTH"
);
}
);
width = 693;
}
);
note = Ydotbelow;
unicode = 1EF4;
},
{
glyphname = Ygrave;
lastChange = "2015-07-30 07:35:18 +0000";
layers = (
{
components = (
{
name = Y;
}
);
layerId = "9EA4E357-4DFB-45A6-8407-D27A22F681E3";
name = Light;
paths = (
{
closed = 1;
nodes = (
"393 781 LINE",
"306 927 LINE",
"246 888 LINE",
"348 752 LINE"
);
}
);
width = 693;
}
);
note = Ygrave;
unicode = 1EF2;
},
{
glyphname = Yhookabove;
lastChange = "2015-07-30 07:35:19 +0000";
layers = (
{
components = (
{
name = Y;
}
);
layerId = "9EA4E357-4DFB-45A6-8407-D27A22F681E3";
name = Light;
paths = (
{
closed = 1;
nodes = (
"365 750 LINE",
"371 795 LINE",
"406 807 OFFCURVE",
"427 832 OFFCURVE",
"427 863 CURVE SMOOTH",
"427 903 OFFCURVE",
"393 929 OFFCURVE",
"347 929 CURVE SMOOTH",
"325 929 OFFCURVE",
"300 922 OFFCURVE",
"285 916 CURVE",
"292 883 LINE",
"306 887 OFFCURVE",
"323 891 OFFCURVE",
"339 891 CURVE SMOOTH",
"359 891 OFFCURVE",
"372 881 OFFCURVE",
"372 862 CURVE SMOOTH",
"372 840 OFFCURVE",
"354 825 OFFCURVE",
"320 813 CURVE",
"326 750 LINE"
);
}
);
width = 693;
}
);
note = Yhookabove;
unicode = 1EF6;
},
{
glyphname = Ytilde;
lastChange = "2015-07-30 07:35:19 +0000";
layers = (
{
components = (
{
name = Y;
}
);
layerId = "9EA4E357-4DFB-45A6-8407-D27A22F681E3";
name = Light;
paths = (
{
closed = 1;
nodes = (
"434 762 OFFCURVE",
"468 781 OFFCURVE",
"495 807 CURVE",
"467 845 LINE",
"446 829 OFFCURVE",
"425 819 OFFCURVE",
"402 819 CURVE SMOOTH",
"367 819 OFFCURVE",
"328 854 OFFCURVE",
"289 854 CURVE SMOOTH",
"258 854 OFFCURVE",
"221 833 OFFCURVE",
"194 808 CURVE",
"222 771 LINE",
"243 786 OFFCURVE",
"263 797 OFFCURVE",
"288 797 CURVE SMOOTH",
"328 797 OFFCURVE",
"360 762 OFFCURVE",
"403 762 CURVE SMOOTH"
);
}
);
width = 693;
}
);
note = Ytilde;
unicode = 1EF8;
},
{
glyphname = Z;
lastChange = "2015-07-30 07:35:18 +0000";
layers = (
{
layerId = "9EA4E357-4DFB-45A6-8407-D27A22F681E3";
name = Light;
paths = (
{
closed = 1;
nodes = (
"575 0 LINE",
"575 133 LINE SMOOTH",
"575 144 OFFCURVE",
"567 148 OFFCURVE",
"558 148 CURVE SMOOTH",
"543 148 OFFCURVE",
"535 134 OFFCURVE",
"531 110 CURVE SMOOTH",
"521 54 LINE",
"147 54 LINE",
"574 639 LINE",
"574 695 LINE",
"66 695 LINE",
"66 562 LINE SMOOTH",
"66 551 OFFCURVE",
"73 547 OFFCURVE",
"82 547 CURVE SMOOTH",
"98 547 OFFCURVE",
"106 561 OFFCURVE",
"110 585 CURVE SMOOTH",
"120 641 LINE",
"476 641 LINE",
"49 56 LINE",
"49 0 LINE"
);
}
);
width = 629;
}
);
note = Z;
unicode = 005A;
},
{
glyphname = Zacute;
lastChange = "2015-07-30 07:35:18 +0000";
layers = (
{
components = (
{
name = Z;
}
);
layerId = "9EA4E357-4DFB-45A6-8407-D27A22F681E3";
name = Light;
paths = (
{
closed = 1;
nodes = (
"406 887 LINE",
"346 926 LINE",
"259 780 LINE",
"304 751 LINE"
);
}
);
width = 629;
}
);
note = Zacute;
unicode = 0179;
},
{
glyphname = Zcaron;
lastChange = "2015-07-30 07:35:18 +0000";
layers = (
{
components = (
{
name = Z;
}
);
layerId = "9EA4E357-4DFB-45A6-8407-D27A22F681E3";
name = Light;
paths = (
{
closed = 1;
nodes = (
"343 751 LINE",
"450 887 LINE",
"413 917 LINE",
"322 818 LINE",
"231 917 LINE",
"194 887 LINE",
"301 751 LINE"
);
}
);
width = 629;
}
);
note = Zcaron;
unicode = 017D;
},
{
glyphname = Zdotaccent;
lastChange = "2015-07-30 07:35:18 +0000";
layers = (
{
components = (
{
name = Z;
}
);
layerId = "9EA4E357-4DFB-45A6-8407-D27A22F681E3";
name = Light;
paths = (
{
closed = 1;
nodes = (
"348 768 OFFCURVE",
"370 789 OFFCURVE",
"370 817 CURVE SMOOTH",
"370 845 OFFCURVE",
"348 866 OFFCURVE",
"321 866 CURVE SMOOTH",
"294 866 OFFCURVE",
"272 845 OFFCURVE",
"272 817 CURVE SMOOTH",
"272 789 OFFCURVE",
"294 768 OFFCURVE",
"321 768 CURVE SMOOTH"
);
}
);
width = 629;
}
);
note = Zdotaccent;
unicode = 017B;
},
{
glyphname = Zdotbelow;
lastChange = "2015-07-30 07:35:19 +0000";
layers = (
{
components = (
{
name = Z;
}
);
layerId = "9EA4E357-4DFB-45A6-8407-D27A22F681E3";
name = Light;
paths = (
{
closed = 1;
nodes = (
"346 -164 OFFCURVE",
"368 -143 OFFCURVE",
"368 -115 CURVE SMOOTH",
"368 -86 OFFCURVE",
"346 -65 OFFCURVE",
"319 -65 CURVE SMOOTH",
"292 -65 OFFCURVE",
"270 -86 OFFCURVE",
"270 -115 CURVE SMOOTH",
"270 -143 OFFCURVE",
"292 -164 OFFCURVE",
"319 -164 CURVE SMOOTH"
);
}
);
width = 629;
}
);
note = Zdotbelow;
unicode = 1E92;
},
{
glyphname = a;
lastChange = "2015-07-30 07:35:19 +0000";
layers = (
{
layerId = "9EA4E357-4DFB-45A6-8407-D27A22F681E3";
name = Light;
paths = (
{
closed = 1;
nodes = (
"274 -12 OFFCURVE",
"331 24 OFFCURVE",
"365 70 CURVE",
"369 70 LINE",
"369 0 LINE",
"495 0 LINE SMOOTH",
"504 0 OFFCURVE",
"506 6 OFFCURVE",
"506 12 CURVE SMOOTH",
"506 25 OFFCURVE",
"497 31 OFFCURVE",
"479 36 CURVE SMOOTH",
"442 46 LINE",
"442 340 LINE SMOOTH",
"442 444 OFFCURVE",
"364 499 OFFCURVE",
"264 499 CURVE SMOOTH",
"197 499 OFFCURVE",
"122 474 OFFCURVE",
"71 443 CURVE",
"71 352 LINE SMOOTH",
"71 345 OFFCURVE",
"76 339 OFFCURVE",
"86 339 CURVE SMOOTH",
"100 339 OFFCURVE",
"109 350 OFFCURVE",
"112 368 CURVE SMOOTH",
"120 412 LINE",
"153 433 OFFCURVE",
"211 450 OFFCURVE",
"253 450 CURVE SMOOTH",
"326 450 OFFCURVE",
"367 404 OFFCURVE",
"367 341 CURVE SMOOTH",
"367 297 LINE",
"226 276 LINE SMOOTH",
"133 262 OFFCURVE",
"44 227 OFFCURVE",
"44 125 CURVE SMOOTH",
"44 33 OFFCURVE",
"119 -12 OFFCURVE",
"197 -12 CURVE SMOOTH"
);
},
{
closed = 1;
nodes = (
"164 39 OFFCURVE",
"120 68 OFFCURVE",
"120 129 CURVE SMOOTH",
"120 192 OFFCURVE",
"172 218 OFFCURVE",
"243 230 CURVE SMOOTH",
"367 250 LINE",
"367 170 LINE SMOOTH",
"367 96 OFFCURVE",
"294 39 OFFCURVE",
"220 39 CURVE SMOOTH"
);
}
);
width = 528;
}
);
note = a;
unicode = 0061;
},
{
glyphname = aacute;
lastChange = "2015-07-30 07:35:18 +0000";
layers = (
{
components = (
{
name = a;
}
);
layerId = "9EA4E357-4DFB-45A6-8407-D27A22F681E3";
name = Light;
paths = (
{
closed = 1;
nodes = (
"347 695 LINE",
"287 734 LINE",
"200 588 LINE",
"245 559 LINE"
);
}
);
width = 528;
}
);
note = aacute;
unicode = 00E1;
},
{
glyphname = abreve;
lastChange = "2015-07-30 07:35:18 +0000";
layers = (
{
components = (
{
name = a;
}
);
layerId = "9EA4E357-4DFB-45A6-8407-D27A22F681E3";
name = Light;
paths = (
{
closed = 1;
nodes = (
"324 550 OFFCURVE",
"383 583 OFFCURVE",
"407 670 CURVE",
"361 686 LINE",
"347 638 OFFCURVE",
"312 604 OFFCURVE",
"261 604 CURVE SMOOTH",
"210 604 OFFCURVE",
"175 638 OFFCURVE",
"161 686 CURVE",
"115 670 LINE",
"139 583 OFFCURVE",
"198 550 OFFCURVE",
"261 550 CURVE SMOOTH"
);
}
);
width = 528;
}
);
note = abreve;
unicode = 0103;
},
{
glyphname = abreveacute;
lastChange = "2015-07-30 07:35:19 +0000";
layers = (
{
components = (
{
name = a;
}
);
layerId = "9EA4E357-4DFB-45A6-8407-D27A22F681E3";
name = Light;
paths = (
{
closed = 1;
nodes = (
"323 550 OFFCURVE",
"382 583 OFFCURVE",
"406 670 CURVE",
"360 686 LINE",
"346 638 OFFCURVE",
"311 604 OFFCURVE",
"260 604 CURVE SMOOTH",
"209 604 OFFCURVE",
"174 638 OFFCURVE",
"160 686 CURVE",
"114 670 LINE",
"138 583 OFFCURVE",
"197 550 OFFCURVE",
"260 550 CURVE SMOOTH"
);
},
{
closed = 1;
nodes = (
"361 800 LINE",
"304 836 LINE",
"225 701 LINE",
"266 675 LINE"
);
}
);
width = 528;
}
);
note = abreveacute;
unicode = 1EAF;
},
{
glyphname = abrevedotbelow;
lastChange = "2015-07-30 07:35:19 +0000";
layers = (
{
components = (
{
name = a;
}
);
layerId = "9EA4E357-4DFB-45A6-8407-D27A22F681E3";
name = Light;
paths = (
{
closed = 1;
nodes = (
"322 550 OFFCURVE",
"381 583 OFFCURVE",
"405 670 CURVE",
"359 686 LINE",
"345 638 OFFCURVE",
"310 604 OFFCURVE",
"259 604 CURVE SMOOTH",
"208 604 OFFCURVE",
"173 638 OFFCURVE",
"159 686 CURVE",
"113 670 LINE",
"137 583 OFFCURVE",
"196 550 OFFCURVE",
"259 550 CURVE SMOOTH"
);
},
{
closed = 1;
nodes = (
"295 -164 OFFCURVE",
"317 -143 OFFCURVE",
"317 -115 CURVE SMOOTH",
"317 -86 OFFCURVE",
"295 -65 OFFCURVE",
"268 -65 CURVE SMOOTH",
"241 -65 OFFCURVE",
"219 -86 OFFCURVE",
"219 -115 CURVE SMOOTH",
"219 -143 OFFCURVE",
"241 -164 OFFCURVE",
"268 -164 CURVE SMOOTH"
);
}
);
width = 528;
}
);
note = abrevedotbelow;
unicode = 1EB7;
},
{
glyphname = abrevegrave;
lastChange = "2015-07-30 07:35:19 +0000";
layers = (
{
components = (
{
name = a;
}
);
layerId = "9EA4E357-4DFB-45A6-8407-D27A22F681E3";
name = Light;
paths = (
{
closed = 1;
nodes = (
"323 550 OFFCURVE",
"382 583 OFFCURVE",
"406 670 CURVE",
"360 686 LINE",
"346 638 OFFCURVE",
"311 604 OFFCURVE",
"260 604 CURVE SMOOTH",
"209 604 OFFCURVE",
"174 638 OFFCURVE",
"160 686 CURVE",
"114 670 LINE",
"138 583 OFFCURVE",
"197 550 OFFCURVE",
"260 550 CURVE SMOOTH"
);
},
{
closed = 1;
nodes = (
"296 701 LINE",
"217 836 LINE",
"160 800 LINE",
"254 675 LINE"
);
}
);
width = 528;
}
);
note = abrevegrave;
unicode = 1EB1;
},
{
glyphname = abrevehookabove;
lastChange = "2015-07-30 07:35:19 +0000";
layers = (
{
components = (
{
name = a;
}
);
layerId = "9EA4E357-4DFB-45A6-8407-D27A22F681E3";
name = Light;
paths = (
{
closed = 1;
nodes = (
"323 550 OFFCURVE",
"382 583 OFFCURVE",
"406 670 CURVE",
"360 686 LINE",
"346 638 OFFCURVE",
"311 604 OFFCURVE",
"260 604 CURVE SMOOTH",
"209 604 OFFCURVE",
"174 638 OFFCURVE",
"160 686 CURVE",
"114 670 LINE",
"138 583 OFFCURVE",
"197 550 OFFCURVE",
"260 550 CURVE SMOOTH"
);
},
{
closed = 1;
nodes = (
"280 675 LINE",
"285 719 LINE",
"318 730 OFFCURVE",
"339 753 OFFCURVE",
"339 783 CURVE SMOOTH",
"339 821 OFFCURVE",
"307 847 OFFCURVE",
"262 847 CURVE SMOOTH",
"242 847 OFFCURVE",
"218 840 OFFCURVE",
"203 834 CURVE",
"210 802 LINE",
"224 806 OFFCURVE",
"239 810 OFFCURVE",
"254 810 CURVE SMOOTH",
"274 810 OFFCURVE",
"286 800 OFFCURVE",
"286 782 CURVE SMOOTH",
"286 761 OFFCURVE",
"268 747 OFFCURVE",
"236 736 CURVE",
"241 675 LINE"
);
}
);
width = 528;
}
);
note = abrevehookabove;
unicode = 1EB3;
},
{
glyphname = abrevetilde;
lastChange = "2015-07-30 07:35:19 +0000";
layers = (
{
components = (
{
name = a;
}
);
layerId = "9EA4E357-4DFB-45A6-8407-D27A22F681E3";
name = Light;
paths = (
{
closed = 1;
nodes = (
"324 550 OFFCURVE",
"383 583 OFFCURVE",
"407 670 CURVE",
"361 686 LINE",
"347 638 OFFCURVE",
"312 604 OFFCURVE",
"261 604 CURVE SMOOTH",
"210 604 OFFCURVE",
"175 638 OFFCURVE",
"161 686 CURVE",
"115 670 LINE",
"139 583 OFFCURVE",
"198 550 OFFCURVE",
"261 550 CURVE SMOOTH"
);
},
{
closed = 1;
nodes = (
"330 725 OFFCURVE",
"356 740 OFFCURVE",
"377 760 CURVE",
"355 796 LINE",
"339 784 OFFCURVE",
"323 775 OFFCURVE",
"305 775 CURVE SMOOTH",
"278 775 OFFCURVE",
"248 803 OFFCURVE",
"218 803 CURVE SMOOTH",
"195 803 OFFCURVE",
"167 787 OFFCURVE",
"146 768 CURVE",
"168 732 LINE",
"183 744 OFFCURVE",
"198 753 OFFCURVE",
"218 753 CURVE SMOOTH",
"249 753 OFFCURVE",
"273 725 OFFCURVE",
"306 725 CURVE SMOOTH"
);
}
);
width = 528;
}
);
note = abrevetilde;
unicode = 1EB5;
},
{
glyphname = acaron;
lastChange = "2015-07-30 07:35:19 +0000";
layers = (
{
components = (
{
name = a;
}
);
layerId = "9EA4E357-4DFB-45A6-8407-D27A22F681E3";
name = Light;
paths = (
{
closed = 1;
nodes = (
"284 559 LINE",
"391 695 LINE",
"354 725 LINE",
"263 626 LINE",
"172 725 LINE",
"135 695 LINE",
"242 559 LINE"
);
}
);
width = 528;
}
);
note = acaron;
unicode = 01CE;
},
{
glyphname = acircumflex;
lastChange = "2015-07-30 07:35:18 +0000";
layers = (
{
components = (
{
name = a;
}
);
layerId = "9EA4E357-4DFB-45A6-8407-D27A22F681E3";
name = Light;
paths = (
{
closed = 1;
nodes = (
"259 658 LINE",
"350 559 LINE",
"387 589 LINE",
"280 725 LINE",
"238 725 LINE",
"131 589 LINE",
"168 559 LINE"
);
}
);
width = 528;
}
);
note = acircumflex;
unicode = 00E2;
},
{
glyphname = acircumflexacute;
lastChange = "2015-07-30 07:35:19 +0000";
layers = (
{
components = (
{
name = a;
}
);
layerId = "9EA4E357-4DFB-45A6-8407-D27A22F681E3";
name = Light;
paths = (
{
closed = 1;
nodes = (
"258 658 LINE",
"349 559 LINE",
"386 589 LINE",
"279 725 LINE",
"237 725 LINE",
"130 589 LINE",
"167 559 LINE"
);
},
{
closed = 1;
nodes = (
"469 758 LINE",
"415 793 LINE",
"352 684 LINE",
"389 659 LINE"
);
}
);
width = 528;
}
);
note = acircumflexacute;
unicode = 1EA5;
},
{
glyphname = acircumflexdotbelow;
lastChange = "2015-07-30 07:35:19 +0000";
layers = (
{
components = (
{
name = a;
}
);
layerId = "9EA4E357-4DFB-45A6-8407-D27A22F681E3";
name = Light;
paths = (
{
closed = 1;
nodes = (
"259 658 LINE",
"350 559 LINE",
"387 589 LINE",
"280 725 LINE",
"238 725 LINE",
"131 589 LINE",
"168 559 LINE"
);
},
{
closed = 1;
nodes = (
"287 -164 OFFCURVE",
"309 -143 OFFCURVE",
"309 -115 CURVE SMOOTH",
"309 -86 OFFCURVE",
"287 -65 OFFCURVE",
"260 -65 CURVE SMOOTH",
"233 -65 OFFCURVE",
"211 -86 OFFCURVE",
"211 -115 CURVE SMOOTH",
"211 -143 OFFCURVE",
"233 -164 OFFCURVE",
"260 -164 CURVE SMOOTH"
);
}
);
width = 528;
}
);
note = acircumflexdotbelow;
unicode = 1EAD;
},
{
glyphname = acircumflexgrave;
lastChange = "2015-07-30 07:35:19 +0000";
layers = (
{
components = (
{
name = a;
transform = "{1, 0, 0, 1, 14, 0}";
}
);
layerId = "9EA4E357-4DFB-45A6-8407-D27A22F681E3";
name = Light;
paths = (
{
closed = 1;
nodes = (
"275 658 LINE",
"366 559 LINE",
"403 589 LINE",
"296 725 LINE",
"254 725 LINE",
"147 589 LINE",
"184 559 LINE"
);
},
{
closed = 1;
nodes = (
"180 684 LINE",
"118 793 LINE",
"63 758 LINE",
"143 659 LINE"
);
}
);
width = 542;
}
);
note = acircumflexgrave;
unicode = 1EA7;
},
{
glyphname = acircumflexhookabove;
lastChange = "2015-07-30 07:35:19 +0000";
layers = (
{
components = (
{
name = a;
}
);
layerId = "9EA4E357-4DFB-45A6-8407-D27A22F681E3";
name = Light;
paths = (
{
closed = 1;
nodes = (
"262 658 LINE",
"353 559 LINE",
"390 589 LINE",
"283 725 LINE",
"241 725 LINE",
"134 589 LINE",
"171 559 LINE"
);
},
{
closed = 1;
nodes = (
"427 654 LINE",
"432 697 LINE",
"465 709 OFFCURVE",
"486 731 OFFCURVE",
"486 761 CURVE SMOOTH",
"486 800 OFFCURVE",
"454 825 OFFCURVE",
"409 825 CURVE SMOOTH",
"389 825 OFFCURVE",
"365 818 OFFCURVE",
"350 812 CURVE",
"357 781 LINE",
"371 785 OFFCURVE",
"386 788 OFFCURVE",
"401 788 CURVE SMOOTH",
"421 788 OFFCURVE",
"433 779 OFFCURVE",
"433 761 CURVE SMOOTH",
"433 740 OFFCURVE",
"415 725 OFFCURVE",
"383 714 CURVE",
"388 654 LINE"
);
}
);
width = 537;
}
);
note = acircumflexhookabove;
unicode = 1EA9;
},
{
glyphname = acircumflextilde;
lastChange = "2015-07-30 07:35:19 +0000";
layers = (
{
components = (
{
name = a;
}
);
layerId = "9EA4E357-4DFB-45A6-8407-D27A22F681E3";
name = Light;
paths = (
{
closed = 1;
nodes = (
"262 658 LINE",
"353 559 LINE",
"390 589 LINE",
"283 725 LINE",
"241 725 LINE",
"134 589 LINE",
"171 559 LINE"
);
},
{
closed = 1;
nodes = (
"332 755 OFFCURVE",
"358 770 OFFCURVE",
"379 790 CURVE",
"357 825 LINE",
"341 813 OFFCURVE",
"325 805 OFFCURVE",
"307 805 CURVE SMOOTH",
"280 805 OFFCURVE",
"250 832 OFFCURVE",
"220 832 CURVE SMOOTH",
"197 832 OFFCURVE",
"169 816 OFFCURVE",
"148 798 CURVE",
"170 762 LINE",
"185 773 OFFCURVE",
"200 783 OFFCURVE",
"220 783 CURVE SMOOTH",
"251 783 OFFCURVE",
"275 755 OFFCURVE",
"308 755 CURVE SMOOTH"
);
}
);
width = 528;
}
);
note = acircumflextilde;
unicode = 1EAB;
},
{
glyphname = adieresis;
lastChange = "2015-07-30 07:35:19 +0000";
layers = (
{
components = (
{
name = a;
}
);
layerId = "9EA4E357-4DFB-45A6-8407-D27A22F681E3";
name = Light;
paths = (
{
closed = 1;
nodes = (
"390 565 OFFCURVE",
"412 586 OFFCURVE",
"412 614 CURVE SMOOTH",
"412 642 OFFCURVE",
"390 663 OFFCURVE",
"364 663 CURVE SMOOTH",
"337 663 OFFCURVE",
"315 642 OFFCURVE",
"315 614 CURVE SMOOTH",
"315 586 OFFCURVE",
"337 565 OFFCURVE",
"364 565 CURVE SMOOTH"
);
},
{
closed = 1;
nodes = (
"198 565 OFFCURVE",
"220 586 OFFCURVE",
"220 614 CURVE SMOOTH",
"220 642 OFFCURVE",
"198 663 OFFCURVE",
"172 663 CURVE SMOOTH",
"145 663 OFFCURVE",
"123 642 OFFCURVE",
"123 614 CURVE SMOOTH",
"123 586 OFFCURVE",
"145 565 OFFCURVE",
"172 565 CURVE SMOOTH"
);
}
);
width = 528;
}
);
note = adieresis;
unicode = 00E4;
},
{
glyphname = adotbelow;
lastChange = "2015-07-30 07:35:19 +0000";
layers = (
{
components = (
{
name = a;
}
);
layerId = "9EA4E357-4DFB-45A6-8407-D27A22F681E3";
name = Light;
paths = (
{
closed = 1;
nodes = (
"287 -164 OFFCURVE",
"309 -143 OFFCURVE",
"309 -115 CURVE SMOOTH",
"309 -86 OFFCURVE",
"287 -65 OFFCURVE",
"260 -65 CURVE SMOOTH",
"233 -65 OFFCURVE",
"211 -86 OFFCURVE",
"211 -115 CURVE SMOOTH",
"211 -143 OFFCURVE",
"233 -164 OFFCURVE",
"260 -164 CURVE SMOOTH"
);
}
);
width = 528;
}
);
note = adotbelow;
unicode = 1EA1;
},
{
glyphname = agrave;
lastChange = "2015-07-30 07:35:18 +0000";
layers = (
{
components = (
{
name = a;
}
);
layerId = "9EA4E357-4DFB-45A6-8407-D27A22F681E3";
name = Light;
paths = (
{
closed = 1;
nodes = (
"325 588 LINE",
"238 734 LINE",
"178 695 LINE",
"280 559 LINE"
);
}
);
width = 528;
}
);
note = agrave;
unicode = 00E0;
},
{
glyphname = ahookabove;
lastChange = "2015-07-30 07:35:19 +0000";
layers = (
{
components = (
{
name = a;
}
);
layerId = "9EA4E357-4DFB-45A6-8407-D27A22F681E3";
name = Light;
paths = (
{
closed = 1;
nodes = (
"286 557 LINE",
"292 602 LINE",
"327 614 OFFCURVE",
"348 639 OFFCURVE",
"348 670 CURVE SMOOTH",
"348 710 OFFCURVE",
"314 736 OFFCURVE",
"268 736 CURVE SMOOTH",
"246 736 OFFCURVE",
"221 729 OFFCURVE",
"206 723 CURVE",
"213 690 LINE",
"227 694 OFFCURVE",
"244 698 OFFCURVE",
"260 698 CURVE SMOOTH",
"281 698 OFFCURVE",
"293 688 OFFCURVE",
"293 669 CURVE SMOOTH",
"293 647 OFFCURVE",
"275 632 OFFCURVE",
"241 620 CURVE",
"247 557 LINE"
);
}
);
width = 528;
}
);
note = ahookabove;
unicode = 1EA3;
},
{
glyphname = amacron;
lastChange = "2015-07-30 07:35:18 +0000";
layers = (
{
components = (
{
name = a;
}
);
layerId = "9EA4E357-4DFB-45A6-8407-D27A22F681E3";
name = Light;
paths = (
{
closed = 1;
nodes = (
"402 581 LINE",
"402 636 LINE",
"120 636 LINE",
"120 581 LINE"
);
}
);
width = 528;
}
);
note = amacron;
unicode = 0101;
},
{
glyphname = aogonek;
lastChange = "2015-07-30 07:35:19 +0000";
layers = (
{
layerId = "9EA4E357-4DFB-45A6-8407-D27A22F681E3";
name = Light;
paths = (
{
closed = 1;
nodes = (
"422 -207 OFFCURVE",
"444 -202 OFFCURVE",
"462 -194 CURVE",
"455 -160 LINE",
"442 -164 OFFCURVE",
"430 -166 OFFCURVE",
"415 -166 CURVE SMOOTH",
"377 -166 OFFCURVE",
"349 -147 OFFCURVE",
"349 -107 CURVE SMOOTH",
"349 -61 OFFCURVE",
"387 -19 OFFCURVE",
"426 0 CURVE",
"495 0 LINE SMOOTH",
"504 0 OFFCURVE",
"506 6 OFFCURVE",
"506 12 CURVE SMOOTH",
"506 25 OFFCURVE",
"497 31 OFFCURVE",
"479 36 CURVE SMOOTH",
"442 46 LINE",
"442 340 LINE SMOOTH",
"442 444 OFFCURVE",
"364 499 OFFCURVE",
"264 499 CURVE SMOOTH",
"197 499 OFFCURVE",
"122 474 OFFCURVE",
"71 443 CURVE",
"71 352 LINE SMOOTH",
"71 345 OFFCURVE",
"76 339 OFFCURVE",
"86 339 CURVE SMOOTH",
"100 339 OFFCURVE",
"109 350 OFFCURVE",
"112 368 CURVE SMOOTH",
"120 412 LINE",
"153 433 OFFCURVE",
"211 450 OFFCURVE",
"253 450 CURVE SMOOTH",
"326 450 OFFCURVE",
"367 404 OFFCURVE",
"367 341 CURVE SMOOTH",
"367 297 LINE",
"226 276 LINE SMOOTH",
"133 262 OFFCURVE",
"44 227 OFFCURVE",
"44 125 CURVE SMOOTH",
"44 33 OFFCURVE",
"119 -12 OFFCURVE",
"197 -12 CURVE SMOOTH",
"274 -12 OFFCURVE",
"331 24 OFFCURVE",
"365 70 CURVE",
"369 70 LINE",
"369 0 LINE",
"368 0 LINE",
"325 -23 OFFCURVE",
"294 -63 OFFCURVE",
"294 -109 CURVE SMOOTH",
"294 -172 OFFCURVE",
"341 -207 OFFCURVE",
"404 -207 CURVE SMOOTH"
);
},
{
closed = 1;
nodes = (
"164 39 OFFCURVE",
"120 68 OFFCURVE",
"120 129 CURVE SMOOTH",
"120 192 OFFCURVE",
"172 218 OFFCURVE",
"243 230 CURVE SMOOTH",
"367 250 LINE",
"367 170 LINE SMOOTH",
"367 96 OFFCURVE",
"294 39 OFFCURVE",
"220 39 CURVE SMOOTH"
);
}
);
width = 528;
}
);
note = aogonek;
unicode = 0105;
},
{
glyphname = aring;
lastChange = "2015-07-31 07:51:29 +0000";
layers = (
{
components = (
{
name = a;
}
);
layerId = "9EA4E357-4DFB-45A6-8407-D27A22F681E3";
name = Light;
paths = (
{
closed = 1;
nodes = (
"326 549 OFFCURVE",
"361 588 OFFCURVE",
"361 636 CURVE SMOOTH",
"361 683 OFFCURVE",
"326 723 OFFCURVE",
"269 723 CURVE SMOOTH",
"212 723 OFFCURVE",
"177 683 OFFCURVE",
"177 636 CURVE SMOOTH",
"177 588 OFFCURVE",
"212 549 OFFCURVE",
"269 549 CURVE SMOOTH"
);
},
{
closed = 1;
nodes = (
"243 589 OFFCURVE",
"223 605 OFFCURVE",
"223 636 CURVE SMOOTH",
"223 666 OFFCURVE",
"243 682 OFFCURVE",
"269 682 CURVE SMOOTH",
"294 682 OFFCURVE",
"314 666 OFFCURVE",
"314 636 CURVE SMOOTH",
"314 605 OFFCURVE",
"294 589 OFFCURVE",
"269 589 CURVE SMOOTH"
);
}
);
width = 528;
}
);
note = aring;
unicode = 00E5;
},
{
glyphname = aringacute;
lastChange = "2015-07-31 07:51:35 +0000";
layers = (
{
components = (
{
name = a;
}
);
layerId = "9EA4E357-4DFB-45A6-8407-D27A22F681E3";
name = Light;
paths = (
{
closed = 1;
nodes = (
"314 548 OFFCURVE",
"349 587 OFFCURVE",
"349 635 CURVE SMOOTH",
"349 682 OFFCURVE",
"314 722 OFFCURVE",
"257 722 CURVE SMOOTH",
"200 722 OFFCURVE",
"165 682 OFFCURVE",
"165 635 CURVE SMOOTH",
"165 587 OFFCURVE",
"200 548 OFFCURVE",
"257 548 CURVE SMOOTH"
);
},
{
closed = 1;
nodes = (
"231 588 OFFCURVE",
"211 604 OFFCURVE",
"211 635 CURVE SMOOTH",
"211 665 OFFCURVE",
"231 681 OFFCURVE",
"257 681 CURVE SMOOTH",
"282 681 OFFCURVE",
"302 665 OFFCURVE",
"302 635 CURVE SMOOTH",
"302 604 OFFCURVE",
"282 588 OFFCURVE",
"257 588 CURVE SMOOTH"
);
},
{
closed = 1;
nodes = (
"385 878 LINE",
"325 916 LINE",
"238 781 LINE",
"283 752 LINE"
);
}
);
width = 528;
}
);
note = aringacute;
unicode = 01FB;
},
{
glyphname = ascript;
lastChange = "2015-07-30 07:35:19 +0000";
layers = (
{
layerId = "9EA4E357-4DFB-45A6-8407-D27A22F681E3";
name = Light;
paths = (
{
closed = 1;
nodes = (
"333 -12 OFFCURVE",
"381 23 OFFCURVE",
"411 66 CURVE",
"414 66 LINE",
"414 0 LINE",
"540 0 LINE SMOOTH",
"549 0 OFFCURVE",
"551 6 OFFCURVE",
"551 12 CURVE SMOOTH",
"551 25 OFFCURVE",
"542 31 OFFCURVE",
"524 36 CURVE SMOOTH",
"485 47 LINE",
"485 489 LINE",
"440 489 LINE SMOOTH",
"424 489 OFFCURVE",
"413 482 OFFCURVE",
"411 452 CURVE",
"372 479 OFFCURVE",
"324 499 OFFCURVE",
"264 499 CURVE SMOOTH",
"137 499 OFFCURVE",
"39 400 OFFCURVE",
"39 240 CURVE SMOOTH",
"39 65 OFFCURVE",
"139 -12 OFFCURVE",
"255 -12 CURVE SMOOTH"
);
},
{
closed = 1;
nodes = (
"169 37 OFFCURVE",
"115 113 OFFCURVE",
"115 240 CURVE SMOOTH",
"115 380 OFFCURVE",
"189 450 OFFCURVE",
"278 450 CURVE SMOOTH",
"329 450 OFFCURVE",
"374 430 OFFCURVE",
"410 399 CURVE",
"410 172 LINE SMOOTH",
"410 93 OFFCURVE",
"347 37 OFFCURVE",
"273 37 CURVE SMOOTH"
);
}
);
width = 578;
}
);
note = ascript;
unicode = 0251;
},
{
glyphname = atilde;
lastChange = "2015-07-30 07:35:18 +0000";
layers = (
{
components = (
{
name = a;
}
);
layerId = "9EA4E357-4DFB-45A6-8407-D27A22F681E3";
name = Light;
paths = (
{
closed = 1;
nodes = (
"349 568 OFFCURVE",
"383 587 OFFCURVE",
"410 613 CURVE",
"382 651 LINE",
"361 635 OFFCURVE",
"340 625 OFFCURVE",
"317 625 CURVE SMOOTH",
"282 625 OFFCURVE",
"243 660 OFFCURVE",
"204 660 CURVE SMOOTH",
"173 660 OFFCURVE",
"136 639 OFFCURVE",
"109 614 CURVE",
"137 577 LINE",
"158 592 OFFCURVE",
"178 603 OFFCURVE",
"203 603 CURVE SMOOTH",
"243 603 OFFCURVE",
"275 568 OFFCURVE",
"318 568 CURVE SMOOTH"
);
}
);
width = 528;
}
);
note = atilde;
unicode = 00E3;
},
{
glyphname = ae;
lastChange = "2015-07-30 07:35:19 +0000";
layers = (
{
layerId = "9EA4E357-4DFB-45A6-8407-D27A22F681E3";
name = Light;
paths = (
{
closed = 1;
nodes = (
"287 -12 OFFCURVE",
"360 33 OFFCURVE",
"396 106 CURVE",
"436 29 OFFCURVE",
"511 -12 OFFCURVE",
"603 -12 CURVE SMOOTH",
"657 -12 OFFCURVE",
"704 0 OFFCURVE",
"745 25 CURVE SMOOTH",
"764 37 OFFCURVE",
"776 48 OFFCURVE",
"776 62 CURVE SMOOTH",
"776 76 OFFCURVE",
"767 86 OFFCURVE",
"756 86 CURVE SMOOTH",
"749 86 OFFCURVE",
"745 83 OFFCURVE",
"735 77 CURVE SMOOTH",
"696 50 OFFCURVE",
"658 37 OFFCURVE",
"606 37 CURVE SMOOTH",
"503 37 OFFCURVE",
"441 118 OFFCURVE",
"440 223 CURVE",
"440 235 LINE",
"790 235 LINE",
"797 252 OFFCURVE",
"803 275 OFFCURVE",
"803 297 CURVE SMOOTH",
"803 411 OFFCURVE",
"727 499 OFFCURVE",
"594 499 CURVE SMOOTH",
"515 499 OFFCURVE",
"456 462 OFFCURVE",
"419 403 CURVE",
"395 464 OFFCURVE",
"335 499 OFFCURVE",
"264 499 CURVE SMOOTH",
"197 499 OFFCURVE",
"122 474 OFFCURVE",
"71 443 CURVE",
"71 352 LINE SMOOTH",
"71 345 OFFCURVE",
"76 339 OFFCURVE",
"86 339 CURVE SMOOTH",
"100 339 OFFCURVE",
"109 350 OFFCURVE",
"112 368 CURVE SMOOTH",
"120 412 LINE",
"153 433 OFFCURVE",
"211 450 OFFCURVE",
"253 450 CURVE SMOOTH",
"319 450 OFFCURVE",
"367 411 OFFCURVE",
"367 340 CURVE SMOOTH",
"367 291 LINE",
"217 268 LINE SMOOTH",
"130 255 OFFCURVE",
"44 222 OFFCURVE",
"44 121 CURVE SMOOTH",
"44 32 OFFCURVE",
"119 -12 OFFCURVE",
"197 -12 CURVE SMOOTH"
);
},
{
closed = 1;
nodes = (
"164 39 OFFCURVE",
"120 68 OFFCURVE",
"120 125 CURVE SMOOTH",
"120 187 OFFCURVE",
"171 212 OFFCURVE",
"234 223 CURVE SMOOTH",
"364 243 LINE",
"364 219 LINE",
"365 203 OFFCURVE",
"367 196 OFFCURVE",
"369 178 CURVE",
"369 106 OFFCURVE",
"294 39 OFFCURVE",
"220 39 CURVE SMOOTH"
);
},
{
closed = 1;
nodes = (
"447 393 OFFCURVE",
"508 450 OFFCURVE",
"593 450 CURVE SMOOTH",
"675 450 OFFCURVE",
"728 395 OFFCURVE",
"728 312 CURVE SMOOTH",
"728 303 OFFCURVE",
"726 292 OFFCURVE",
"724 284 CURVE",
"440 284 LINE"
);
}
);
width = 841;
}
);
note = ae;
unicode = 00E6;
},
{
glyphname = aeacute;
lastChange = "2015-07-30 07:35:19 +0000";
layers = (
{
layerId = "9EA4E357-4DFB-45A6-8407-D27A22F681E3";
name = Light;
paths = (
{
closed = 1;
nodes = (
"287 -12 OFFCURVE",
"360 33 OFFCURVE",
"396 106 CURVE",
"436 29 OFFCURVE",
"511 -12 OFFCURVE",
"603 -12 CURVE SMOOTH",
"657 -12 OFFCURVE",
"704 0 OFFCURVE",
"745 25 CURVE SMOOTH",
"764 37 OFFCURVE",
"776 48 OFFCURVE",
"776 62 CURVE SMOOTH",
"776 76 OFFCURVE",
"767 86 OFFCURVE",
"756 86 CURVE SMOOTH",
"749 86 OFFCURVE",
"745 83 OFFCURVE",
"735 77 CURVE SMOOTH",
"696 50 OFFCURVE",
"658 37 OFFCURVE",
"606 37 CURVE SMOOTH",
"508 37 OFFCURVE",
"441 108 OFFCURVE",
"440 235 CURVE",
"790 235 LINE",
"797 252 OFFCURVE",
"803 275 OFFCURVE",
"803 297 CURVE SMOOTH",
"803 411 OFFCURVE",
"727 499 OFFCURVE",
"594 499 CURVE SMOOTH",
"515 499 OFFCURVE",
"456 462 OFFCURVE",
"419 403 CURVE",
"395 464 OFFCURVE",
"335 499 OFFCURVE",
"264 499 CURVE SMOOTH",
"197 499 OFFCURVE",
"122 474 OFFCURVE",
"71 443 CURVE",
"71 352 LINE SMOOTH",
"71 345 OFFCURVE",
"76 339 OFFCURVE",
"86 339 CURVE SMOOTH",
"100 339 OFFCURVE",
"108 349 OFFCURVE",
"112 368 CURVE SMOOTH",
"120 412 LINE",
"153 433 OFFCURVE",
"211 450 OFFCURVE",
"253 450 CURVE SMOOTH",
"319 450 OFFCURVE",
"367 411 OFFCURVE",
"367 340 CURVE SMOOTH",
"367 291 LINE",
"217 268 LINE SMOOTH",
"130 255 OFFCURVE",
"44 222 OFFCURVE",
"44 121 CURVE SMOOTH",
"44 32 OFFCURVE",
"119 -12 OFFCURVE",
"197 -12 CURVE SMOOTH"
);
},
{
closed = 1;
nodes = (
"164 39 OFFCURVE",
"120 68 OFFCURVE",
"120 125 CURVE SMOOTH",
"120 187 OFFCURVE",
"171 212 OFFCURVE",
"234 223 CURVE SMOOTH",
"364 243 LINE",
"364 219 LINE",
"365 203 OFFCURVE",
"367 196 OFFCURVE",
"369 178 CURVE",
"369 106 OFFCURVE",
"294 39 OFFCURVE",
"220 39 CURVE SMOOTH"
);
},
{
closed = 1;
nodes = (
"447 393 OFFCURVE",
"508 450 OFFCURVE",
"593 450 CURVE SMOOTH",
"675 450 OFFCURVE",
"728 395 OFFCURVE",
"728 312 CURVE SMOOTH",
"728 303 OFFCURVE",
"726 292 OFFCURVE",
"724 284 CURVE",
"440 284 LINE"
);
},
{
closed = 1;
nodes = (
"518 695 LINE",
"458 734 LINE",
"371 588 LINE",
"416 559 LINE"
);
}
);
width = 841;
}
);
note = aeacute;
unicode = 01FD;
},
{
glyphname = b;
lastChange = "2015-07-30 07:35:19 +0000";
layers = (
{
layerId = "9EA4E357-4DFB-45A6-8407-D27A22F681E3";
name = Light;
paths = (
{
closed = 1;
nodes = (
"430 -12 OFFCURVE",
"536 66 OFFCURVE",
"536 240 CURVE SMOOTH",
"536 419 OFFCURVE",
"445 499 OFFCURVE",
"325 499 CURVE SMOOTH",
"260 499 OFFCURVE",
"203 473 OFFCURVE",
"163 424 CURVE",
"160 426 LINE",
"160 710 LINE",
"56 710 LINE SMOOTH",
"36 710 OFFCURVE",
"21 702 OFFCURVE",
"21 683 CURVE SMOOTH",
"21 670 OFFCURVE",
"27 663 OFFCURVE",
"37 663 CURVE SMOOTH",
"87 663 LINE",
"87 47 LINE",
"144 12 OFFCURVE",
"226 -12 OFFCURVE",
"294 -12 CURVE SMOOTH"
);
},
{
closed = 1;
nodes = (
"249 37 OFFCURVE",
"196 51 OFFCURVE",
"161 73 CURVE",
"161 325 LINE SMOOTH",
"161 394 OFFCURVE",
"230 450 OFFCURVE",
"305 450 CURVE SMOOTH",
"394 450 OFFCURVE",
"459 393 OFFCURVE",
"459 239 CURVE SMOOTH",
"459 111 OFFCURVE",
"408 37 OFFCURVE",
"289 37 CURVE SMOOTH"
);
}
);
width = 577;
}
);
note = b;
unicode = 0062;
},
{
glyphname = c;
lastChange = "2015-07-30 07:35:18 +0000";
layers = (
{
layerId = "9EA4E357-4DFB-45A6-8407-D27A22F681E3";
name = Light;
paths = (
{
closed = 1;
nodes = (
"331 -12 OFFCURVE",
"376 2 OFFCURVE",
"414 24 CURVE SMOOTH",
"433 35 OFFCURVE",
"447 48 OFFCURVE",
"447 62 CURVE SMOOTH",
"447 75 OFFCURVE",
"438 86 OFFCURVE",
"426 86 CURVE SMOOTH",
"419 86 OFFCURVE",
"416 83 OFFCURVE",
"406 76 CURVE SMOOTH",
"372 52 OFFCURVE",
"333 37 OFFCURVE",
"283 37 CURVE SMOOTH",
"184 37 OFFCURVE",
"114 110 OFFCURVE",
"114 244 CURVE SMOOTH",
"114 378 OFFCURVE",
"182 449 OFFCURVE",
"278 449 CURVE SMOOTH",
"319 449 OFFCURVE",
"366 436 OFFCURVE",
"390 414 CURVE",
"399 365 LINE SMOOTH",
"403 346 OFFCURVE",
"410 337 OFFCURVE",
"424 337 CURVE SMOOTH",
"435 337 OFFCURVE",
"440 343 OFFCURVE",
"440 350 CURVE SMOOTH",
"440 439 LINE",
"408 470 OFFCURVE",
"338 499 OFFCURVE",
"270 499 CURVE SMOOTH",
"132 499 OFFCURVE",
"39 403 OFFCURVE",
"39 244 CURVE SMOOTH",
"39 88 OFFCURVE",
"130 -12 OFFCURVE",
"279 -12 CURVE SMOOTH"
);
}
);
width = 484;
}
);
note = c;
unicode = 0063;
},
{
glyphname = cacute;
lastChange = "2015-07-30 07:35:18 +0000";
layers = (
{
components = (
{
name = c;
}
);
layerId = "9EA4E357-4DFB-45A6-8407-D27A22F681E3";
name = Light;
paths = (
{
closed = 1;
nodes = (
"350 695 LINE",
"290 734 LINE",
"203 588 LINE",
"248 559 LINE"
);
}
);
width = 484;
}
);
note = cacute;
unicode = 0107;
},
{
glyphname = ccaron;
lastChange = "2015-07-30 07:35:18 +0000";
layers = (
{
components = (
{
name = c;
}
);
layerId = "9EA4E357-4DFB-45A6-8407-D27A22F681E3";
name = Light;
paths = (
{
closed = 1;
nodes = (
"286 559 LINE",
"393 695 LINE",
"356 725 LINE",
"265 626 LINE",
"174 725 LINE",
"137 695 LINE",
"244 559 LINE"
);
}
);
width = 484;
}
);
note = ccaron;
unicode = 010D;
},
{
glyphname = ccedilla;
lastChange = "2015-07-30 07:35:18 +0000";
layers = (
{
layerId = "9EA4E357-4DFB-45A6-8407-D27A22F681E3";
name = Light;
paths = (
{
closed = 1;
nodes = (
"270 -200 OFFCURVE",
"325 -163 OFFCURVE",
"325 -117 CURVE SMOOTH",
"325 -80 OFFCURVE",
"302 -61 OFFCURVE",
"276 -50 CURVE",
"293 -12 LINE",
"340 -10 OFFCURVE",
"379 4 OFFCURVE",
"414 24 CURVE SMOOTH",
"433 35 OFFCURVE",
"447 48 OFFCURVE",
"447 62 CURVE SMOOTH",
"447 75 OFFCURVE",
"438 86 OFFCURVE",
"426 86 CURVE SMOOTH",
"419 86 OFFCURVE",
"416 83 OFFCURVE",
"406 76 CURVE SMOOTH",
"372 52 OFFCURVE",
"333 37 OFFCURVE",
"283 37 CURVE SMOOTH",
"184 37 OFFCURVE",
"114 110 OFFCURVE",
"114 244 CURVE SMOOTH",
"114 378 OFFCURVE",
"182 449 OFFCURVE",
"278 449 CURVE SMOOTH",
"319 449 OFFCURVE",
"366 436 OFFCURVE",
"390 414 CURVE",
"399 365 LINE SMOOTH",
"403 346 OFFCURVE",
"410 337 OFFCURVE",
"424 337 CURVE SMOOTH",
"435 337 OFFCURVE",
"440 343 OFFCURVE",
"440 350 CURVE SMOOTH",
"440 439 LINE",
"408 470 OFFCURVE",
"338 499 OFFCURVE",
"270 499 CURVE SMOOTH",
"132 499 OFFCURVE",
"39 403 OFFCURVE",
"39 244 CURVE SMOOTH",
"39 101 OFFCURVE",
"115 6 OFFCURVE",
"242 -10 CURVE",
"223 -62 LINE",
"256 -72 OFFCURVE",
"268 -89 OFFCURVE",
"268 -115 CURVE SMOOTH",
"268 -143 OFFCURVE",
"246 -168 OFFCURVE",
"200 -183 CURVE",
"212 -213 LINE"
);
}
);
width = 484;
}
);
note = ccedilla;
unicode = 00E7;
},
{
glyphname = ccircumflex;
lastChange = "2015-07-30 07:35:18 +0000";
layers = (
{
components = (
{
name = c;
}
);
layerId = "9EA4E357-4DFB-45A6-8407-D27A22F681E3";
name = Light;
paths = (
{
closed = 1;
nodes = (
"264 658 LINE",
"355 559 LINE",
"392 589 LINE",
"285 725 LINE",
"243 725 LINE",
"136 589 LINE",
"173 559 LINE"
);
}
);
width = 484;
}
);
note = ccircumflex;
unicode = 0109;
},
{
glyphname = cdotaccent;
lastChange = "2015-07-30 07:35:18 +0000";
layers = (
{
components = (
{
name = c;
}
);
layerId = "9EA4E357-4DFB-45A6-8407-D27A22F681E3";
name = Light;
paths = (
{
closed = 1;
nodes = (
"289 552 OFFCURVE",
"311 573 OFFCURVE",
"311 601 CURVE SMOOTH",
"311 629 OFFCURVE",
"289 650 OFFCURVE",
"262 650 CURVE SMOOTH",
"235 650 OFFCURVE",
"213 629 OFFCURVE",
"213 601 CURVE SMOOTH",
"213 573 OFFCURVE",
"235 552 OFFCURVE",
"262 552 CURVE SMOOTH"
);
}
);
width = 484;
}
);
note = cdotaccent;
unicode = 010B;
},
{
glyphname = d;
lastChange = "2015-07-30 07:35:19 +0000";
layers = (
{
layerId = "9EA4E357-4DFB-45A6-8407-D27A22F681E3";
name = Light;
paths = (
{
closed = 1;
nodes = (
"337 -12 OFFCURVE",
"386 25 OFFCURVE",
"415 68 CURVE",
"419 68 LINE",
"419 0 LINE",
"545 0 LINE SMOOTH",
"554 0 OFFCURVE",
"556 6 OFFCURVE",
"556 12 CURVE SMOOTH",
"556 25 OFFCURVE",
"547 31 OFFCURVE",
"529 36 CURVE SMOOTH",
"489 47 LINE",
"489 710 LINE",
"385 710 LINE SMOOTH",
"364 710 OFFCURVE",
"350 702 OFFCURVE",
"350 683 CURVE SMOOTH",
"350 670 OFFCURVE",
"356 663 OFFCURVE",
"366 663 CURVE SMOOTH",
"416 663 LINE",
"416 453 LINE",
"377 479 OFFCURVE",
"328 499 OFFCURVE",
"268 499 CURVE SMOOTH",
"137 499 OFFCURVE",
"39 400 OFFCURVE",
"39 240 CURVE SMOOTH",
"39 65 OFFCURVE",
"141 -12 OFFCURVE",
"259 -12 CURVE SMOOTH"
);
},
{
closed = 1;
nodes = (
"171 37 OFFCURVE",
"115 113 OFFCURVE",
"115 240 CURVE SMOOTH",
"115 380 OFFCURVE",
"191 450 OFFCURVE",
"282 450 CURVE SMOOTH",
"333 450 OFFCURVE",
"379 430 OFFCURVE",
"415 399 CURVE",
"415 170 LINE SMOOTH",
"415 91 OFFCURVE",
"352 37 OFFCURVE",
"277 37 CURVE SMOOTH"
);
}
);
width = 584;
}
);
note = d;
unicode = 0064;
},
{
glyphname = eth;
lastChange = "2015-07-30 07:35:19 +0000";
layers = (
{
layerId = "9EA4E357-4DFB-45A6-8407-D27A22F681E3";
name = Light;
paths = (
{
closed = 1;
nodes = (
"444 -10 OFFCURVE",
"523 120 OFFCURVE",
"523 323 CURVE SMOOTH",
"523 429 OFFCURVE",
"497 522 OFFCURVE",
"444 588 CURVE",
"550 636 LINE",
"531 677 LINE",
"410 623 LINE",
"359 669 OFFCURVE",
"289 695 OFFCURVE",
"200 695 CURVE SMOOTH",
"172 695 OFFCURVE",
"148 691 OFFCURVE",
"124 685 CURVE",
"124 633 LINE",
"149 639 OFFCURVE",
"171 642 OFFCURVE",
"197 642 CURVE SMOOTH",
"257 642 OFFCURVE",
"307 626 OFFCURVE",
"347 595 CURVE",
"250 552 LINE",
"269 510 LINE",
"382 561 LINE",
"421 512 OFFCURVE",
"443 441 OFFCURVE",
"443 350 CURVE",
"395 383 OFFCURVE",
"334 412 OFFCURVE",
"260 412 CURVE SMOOTH",
"130 412 OFFCURVE",
"53 335 OFFCURVE",
"53 214 CURVE SMOOTH",
"53 68 OFFCURVE",
"156 -10 OFFCURVE",
"277 -10 CURVE SMOOTH"
);
},
{
closed = 1;
nodes = (
"195 44 OFFCURVE",
"134 111 OFFCURVE",
"134 212 CURVE SMOOTH",
"134 313 OFFCURVE",
"191 357 OFFCURVE",
"280 357 CURVE SMOOTH",
"335 357 OFFCURVE",
"402 327 OFFCURVE",
"442 294 CURVE",
"442 149 OFFCURVE",
"388 44 OFFCURVE",
"281 44 CURVE SMOOTH"
);
}
);
width = 603;
}
);
note = eth;
unicode = 00F0;
},
{
glyphname = dcaron;
lastChange = "2015-07-30 07:35:19 +0000";
layers = (
{
layerId = "9EA4E357-4DFB-45A6-8407-D27A22F681E3";
name = Light;
paths = (
{
closed = 1;
nodes = (
"337 -12 OFFCURVE",
"386 25 OFFCURVE",
"415 68 CURVE",
"419 68 LINE",
"419 0 LINE",
"545 0 LINE SMOOTH",
"554 0 OFFCURVE",
"556 6 OFFCURVE",
"556 12 CURVE SMOOTH",
"556 25 OFFCURVE",
"547 31 OFFCURVE",
"529 36 CURVE SMOOTH",
"489 47 LINE",
"489 710 LINE",
"385 710 LINE SMOOTH",
"364 710 OFFCURVE",
"350 702 OFFCURVE",
"350 683 CURVE SMOOTH",
"350 670 OFFCURVE",
"356 663 OFFCURVE",
"366 663 CURVE SMOOTH",
"416 663 LINE",
"416 453 LINE",
"377 479 OFFCURVE",
"328 499 OFFCURVE",
"268 499 CURVE SMOOTH",
"137 499 OFFCURVE",
"39 400 OFFCURVE",
"39 240 CURVE SMOOTH",
"39 65 OFFCURVE",
"141 -12 OFFCURVE",
"259 -12 CURVE SMOOTH"
);
},
{
closed = 1;
nodes = (
"171 37 OFFCURVE",
"115 113 OFFCURVE",
"115 240 CURVE SMOOTH",
"115 380 OFFCURVE",
"191 450 OFFCURVE",
"282 450 CURVE SMOOTH",
"333 450 OFFCURVE",
"379 430 OFFCURVE",
"415 399 CURVE",
"415 170 LINE SMOOTH",
"415 91 OFFCURVE",
"352 37 OFFCURVE",
"277 37 CURVE SMOOTH"
);
},
{
closed = 1;
nodes = (
"614 564 OFFCURVE",
"645 632 OFFCURVE",
"660 689 CURVE",
"585 707 LINE SMOOTH",
"564 712 OFFCURVE",
"549 703 OFFCURVE",
"549 684 CURVE SMOOTH",
"549 676 OFFCURVE",
"554 671 OFFCURVE",
"561 669 CURVE SMOOTH",
"590 659 LINE",
"586 627 OFFCURVE",
"561 573 OFFCURVE",
"537 537 CURVE",
"572 515 LINE"
);
}
);
width = 652;
}
);
note = dcaron;
unicode = 010F;
},
{
glyphname = dcroat;
lastChange = "2015-07-30 07:35:19 +0000";
layers = (
{
layerId = "9EA4E357-4DFB-45A6-8407-D27A22F681E3";
name = Light;
paths = (
{
closed = 1;
nodes = (
"338 -12 OFFCURVE",
"387 25 OFFCURVE",
"416 68 CURVE",
"420 68 LINE",
"420 0 LINE",
"546 0 LINE SMOOTH",
"555 0 OFFCURVE",
"557 6 OFFCURVE",
"557 12 CURVE SMOOTH",
"557 25 OFFCURVE",
"548 31 OFFCURVE",
"530 36 CURVE SMOOTH",
"490 47 LINE",
"490 563 LINE",
"578 563 LINE",
"578 600 LINE",
"490 600 LINE",
"490 710 LINE",
"386 710 LINE SMOOTH",
"365 710 OFFCURVE",
"351 702 OFFCURVE",
"351 683 CURVE SMOOTH",
"351 670 OFFCURVE",
"357 663 OFFCURVE",
"367 663 CURVE SMOOTH",
"417 663 LINE",
"417 600 LINE",
"302 600 LINE",
"302 563 LINE",
"417 563 LINE",
"417 453 LINE",
"378 479 OFFCURVE",
"329 499 OFFCURVE",
"269 499 CURVE SMOOTH",
"138 499 OFFCURVE",
"40 400 OFFCURVE",
"40 240 CURVE SMOOTH",
"40 65 OFFCURVE",
"142 -12 OFFCURVE",
"260 -12 CURVE SMOOTH"
);
},
{
closed = 1;
nodes = (
"172 37 OFFCURVE",
"116 113 OFFCURVE",
"116 240 CURVE SMOOTH",
"116 380 OFFCURVE",
"192 450 OFFCURVE",
"283 450 CURVE SMOOTH",
"334 450 OFFCURVE",
"380 430 OFFCURVE",
"416 399 CURVE",
"416 170 LINE SMOOTH",
"416 91 OFFCURVE",
"353 37 OFFCURVE",
"278 37 CURVE SMOOTH"
);
}
);
width = 572;
}
);
note = dcroat;
unicode = 0111;
},
{
glyphname = ddotbelow;
lastChange = "2015-07-30 07:35:19 +0000";
layers = (
{
components = (
{
name = d;
}
);
layerId = "9EA4E357-4DFB-45A6-8407-D27A22F681E3";
name = Light;
paths = (
{
closed = 1;
nodes = (
"319 -164 OFFCURVE",
"341 -143 OFFCURVE",
"341 -115 CURVE SMOOTH",
"341 -86 OFFCURVE",
"319 -65 OFFCURVE",
"292 -65 CURVE SMOOTH",
"265 -65 OFFCURVE",
"243 -86 OFFCURVE",
"243 -115 CURVE SMOOTH",
"243 -143 OFFCURVE",
"265 -164 OFFCURVE",
"292 -164 CURVE SMOOTH"
);
}
);
width = 584;
}
);
note = ddotbelow;
unicode = 1E0D;
},
{
glyphname = dlinebelow;
lastChange = "2015-07-30 07:35:19 +0000";
layers = (
{
components = (
{
name = d;
}
);
layerId = "9EA4E357-4DFB-45A6-8407-D27A22F681E3";
name = Light;
paths = (
{
closed = 1;
nodes = (
"486 -141 LINE",
"486 -88 LINE",
"108 -88 LINE",
"108 -141 LINE"
);
}
);
width = 586;
}
);
note = dlinebelow;
unicode = 1E0F;
},
